  0
SECTION
  2
HEADER
  9
$ACADVER
  1
AC1032
  9
$ACADMAINTVER
 90
      327
  9
$DWGCODEPAGE
  3
ANSI_1252
  9
$REQUIREDVERSIONS
160
                 0
  9
$INSBASE
 10
0.0
 20
0.0
 30
0.0
  9
$EXTMIN
 10
1.000000000000000E+20
 20
1.000000000000000E+20
 30
1.000000000000000E+20
  9
$EXTMAX
 10
-1.000000000000000E+20
 20
-1.000000000000000E+20
 30
-1.000000000000000E+20
  9
$LIMMIN
 10
0.0
 20
0.0
  9
$LIMMAX
 10
12.0
 20
9.0
  9
$ORTHOMODE
 70
     0
  9
$REGENMODE
 70
     1
  9
$FILLMODE
 70
     1
  9
$QTEXTMODE
 70
     0
  9
$MIRRTEXT
 70
     0
  9
$LTSCALE
 40
1.0
  9
$ATTMODE
 70
     1
  9
$TEXTSIZE
 40
0.2
  9
$TRACEWID
 40
0.05
  9
$TEXTSTYLE
  7
Standard
  9
$CLAYER
  8
0
  9
$CELTYPE
  6
ByLayer
  9
$CECOLOR
 62
   256
  9
$CELTSCALE
 40
1.0
  9
$DISPSILH
 70
     0
  9
$DIMSCALE
 40
1.0
  9
$DIMASZ
 40
0.18
  9
$DIMEXO
 40
0.0625
  9
$DIMDLI
 40
0.38
  9
$DIMRND
 40
0.0
  9
$DIMDLE
 40
0.0
  9
$DIMEXE
 40
0.18
  9
$DIMTP
 40
0.0
  9
$DIMTM
 40
0.0
  9
$DIMTXT
 40
0.18
  9
$DIMCEN
 40
0.09
  9
$DIMTSZ
 40
0.0
  9
$DIMTOL
 70
     0
  9
$DIMLIM
 70
     0
  9
$DIMTIH
 70
     1
  9
$DIMTOH
 70
     1
  9
$DIMSE1
 70
     0
  9
$DIMSE2
 70
     0
  9
$DIMTAD
 70
     0
  9
$DIMZIN
 70
     0
  9
$DIMBLK
  1

  9
$DIMASO
 70
     1
  9
$DIMSHO
 70
     1
  9
$DIMPOST
  1

  9
$DIMAPOST
  1

  9
$DIMALT
 70
     0
  9
$DIMALTD
 70
     2
  9
$DIMALTF
 40
25.4
  9
$DIMLFAC
 40
1.0
  9
$DIMTOFL
 70
     0
  9
$DIMTVP
 40
0.0
  9
$DIMTIX
 70
     0
  9
$DIMSOXD
 70
     0
  9
$DIMSAH
 70
     0
  9
$DIMBLK1
  1

  9
$DIMBLK2
  1

  9
$DIMSTYLE
  2
Standard
  9
$DIMCLRD
 70
     0
  9
$DIMCLRE
 70
     0
  9
$DIMCLRT
 70
     0
  9
$DIMTFAC
 40
1.0
  9
$DIMGAP
 40
0.09
  9
$DIMJUST
 70
     0
  9
$DIMSD1
 70
     0
  9
$DIMSD2
 70
     0
  9
$DIMTOLJ
 70
     1
  9
$DIMTZIN
 70
     0
  9
$DIMALTZ
 70
     0
  9
$DIMALTTZ
 70
     0
  9
$DIMUPT
 70
     0
  9
$DIMDEC
 70
     4
  9
$DIMTDEC
 70
     4
  9
$DIMALTU
 70
     2
  9
$DIMALTTD
 70
     2
  9
$DIMTXSTY
  7
Standard
  9
$DIMAUNIT
 70
     0
  9
$DIMADEC
 70
     0
  9
$DIMALTRND
 40
0.0
  9
$DIMAZIN
 70
     0
  9
$DIMDSEP
 70
    46
  9
$DIMATFIT
 70
     3
  9
$DIMFRAC
 70
     0
  9
$DIMLDRBLK
  1

  9
$DIMLUNIT
 70
     2
  9
$DIMLWD
 70
    -2
  9
$DIMLWE
 70
    -2
  9
$DIMTMOVE
 70
     0
  9
$DIMFXL
 40
1.0
  9
$DIMFXLON
 70
     0
  9
$DIMJOGANG
 40
0.7853981633974483
  9
$DIMTFILL
 70
     0
  9
$DIMTFILLCLR
 70
     0
  9
$DIMARCSYM
 70
     0
  9
$DIMLTYPE
  6

  9
$DIMLTEX1
  6

  9
$DIMLTEX2
  6

  9
$DIMTXTDIRECTION
 70
     0
  9
$LUNITS
 70
     2
  9
$LUPREC
 70
     4
  9
$SKETCHINC
 40
0.1
  9
$FILLETRAD
 40
0.0
  9
$AUNITS
 70
     0
  9
$AUPREC
 70
     0
  9
$MENU
  1
.
  9
$ELEVATION
 40
0.0
  9
$PELEVATION
 40
0.0
  9
$THICKNESS
 40
0.0
  9
$LIMCHECK
 70
     0
  9
$CHAMFERA
 40
0.0
  9
$CHAMFERB
 40
0.0
  9
$CHAMFERC
 40
0.0
  9
$CHAMFERD
 40
0.0
  9
$SKPOLY
 70
     0
  9
$TDCREATE
 40
2460636.560347222
  9
$TDUCREATE
 40
2460636.810347222
  9
$TDUPDATE
 40
2460636.560347222
  9
$TDUUPDATE
 40
2460636.810347222
  9
$TDINDWG
 40
0.0000000000
  9
$TDUSRTIMER
 40
0.0000000000
  9
$USRTIMER
 70
     1
  9
$ANGBASE
 50
0.0
  9
$ANGDIR
 70
     0
  9
$PDMODE
 70
     0
  9
$PDSIZE
 40
0.0
  9
$PLINEWID
 40
0.0
  9
$SPLFRAME
 70
     0
  9
$SPLINETYPE
 70
     6
  9
$SPLINESEGS
 70
     8
  9
$HANDSEED
  5
9C
  9
$SURFTAB1
 70
     6
  9
$SURFTAB2
 70
     6
  9
$SURFTYPE
 70
     6
  9
$SURFU
 70
     6
  9
$SURFV
 70
     6
  9
$UCSBASE
  2

  9
$UCSNAME
  2

  9
$UCSORG
 10
0.0
 20
0.0
 30
0.0
  9
$UCSXDIR
 10
1.0
 20
0.0
 30
0.0
  9
$UCSYDIR
 10
0.0
 20
1.0
 30
0.0
  9
$UCSORTHOREF
  2

  9
$UCSORTHOVIEW
 70
     0
  9
$UCSORGTOP
 10
0.0
 20
0.0
 30
0.0
  9
$UCSORGBOTTOM
 10
0.0
 20
0.0
 30
0.0
  9
$UCSORGLEFT
 10
0.0
 20
0.0
 30
0.0
  9
$UCSORGRIGHT
 10
0.0
 20
0.0
 30
0.0
  9
$UCSORGFRONT
 10
0.0
 20
0.0
 30
0.0
  9
$UCSORGBACK
 10
0.0
 20
0.0
 30
0.0
  9
$PUCSBASE
  2

  9
$PUCSNAME
  2

  9
$PUCSORG
 10
0.0
 20
0.0
 30
0.0
  9
$PUCSXDIR
 10
1.0
 20
0.0
 30
0.0
  9
$PUCSYDIR
 10
0.0
 20
1.0
 30
0.0
  9
$PUCSORTHOREF
  2

  9
$PUCSORTHOVIEW
 70
     0
  9
$PUCSORGTOP
 10
0.0
 20
0.0
 30
0.0
  9
$PUCSORGBOTTOM
 10
0.0
 20
0.0
 30
0.0
  9
$PUCSORGLEFT
 10
0.0
 20
0.0
 30
0.0
  9
$PUCSORGRIGHT
 10
0.0
 20
0.0
 30
0.0
  9
$PUCSORGFRONT
 10
0.0
 20
0.0
 30
0.0
  9
$PUCSORGBACK
 10
0.0
 20
0.0
 30
0.0
  9
$USERI1
 70
     0
  9
$USERI2
 70
     0
  9
$USERI3
 70
     0
  9
$USERI4
 70
     0
  9
$USERI5
 70
     0
  9
$USERR1
 40
0.0
  9
$USERR2
 40
0.0
  9
$USERR3
 40
0.0
  9
$USERR4
 40
0.0
  9
$USERR5
 40
0.0
  9
$WORLDVIEW
 70
     1
  9
$SHADEDGE
 70
     3
  9
$SHADEDIF
 70
    70
  9
$TILEMODE
 70
     1
  9
$MAXACTVP
 70
    64
  9
$PINSBASE
 10
0.0
 20
0.0
 30
0.0
  9
$PLIMCHECK
 70
     0
  9
$PEXTMIN
 10
1.000000000000000E+20
 20
1.000000000000000E+20
 30
1.000000000000000E+20
  9
$PEXTMAX
 10
-1.000000000000000E+20
 20
-1.000000000000000E+20
 30
-1.000000000000000E+20
  9
$PLIMMIN
 10
0.0
 20
0.0
  9
$PLIMMAX
 10
12.0
 20
9.0
  9
$UNITMODE
 70
     0
  9
$VISRETAIN
 70
     1
  9
$PLINEGEN
 70
     0
  9
$PSLTSCALE
 70
     1
  9
$TREEDEPTH
 70
  3020
  9
$CMLSTYLE
  2
Standard
  9
$CMLJUST
 70
     0
  9
$CMLSCALE
 40
1.0
  9
$PROXYGRAPHICS
 70
     1
  9
$MEASUREMENT
 70
     0
  9
$CELWEIGHT
370
    -1
  9
$ENDCAPS
280
     0
  9
$JOINSTYLE
280
     0
  9
$LWDISPLAY
290
     1
  9
$INSUNITS
 70
     0
  9
$HYPERLINKBASE
  1

  9
$STYLESHEET
  1

  9
$XEDIT
290
     1
  9
$CEPSNTYPE
380
     0
  9
$PSTYLEMODE
290
     1
  9
$FINGERPRINTGUID
  2
{BA79EDC7-9B91-2742-BB43-ECC5802EB3ED}
  9
$VERSIONGUID
  2
{C8F792E9-70C6-8442-B7DD-DFA8E513E2FA}
  9
$EXTNAMES
290
     1
  9
$PSVPSCALE
 40
0.0
  9
$OLESTARTUP
290
     0
  9
$SORTENTS
280
   127
  9
$INDEXCTL
280
     0
  9
$HIDETEXT
280
     1
  9
$XCLIPFRAME
280
     2
  9
$HALOGAP
280
     0
  9
$OBSCOLOR
 70
   257
  9
$OBSLTYPE
280
     0
  9
$INTERSECTIONDISPLAY
280
     0
  9
$INTERSECTIONCOLOR
 70
   257
  9
$DIMASSOC
280
     2
  9
$PROJECTNAME
  1

  9
$CAMERADISPLAY
290
     0
  9
$LENSLENGTH
 40
50.0
  9
$CAMERAHEIGHT
 40
0.0
  9
$STEPSPERSEC
 40
2.0
  9
$STEPSIZE
 40
6.0
  9
$3DDWFPREC
 40
2.0
  9
$PSOLWIDTH
 40
0.25
  9
$PSOLHEIGHT
 40
4.0
  9
$LOFTANG1
 40
1.570796326794896
  9
$LOFTANG2
 40
1.570796326794896
  9
$LOFTMAG1
 40
0.0
  9
$LOFTMAG2
 40
0.0
  9
$LOFTPARAM
 70
     7
  9
$LOFTNORMALS
280
     1
  9
$LATITUDE
 40
37.795
  9
$LONGITUDE
 40
-122.394
  9
$NORTHDIRECTION
 40
0.0
  9
$TIMEZONE
 70
 -8000
  9
$LIGHTGLYPHDISPLAY
280
     1
  9
$TILEMODELIGHTSYNCH
280
     1
  9
$CMATERIAL
347
11
  9
$SOLIDHIST
280
     0
  9
$SHOWHIST
280
     1
  9
$DWFFRAME
280
     2
  9
$DGNFRAME
280
     0
  9
$REALWORLDSCALE
290
     1
  9
$INTERFERECOLOR
 62
     1
  9
$INTERFEREOBJVS
345
33
  9
$INTERFEREVPVS
346
30
  9
$CSHADOW
280
     0
  9
$SHADOWPLANELOCATION
 40
0.0
  0
ENDSEC
  0
SECTION
  2
CLASSES
  0
CLASS
  1
ACDBDICTIONARYWDFLT
  2
AcDbDictionaryWithDefault
  3
ObjectDBX Classes
 90
        0
 91
        1
280
     0
281
     0
  0
CLASS
  1
MATERIAL
  2
AcDbMaterial
  3
ObjectDBX Classes
 90
     1153
 91
        3
280
     0
281
     0
  0
CLASS
  1
VISUALSTYLE
  2
AcDbVisualStyle
  3
ObjectDBX Classes
 90
     4095
 91
       24
280
     0
281
     0
  0
CLASS
  1
SCALE
  2
AcDbScale
  3
ObjectDBX Classes
 90
     1153
 91
       17
280
     0
281
     0
  0
CLASS
  1
TABLESTYLE
  2
AcDbTableStyle
  3
ObjectDBX Classes
 90
     4095
 91
        1
280
     0
281
     0
  0
CLASS
  1
MLEADERSTYLE
  2
AcDbMLeaderStyle
  3
ACDB_MLEADERSTYLE_CLASS
 90
     4095
 91
        1
280
     0
281
     0
  0
CLASS
  1
ACDBSECTIONVIEWSTYLE
  2
AcDbSectionViewStyle
  3
ObjectDBX Classes
 90
     1025
 91
        1
280
     0
281
     0
  0
CLASS
  1
ACDBDETAILVIEWSTYLE
  2
AcDbDetailViewStyle
  3
ObjectDBX Classes
 90
     1025
 91
        1
280
     0
281
     0
  0
CLASS
  1
DICTIONARYVAR
  2
AcDbDictionaryVar
  3
ObjectDBX Classes
 90
        0
 91
        5
280
     0
281
     0
  0
CLASS
  1
CELLSTYLEMAP
  2
AcDbCellStyleMap
  3
ObjectDBX Classes
 90
     1152
 91
        1
280
     0
281
     0
  0
ENDSEC
  0
SECTION
  2
TABLES
  0
TABLE
  2
VPORT
  5
8
330
0
100
AcDbSymbolTable
 70
     1
  0
VPORT
  5
57
330
8
100
AcDbSymbolTableRecord
100
AcDbViewportTableRecord
  2
*Active
 70
     0
 10
0.0
 20
0.0
 11
1.0
 21
1.0
 12
0.0
 22
0.0
 13
0.0
 23
0.0
 14
1.0
 24
1.0
 15
0.0
 25
0.0
 16
0.0
 26
0.0
 36
1.0
 17
960.0
 27
540.0
 37
0.0
 40
1101.6
 41
1.777777777777777
 42
50.0
 43
0.0
 44
0.0
 50
0.0
 51
0.0
 71
     0
 72
   100
 73
     1
 74
     1
 75
     0
 76
     0
 77
     0
 78
     0
281
     0
 65
     1
110
0.0
120
0.0
130
0.0
111
1.0
121
0.0
131
0.0
112
0.0
122
1.0
132
0.0
 79
     0
146
0.0
 60
     3
 61
     5
292
     1
282
     1
141
0.0
142
0.0
 63
   250
421
  3355443
  0
ENDTAB
  0
TABLE
  2
LTYPE
  5
5
330
0
100
AcDbSymbolTable
 70
     1
  0
LTYPE
  5
5B
330
5
100
AcDbSymbolTableRecord
100
AcDbLinetypeTableRecord
  2
ByBlock
 70
     0
  3

 72
    65
 73
     0
 40
0.0
  0
LTYPE
  5
5C
330
5
100
AcDbSymbolTableRecord
100
AcDbLinetypeTableRecord
  2
ByLayer
 70
     0
  3

 72
    65
 73
     0
 40
0.0
  0
LTYPE
  5
5D
330
5
100
AcDbSymbolTableRecord
100
AcDbLinetypeTableRecord
  2
Continuous
 70
     0
  3
Solid line
 72
    65
 73
     0
 40
0.0
  0
ENDTAB
  0
TABLE
  2
LAYER
  5
2
330
0
100
AcDbSymbolTable
 70
     2
  0
LAYER
  5
54
330
2
100
AcDbSymbolTableRecord
100
AcDbLayerTableRecord
  2
0
 70
     0
 62
     7
  6
Continuous
370
    -3
390
F
347
21
348
0
  0
LAYER
  5
78
330
2
100
AcDbSymbolTableRecord
100
AcDbLayerTableRecord
  2
Layer 1
 70
     0
 62
     7
  6
Continuous
370
     0
390
F
347
21
348
0
  0
ENDTAB
  0
TABLE
  2
STYLE
  5
3
330
0
100
AcDbSymbolTable
 70
     2
  0
STYLE
  5
55
330
3
100
AcDbSymbolTableRecord
100
AcDbTextStyleTableRecord
  2
Standard
 70
     0
 40
0.0
 41
1.0
 50
0.0
 71
     0
 42
0.2
  3
txt
  4

  0
STYLE
  5
5A
330
3
100
AcDbSymbolTableRecord
100
AcDbTextStyleTableRecord
  2
Annotative
 70
     0
 40
0.0
 41
1.0
 50
0.0
 71
     0
 42
0.2
  3
txt
  4

1001
AcadAnnotative
1000
AnnotativeData
1002
{
1070
     1
1070
     1
1002
}
  0
ENDTAB
  0
TABLE
  2
VIEW
  5
6
330
0
100
AcDbSymbolTable
 70
     0
  0
ENDTAB
  0
TABLE
  2
UCS
  5
7
330
0
100
AcDbSymbolTable
 70
     0
  0
ENDTAB
  0
TABLE
  2
APPID
  5
9
330
0
100
AcDbSymbolTable
 70
     2
  0
APPID
  5
56
330
9
100
AcDbSymbolTableRecord
100
AcDbRegAppTableRecord
  2
ACAD
 70
     0
  0
APPID
  5
5E
330
9
100
AcDbSymbolTableRecord
100
AcDbRegAppTableRecord
  2
AcadAnnotative
 70
     0
  0
ENDTAB
  0
TABLE
  2
DIMSTYLE
  5
A
330
0
100
AcDbSymbolTable
 70
     2
100
AcDbDimStyleTable
 71
     0
  0
DIMSTYLE
105
58
330
A
100
AcDbSymbolTableRecord
100
AcDbDimStyleTableRecord
  2
Standard
 70
     0
340
55
  0
DIMSTYLE
105
59
330
A
100
AcDbSymbolTableRecord
100
AcDbDimStyleTableRecord
  2
Annotative
 70
     0
340
55
1001
AcadAnnotative
1000
AnnotativeData
1002
{
1070
     1
1070
     1
1002
}
  0
ENDTAB
  0
TABLE
  2
BLOCK_RECORD
  5
1
330
0
100
AcDbSymbolTable
 70
     3
  0
BLOCK_RECORD
  5
70
330
1
100
AcDbSymbolTableRecord
100
AcDbBlockTableRecord
  2
*Model_Space
340
73
 70
     0
280
     1
281
     0
  0
BLOCK_RECORD
  5
6C
330
1
100
AcDbSymbolTableRecord
100
AcDbBlockTableRecord
  2
*Paper_Space
340
6F
 70
     0
280
     1
281
     0
  0
BLOCK_RECORD
  5
74
330
1
100
AcDbSymbolTableRecord
100
AcDbBlockTableRecord
  2
*Paper_Space0
340
77
 70
     0
280
     1
281
     0
  0
BLOCK_RECORD
  5
79
330
1
100
AcDbSymbolTableRecord
100
AcDbBlockTableRecord
  2
Block_0
340
0
102
{BLKREFS
331
7A
102
}
 70
     0
280
     1
281
     0
  0
BLOCK_RECORD
  5
7D
330
1
100
AcDbSymbolTableRecord
100
AcDbBlockTableRecord
  2
Block_1
340
0
102
{BLKREFS
331
7E
102
}
 70
     0
280
     1
281
     0
  0
ENDTAB
  0
ENDSEC
  0
SECTION
  2
BLOCKS
  0
BLOCK
  5
71
330
70
100
AcDbEntity
  8
0
100
AcDbBlockBegin
  2
*Model_Space
 70
     0
 10
0.0
 20
0.0
 30
0.0
  3
*Model_Space
  1

  0
ENDBLK
  5
72
330
70
100
AcDbEntity
  8
0
100
AcDbBlockEnd
  0
BLOCK
  5
6D
330
6C
100
AcDbEntity
 67
     1
  8
0
100
AcDbBlockBegin
  2
*Paper_Space
 70
     0
 10
0.0
 20
0.0
 30
0.0
  3
*Paper_Space
  1

  0
ENDBLK
  5
6E
330
6C
100
AcDbEntity
 67
     1
  8
0
100
AcDbBlockEnd
  0
BLOCK
  5
75
330
74
100
AcDbEntity
 67
     1
  8
0
100
AcDbBlockBegin
  2
*Paper_Space0
 70
     0
 10
0.0
 20
0.0
 30
0.0
  3
*Paper_Space0
  1

  0
ENDBLK
  5
76
330
74
100
AcDbEntity
 67
     1
  8
0
100
AcDbBlockEnd
  0
BLOCK
  5
7B
330
79
100
AcDbEntity
  8
0
100
AcDbBlockBegin
  2
Block_0
 70
     0
 10
0.0
 20
0.0
 30
0.0
  3
Block_0
  1

  0
INSERT
  5
7E
330
79
100
AcDbEntity
  8
Layer 1
100
AcDbBlockReference
  2
Block_1
 10
0.0
 20
0.0
 30
0.0
  0
ENDBLK
  5
7C
330
79
100
AcDbEntity
  8
0
100
AcDbBlockEnd
  0
BLOCK
  5
7F
330
7D
100
AcDbEntity
  8
0
100
AcDbBlockBegin
  2
Block_1
 70
     0
 10
0.0
 20
0.0
 30
0.0
  3
Block_1
  1

  0
SPLINE
  5
81
330
7D
100
AcDbEntity
  8
Layer 1
100
AcDbSpline
210
0.0
220
0.0
230
1.0
 70
     9
 71
     3
 72
   101
 73
    97
 74
     0
 42
0.0000000001
 43
0.0000000001
 40
0.0
 40
0.0
 40
0.0
 40
0.0
 40
1.0
 40
1.0
 40
1.0
 40
2.0
 40
2.0
 40
2.0
 40
3.0
 40
3.0
 40
3.0
 40
4.0
 40
4.0
 40
4.0
 40
5.0
 40
5.0
 40
5.0
 40
6.0
 40
6.0
 40
6.0
 40
7.0
 40
7.0
 40
7.0
 40
8.0
 40
8.0
 40
8.0
 40
9.0
 40
9.0
 40
9.0
 40
10.0
 40
10.0
 40
10.0
 40
11.0
 40
11.0
 40
11.0
 40
12.0
 40
12.0
 40
12.0
 40
13.0
 40
13.0
 40
13.0
 40
14.0
 40
14.0
 40
14.0
 40
15.0
 40
15.0
 40
15.0
 40
16.0
 40
16.0
 40
16.0
 40
17.0
 40
17.0
 40
17.0
 40
18.0
 40
18.0
 40
18.0
 40
19.0
 40
19.0
 40
19.0
 40
20.0
 40
20.0
 40
20.0
 40
21.0
 40
21.0
 40
21.0
 40
22.0
 40
22.0
 40
22.0
 40
23.0
 40
23.0
 40
23.0
 40
24.0
 40
24.0
 40
24.0
 40
25.0
 40
25.0
 40
25.0
 40
26.0
 40
26.0
 40
26.0
 40
27.0
 40
27.0
 40
27.0
 40
28.0
 40
28.0
 40
28.0
 40
29.0
 40
29.0
 40
29.0
 40
30.0
 40
30.0
 40
30.0
 40
31.0
 40
31.0
 40
31.0
 40
32.0
 40
32.0
 40
32.0
 40
32.0
 10
1088.424331311995
 20
550.8864154842795
 30
0.0
 10
1090.251976178879
 20
553.062460183909
 30
0.0
 10
1094.58508003287
 20
562.1686884421579
 30
0.0
 10
1095.307908744818
 20
565.0051333118645
 30
0.0
 10
1096.095690314867
 20
568.0964590379671
 30
0.0
 10
1095.87363351549
 20
571.2823649151687
 30
0.0
 10
1096.201332308919
 20
574.4290999536242
 30
0.0
 10
1096.890979336691
 20
581.0514510576285
 30
0.0
 10
1097.92575740304
 20
585.3299252976139
 30
0.0
 10
1096.609236161552
 20
592.114770703035
 30
0.0
 10
1094.494698295526
 20
603.0122876383911
 30
0.0
 10
1082.726437117693
 20
623.9253746294179
 30
0.0
 10
1074.603349214305
 20
631.5379662272571
 30
0.0
 10
1062.189964217554
 20
643.1712307506659
 30
0.0
 10
1036.323361875759
 20
648.335211244831
 30
0.0
 10
1020.536233120157
 20
641.91551002301
 30
0.0
 10
1015.381005555842
 20
639.819180715398
 30
0.0
 10
1008.826314000655
 20
634.9311863887469
 30
0.0
 10
1004.204158507238
 20
631.6104384358713
 30
0.0
 10
997.1762704590128
 20
626.5613125718819
 30
0.0
 10
990.7196526492061
 20
621.0809328751501
 30
0.0
 10
984.4298821224983
 20
615.1471178410365
 30
0.0
 10
983.7037184448963
 20
614.9561165547802
 30
0.0
 10
983.0246337066601
 20
615.1855066814441
 30
0.0
 10
982.3344364408512
 20
615.3536113786895
 30
0.0
 10
971.0932172548146
 20
618.0915268146755
 30
0.0
 10
961.5542163135579
 20
626.2590899587221
 30
0.0
 10
951.9653598907789
 20
614.4940687527178
 30
0.0
 10
946.9960391685262
 20
608.3969742610498
 30
0.0
 10
943.3907491357722
 20
600.6776012133741
 30
0.0
 10
938.1629193228601
 20
594.4619652062993
 30
0.0
 10
929.0670896183938
 20
583.6474649932916
 30
0.0
 10
915.6708366296671
 20
577.7331586585241
 30
0.0
 10
905.3966555642036
 20
568.4354365331292
 30
0.0
 10
902.1576611343725
 20
565.5042763771616
 30
0.0
 10
898.1669698240921
 20
561.6002670329471
 30
0.0
 10
897.5809971732669
 20
557.113856316002
 30
0.0
 10
897.0356040729157
 20
552.9381367718924
 30
0.0
 10
897.3758049509006
 20
550.3993926929888
 30
0.0
 10
895.743835406658
 20
546.1744214691471
 30
0.0
 10
894.7659823560925
 20
543.6428785158132
 30
0.0
 10
892.7248643042958
 20
539.2611023909048
 30
0.0
 10
889.8626906722938
 20
538.6176589098413
 30
0.0
 10
885.8279389170848
 20
537.7106088673262
 30
0.0
 10
880.7769506164014
 20
537.5192638175867
 30
0.0
 10
876.5498631242598
 20
536.8109867824751
 30
0.0
 10
861.0427503202044
 20
534.2126653849573
 30
0.0
 10
841.6260772130508
 20
528.0194808011092
 30
0.0
 10
832.528430013237
 20
514.3586376584171
 30
0.0
 10
823.3190484399184
 20
500.5300164389755
 30
0.0
 10
821.9477812619189
 20
484.9689845492339
 30
0.0
 10
824.5848915817896
 20
468.9245413903226
 30
0.0
 10
825.4080434254538
 20
463.916403176574
 30
0.0
 10
826.0001300719633
 20
458.342927122243
 30
0.0
 10
828.5586217715808
 20
453.9424206027615
 30
0.0
 10
836.0010959034525
 20
441.1416536730576
 30
0.0
 10
849.6853078955309
 20
438.4820938950142
 30
0.0
 10
863.3087574248374
 20
436.8572876691833
 30
0.0
 10
869.6472927494369
 20
436.1013196864842
 30
0.0
 10
876.3315796715859
 20
435.4004149832435
 30
0.0
 10
882.6891402369273
 20
436.1395887609233
 30
0.0
 10
888.2934260202237
 20
436.7911816244195
 30
0.0
 10
893.8775266274824
 20
437.8377326753161
 30
0.0
 10
899.5187058150877
 20
438.5093669163125
 30
0.0
 10
912.5489954964068
 20
440.0607426888273
 30
0.0
 10
924.0630337752518
 20
443.5224501569737
 30
0.0
 10
935.645132318764
 20
449.6598524908477
 30
0.0
 10
940.1369633822477
 20
452.0400925094272
 30
0.0
 10
945.04410299369
 20
455.9979392846289
 30
0.0
 10
950.1908834847508
 20
456.472217638031
 30
0.0
 10
955.4788195155415
 20
456.9595035438378
 30
0.0
 10
959.4476379403996
 20
455.0036348474077
 30
0.0
 10
964.4314804390106
 20
453.9752701731067
 30
0.0
 10
976.6865408680823
 20
451.4465644144147
 30
0.0
 10
980.4268064543903
 20
453.2962861014912
 30
0.0
 10
990.6746120918796
 20
459.1877341462405
 30
0.0
 10
1006.236655050756
 20
468.1343292326054
 30
0.0
 10
1023.541083618225
 20
478.4680367799592
 30
0.0
 10
1036.729356009891
 20
490.5869409687457
 30
0.0
 10
1040.794684041133
 20
494.3226327594129
 30
0.0
 10
1045.261004513719
 20
499.7395847036695
 30
0.0
 10
1047.522281300689
 20
504.8074314020777
 30
0.0
 10
1048.854402310629
 20
507.7929062899875
 30
0.0
 10
1048.211113400557
 20
509.6380684872565
 30
0.0
 10
1048.636362462754
 20
512.5545872929978
 30
0.0
 10
1048.784849962416
 20
513.5729706915426
 30
0.0
 10
1050.092649516877
 20
519.8123555396723
 30
0.0
 10
1050.43062573007
 20
520.25793847577
 30
0.0
 10
1056.253463911733
 20
524.3094568418491
 30
0.0
 10
1062.973345600936
 20
527.6199174857501
 30
0.0
 10
1068.472742221689
 20
532.0894152374513
 30
0.0
 10
1072.683064106477
 20
535.5112495759621
 30
0.0
 10
1076.392734964551
 20
539.9578931895648
 30
0.0
 10
1080.356646482476
 20
543.7222894664046
 30
0.0
 10
1082.712301598429
 20
545.9593775819948
 30
0.0
 10
1086.446273867759
 20
548.5312853957821
 30
0.0
 10
1088.424331311995
 20
550.8864154842795
 30
0.0
  0
SPLINE
  5
82
330
7D
100
AcDbEntity
  8
Layer 1
100
AcDbSpline
210
0.0
220
0.0
230
1.0
 70
    11
 71
     3
 72
    17
 73
    13
 74
     0
 42
0.0000000001
 43
0.0000000001
 40
0.0
 40
0.0
 40
0.0
 40
0.0
 40
1.0
 40
1.0
 40
1.0
 40
2.0
 40
2.0
 40
2.0
 40
3.0
 40
3.0
 40
3.0
 40
4.0
 40
4.0
 40
4.0
 40
4.0
 10
1100.28
 20
648.21
 30
0.0
 10
1100.28
 20
648.21
 30
0.0
 10
1100.28
 20
431.5499999999993
 30
0.0
 10
1100.28
 20
431.5499999999993
 30
0.0
 10
1100.28
 20
431.5499999999993
 30
0.0
 10
819.7200000000002
 20
431.5499999999993
 30
0.0
 10
819.7200000000002
 20
431.5499999999993
 30
0.0
 10
819.7200000000002
 20
431.5499999999993
 30
0.0
 10
819.7200000000002
 20
648.21
 30
0.0
 10
819.7200000000002
 20
648.21
 30
0.0
 10
819.7200000000002
 20
648.21
 30
0.0
 10
1100.28
 20
648.21
 30
0.0
 10
1100.28
 20
648.21
 30
0.0
  0
SPLINE
  5
83
330
7D
100
AcDbEntity
  8
Layer 1
100
AcDbSpline
210
0.0
220
0.0
230
1.0
 70
     9
 71
     3
 72
    32
 73
    28
 74
     0
 42
0.0000000001
 43
0.0000000001
 40
0.0
 40
0.0
 40
0.0
 40
0.0
 40
1.0
 40
1.0
 40
1.0
 40
2.0
 40
2.0
 40
2.0
 40
3.0
 40
3.0
 40
3.0
 40
4.0
 40
4.0
 40
4.0
 40
5.0
 40
5.0
 40
5.0
 40
6.0
 40
6.0
 40
6.0
 40
7.0
 40
7.0
 40
7.0
 40
8.0
 40
8.0
 40
8.0
 40
9.0
 40
9.0
 40
9.0
 40
9.0
 10
1036.107682541453
 20
501.4605434609238
 30
0.0
 10
1039.532913867544
 20
505.251847227064
 30
0.0
 10
1042.716261695839
 20
508.2691372493646
 30
0.0
 10
1042.209270161791
 20
513.7365229896568
 30
0.0
 10
1042.003848842734
 20
515.9517820524561
 30
0.0
 10
1041.545425400403
 20
515.9732286045801
 30
0.0
 10
1039.714879344183
 20
515.2513806197203
 30
0.0
 10
1032.099979311204
 20
512.2485606551399
 30
0.0
 10
1023.417553721565
 20
506.8192701639018
 30
0.0
 10
1015.886246664791
 20
503.0839433259789
 30
0.0
 10
1007.324452354232
 20
498.8375223756829
 30
0.0
 10
998.2240921739721
 20
495.5165743775341
 30
0.0
 10
990.3807749435291
 20
489.9530514061225
 30
0.0
 10
987.9736366938068
 20
488.2455890462279
 30
0.0
 10
985.7643717047267
 20
486.2198758370595
 30
0.0
 10
983.3794592860122
 20
484.4758838643975
 30
0.0
 10
974.7432265416628
 20
478.1605489858557
 30
0.0
 10
964.0101204804887
 20
471.0979881861113
 30
0.0
 10
956.5148717288485
 20
463.5861493253432
 30
0.0
 10
955.2877414305466
 20
462.3563028762873
 30
0.0
 10
955.0541840050273
 20
461.8795363437039
 30
0.0
 10
956.8140540353796
 20
461.2359446985046
 30
0.0
 10
962.4764670977674
 20
459.1651771555789
 30
0.0
 10
971.9239094601725
 20
458.3761249593335
 30
0.0
 10
977.4855957942254
 20
460.856288368508
 30
0.0
 10
996.7196498196862
 20
473.6801635398697
 30
0.0
 10
1020.457159887628
 20
484.1373673508878
 30
0.0
 10
1036.107682541453
 20
501.4605434609238
 30
0.0
  0
SPLINE
  5
84
330
7D
100
AcDbEntity
  8
Layer 1
100
AcDbSpline
210
0.0
220
0.0
230
1.0
 70
     9
 71
     3
 72
    38
 73
    34
 74
     0
 42
0.0000000001
 43
0.0000000001
 40
0.0
 40
0.0
 40
0.0
 40
0.0
 40
1.0
 40
1.0
 40
1.0
 40
2.0
 40
2.0
 40
2.0
 40
3.0
 40
3.0
 40
3.0
 40
4.0
 40
4.0
 40
4.0
 40
5.0
 40
5.0
 40
5.0
 40
6.0
 40
6.0
 40
6.0
 40
7.0
 40
7.0
 40
7.0
 40
8.0
 40
8.0
 40
8.0
 40
9.0
 40
9.0
 40
9.0
 40
10.0
 40
10.0
 40
10.0
 40
11.0
 40
11.0
 40
11.0
 40
11.0
 10
944.6760370866385
 20
566.9564441621232
 30
0.0
 10
952.9679228695805
 20
574.6808707798891
 30
0.0
 10
961.2224942444154
 20
582.8393240638943
 30
0.0
 10
967.9992828037192
 20
591.9862873188722
 30
0.0
 10
972.1008870894493
 20
597.522423404529
 30
0.0
 10
975.7172658832642
 20
603.4406654350696
 30
0.0
 10
979.7601355018633
 20
609.0217985591325
 30
0.0
 10
980.1143471077976
 20
609.5255825617905
 30
0.0
 10
980.1580985320724
 20
609.8753153771403
 30
0.0
 10
979.6924796101121
 20
610.3129670012304
 30
0.0
 10
979.1597738712935
 20
610.813675887317
 30
0.0
 10
972.5794534358501
 20
613.2571343572908
 30
0.0
 10
971.4524108215318
 20
613.5919976394298
 30
0.0
 10
965.0882108564584
 20
615.4829082948163
 30
0.0
 10
961.0821986136798
 20
614.5274967028808
 30
0.0
 10
957.0444002214516
 20
609.1764094131613
 30
0.0
 10
952.4551757306181
 20
603.094545373132
 30
0.0
 10
948.8900213405095
 20
595.9230133830088
 30
0.0
 10
944.2355712951885
 20
589.8305958064993
 30
0.0
 10
935.9295198955832
 20
578.9584341019754
 30
0.0
 10
921.2257953205753
 20
572.0966559696462
 30
0.0
 10
910.3639092840621
 20
563.7094915784964
 30
0.0
 10
903.4081023714234
 20
558.3384633930345
 30
0.0
 10
903.0384860536251
 20
553.2942079086806
 30
0.0
 10
903.049188344833
 20
544.6756347732762
 30
0.0
 10
903.050280770568
 20
543.7959024890196
 30
0.0
 10
903.3247459854692
 20
543.3896618134813
 30
0.0
 10
904.232666082693
 20
543.4908900293903
 30
0.0
 10
915.3226669930255
 20
548.0521665045198
 30
0.0
 10
926.5012791717872
 20
552.2322266836353
 30
0.0
 10
936.0995288493104
 20
559.5750169781677
 30
0.0
 10
939.0710864314387
 20
561.8482985562441
 30
0.0
 10
941.9411476694776
 20
564.4087182088751
 30
0.0
 10
944.6760370866385
 20
566.9564441621232
 30
0.0
  0
SPLINE
  5
85
330
7D
100
AcDbEntity
  8
Layer 1
100
AcDbSpline
210
0.0
220
0.0
230
1.0
 70
     9
 71
     3
 72
    68
 73
    64
 74
     0
 42
0.0000000001
 43
0.0000000001
 40
0.0
 40
0.0
 40
0.0
 40
0.0
 40
1.0
 40
1.0
 40
1.0
 40
2.0
 40
2.0
 40
2.0
 40
3.0
 40
3.0
 40
3.0
 40
4.0
 40
4.0
 40
4.0
 40
5.0
 40
5.0
 40
5.0
 40
6.0
 40
6.0
 40
6.0
 40
7.0
 40
7.0
 40
7.0
 40
8.0
 40
8.0
 40
8.0
 40
9.0
 40
9.0
 40
9.0
 40
10.0
 40
10.0
 40
10.0
 40
11.0
 40
11.0
 40
11.0
 40
12.0
 40
12.0
 40
12.0
 40
13.0
 40
13.0
 40
13.0
 40
14.0
 40
14.0
 40
14.0
 40
15.0
 40
15.0
 40
15.0
 40
16.0
 40
16.0
 40
16.0
 40
17.0
 40
17.0
 40
17.0
 40
18.0
 40
18.0
 40
18.0
 40
19.0
 40
19.0
 40
19.0
 40
20.0
 40
20.0
 40
20.0
 40
21.0
 40
21.0
 40
21.0
 40
21.0
 10
1067.311366035388
 20
631.3232928954493
 30
0.0
 10
1056.896112689957
 20
638.6498635672424
 30
0.0
 10
1033.415848120754
 20
639.9780695538574
 30
0.0
 10
1022.27589429189
 20
633.9380580597971
 30
0.0
 10
1011.411785440778
 20
628.0476079429027
 30
0.0
 10
995.9300678502149
 20
616.3709801921996
 30
0.0
 10
988.3448010866322
 20
606.6767007962826
 30
0.0
 10
980.9165360444712
 20
597.1830759851719
 30
0.0
 10
975.1394516018281
 20
586.5251119920322
 30
0.0
 10
966.8504471463384
 20
577.5453044097402
 30
0.0
 10
948.7327727678549
 20
557.9177085227966
 30
0.0
 10
925.4138621696156
 20
538.0096510196945
 30
0.0
 10
898.2497809724055
 20
533.3520268296361
 30
0.0
 10
890.4217806376827
 20
532.009817481412
 30
0.0
 10
882.5085280546
 20
532.713902430205
 30
0.0
 10
874.9707221439804
 20
530.4718832608214
 30
0.0
 10
866.8530138829574
 20
528.0573799227822
 30
0.0
 10
857.0447425073135
 20
524.4244215008257
 30
0.0
 10
850.3265607579033
 20
519.3591221215974
 30
0.0
 10
847.060432545849
 20
516.8965633784591
 30
0.0
 10
841.8637572867837
 20
513.1057517665777
 30
0.0
 10
839.684634486599
 20
509.8436835185184
 30
0.0
 10
833.5500223788375
 20
500.6603904204076
 30
0.0
 10
830.453804878649
 20
485.5315400845629
 30
0.0
 10
831.481863002763
 20
474.6199353753745
 30
0.0
 10
831.8533715790035
 20
470.6768171460425
 30
0.0
 10
832.7784185372829
 20
466.7488735917977
 30
0.0
 10
833.3712496527159
 20
462.8335633152728
 30
0.0
 10
834.289550822652
 20
456.7687095753154
 30
0.0
 10
834.2992959273132
 20
452.2865681283201
 30
0.0
 10
840.1531497013102
 20
448.4984561382698
 30
0.0
 10
846.979964217212
 20
444.080727421433
 30
0.0
 10
862.2957167217574
 20
441.6041440319641
 30
0.0
 10
870.4699854419368
 20
441.1373304072039
 30
0.0
 10
878.3228791669971
 20
440.6888697668509
 30
0.0
 10
885.84427360261
 20
442.3517522739184
 30
0.0
 10
893.5508889999718
 20
443.5157972926626
 30
0.0
 10
903.1470403715839
 20
444.9652471000426
 30
0.0
 10
911.1021680625844
 20
446.0080996440155
 30
0.0
 10
920.3399926464589
 20
449.365073796689
 30
0.0
 10
940.6512281956274
 20
456.7460639993405
 30
0.0
 10
955.2313027776218
 20
471.4866667918413
 30
0.0
 10
972.1405436654421
 20
484.194877304566
 30
0.0
 10
979.844992764869
 20
489.9851881582344
 30
0.0
 10
988.0708246410122
 20
496.4765224013717
 30
0.0
 10
996.7539386106109
 20
500.6169345728358
 30
0.0
 10
1010.848991407489
 20
507.3379482969394
 30
0.0
 10
1024.942952334193
 20
513.8342984552637
 30
0.0
 10
1038.891169895201
 20
520.8740934408706
 30
0.0
 10
1046.934635662013
 20
524.9337053392664
 30
0.0
 10
1057.040666453913
 20
530.1631350849492
 30
0.0
 10
1063.912883907687
 20
535.928210467704
 30
0.0
 10
1067.773780889036
 20
539.1671013049381
 30
0.0
 10
1071.778024091962
 20
544.0023406206501
 30
0.0
 10
1075.433668672394
 20
547.6841701063067
 30
0.0
 10
1085.349765303073
 20
557.6712944435148
 30
0.0
 10
1089.541254714695
 20
565.4475330663753
 30
0.0
 10
1090.209882322591
 20
579.9390240678631
 30
0.0
 10
1090.88766292675
 20
594.6288924043419
 30
0.0
 10
1087.391383076456
 20
602.0477879816517
 30
0.0
 10
1080.073917074809
 20
614.2133318264495
 30
0.0
 10
1077.114647616437
 20
619.1332210799546
 30
0.0
 10
1071.841079164205
 20
628.1368832844182
 30
0.0
 10
1067.311366035388
 20
631.3232928954493
 30
0.0
  0
SPLINE
  5
86
330
7D
100
AcDbEntity
  8
Layer 1
100
AcDbSpline
210
0.0
220
0.0
230
1.0
 70
     9
 71
     3
 72
   101
 73
    97
 74
     0
 42
0.0000000001
 43
0.0000000001
 40
0.0
 40
0.0
 40
0.0
 40
0.0
 40
1.0
 40
1.0
 40
1.0
 40
2.0
 40
2.0
 40
2.0
 40
3.0
 40
3.0
 40
3.0
 40
4.0
 40
4.0
 40
4.0
 40
5.0
 40
5.0
 40
5.0
 40
6.0
 40
6.0
 40
6.0
 40
7.0
 40
7.0
 40
7.0
 40
8.0
 40
8.0
 40
8.0
 40
9.0
 40
9.0
 40
9.0
 40
10.0
 40
10.0
 40
10.0
 40
11.0
 40
11.0
 40
11.0
 40
12.0
 40
12.0
 40
12.0
 40
13.0
 40
13.0
 40
13.0
 40
14.0
 40
14.0
 40
14.0
 40
15.0
 40
15.0
 40
15.0
 40
16.0
 40
16.0
 40
16.0
 40
17.0
 40
17.0
 40
17.0
 40
18.0
 40
18.0
 40
18.0
 40
19.0
 40
19.0
 40
19.0
 40
20.0
 40
20.0
 40
20.0
 40
21.0
 40
21.0
 40
21.0
 40
22.0
 40
22.0
 40
22.0
 40
23.0
 40
23.0
 40
23.0
 40
24.0
 40
24.0
 40
24.0
 40
25.0
 40
25.0
 40
25.0
 40
26.0
 40
26.0
 40
26.0
 40
27.0
 40
27.0
 40
27.0
 40
28.0
 40
28.0
 40
28.0
 40
29.0
 40
29.0
 40
29.0
 40
30.0
 40
30.0
 40
30.0
 40
31.0
 40
31.0
 40
31.0
 40
32.0
 40
32.0
 40
32.0
 40
32.0
 10
1088.424331311995
 20
550.8864154842795
 30
0.0
 10
1086.446273867759
 20
548.5312853957821
 30
0.0
 10
1082.712301598429
 20
545.9593775819948
 30
0.0
 10
1080.356646482476
 20
543.7222894664046
 30
0.0
 10
1076.392734964551
 20
539.9578931895648
 30
0.0
 10
1072.683064106477
 20
535.5112495759621
 30
0.0
 10
1068.472742221689
 20
532.0894152374513
 30
0.0
 10
1062.973345600936
 20
527.6199174857501
 30
0.0
 10
1056.253463911733
 20
524.3094568418491
 30
0.0
 10
1050.43062573007
 20
520.25793847577
 30
0.0
 10
1050.092649516877
 20
519.8123555396723
 30
0.0
 10
1048.784849962416
 20
513.5729706915426
 30
0.0
 10
1048.636362462754
 20
512.5545872929978
 30
0.0
 10
1048.211113400557
 20
509.6380684872565
 30
0.0
 10
1048.854402310629
 20
507.7929062899875
 30
0.0
 10
1047.522281300689
 20
504.8074314020777
 30
0.0
 10
1045.261004513719
 20
499.7395847036695
 30
0.0
 10
1040.794684041133
 20
494.3226327594129
 30
0.0
 10
1036.729356009891
 20
490.5869409687457
 30
0.0
 10
1023.541083618225
 20
478.4680367799592
 30
0.0
 10
1006.236655050756
 20
468.1343292326054
 30
0.0
 10
990.6746120918796
 20
459.1877341462405
 30
0.0
 10
980.4268064543903
 20
453.2962861014912
 30
0.0
 10
976.6865408680823
 20
451.4465644144147
 30
0.0
 10
964.4314804390106
 20
453.9752701731067
 30
0.0
 10
959.4476379403996
 20
455.0036348474077
 30
0.0
 10
955.4788195155415
 20
456.9595035438378
 30
0.0
 10
950.1908834847508
 20
456.472217638031
 30
0.0
 10
945.04410299369
 20
455.9979392846289
 30
0.0
 10
940.1369633822477
 20
452.0400925094272
 30
0.0
 10
935.645132318764
 20
449.6598524908477
 30
0.0
 10
924.0630337752518
 20
443.5224501569737
 30
0.0
 10
912.5489954964068
 20
440.0607426888273
 30
0.0
 10
899.5187058150877
 20
438.5093669163125
 30
0.0
 10
893.8775266274824
 20
437.8377326753161
 30
0.0
 10
888.2934260202237
 20
436.7911816244195
 30
0.0
 10
882.6891402369273
 20
436.1395887609233
 30
0.0
 10
876.3315796715859
 20
435.4004149832435
 30
0.0
 10
869.6472927494369
 20
436.1013196864842
 30
0.0
 10
863.3087574248374
 20
436.8572876691833
 30
0.0
 10
849.6853078955309
 20
438.4820938950142
 30
0.0
 10
836.0010959034525
 20
441.1416536730576
 30
0.0
 10
828.5586217715808
 20
453.9424206027615
 30
0.0
 10
826.0001300719633
 20
458.342927122243
 30
0.0
 10
825.4080434254538
 20
463.916403176574
 30
0.0
 10
824.5848915817896
 20
468.9245413903226
 30
0.0
 10
821.9477812619189
 20
484.9689845492339
 30
0.0
 10
823.3190484399184
 20
500.5300164389755
 30
0.0
 10
832.528430013237
 20
514.3586376584171
 30
0.0
 10
841.6260772130508
 20
528.0194808011092
 30
0.0
 10
861.0427503202044
 20
534.2126653849573
 30
0.0
 10
876.5498631242598
 20
536.8109867824751
 30
0.0
 10
880.7769506164014
 20
537.5192638175867
 30
0.0
 10
885.8279389170848
 20
537.7106088673262
 30
0.0
 10
889.8626906722938
 20
538.6176589098413
 30
0.0
 10
892.7248643042958
 20
539.2611023909048
 30
0.0
 10
894.7659823560925
 20
543.6428785158132
 30
0.0
 10
895.743835406658
 20
546.1744214691471
 30
0.0
 10
897.3758049509006
 20
550.3993926929888
 30
0.0
 10
897.0356040729157
 20
552.9381367718924
 30
0.0
 10
897.5809971732669
 20
557.113856316002
 30
0.0
 10
898.1669698240921
 20
561.6002670329471
 30
0.0
 10
902.1576611343725
 20
565.5042763771616
 30
0.0
 10
905.3966555642036
 20
568.4354365331292
 30
0.0
 10
915.6708366296671
 20
577.7331586585241
 30
0.0
 10
929.0670896183938
 20
583.6474649932916
 30
0.0
 10
938.1629193228601
 20
594.4619652062993
 30
0.0
 10
943.3907491357722
 20
600.6776012133741
 30
0.0
 10
946.9960391685262
 20
608.3969742610498
 30
0.0
 10
951.9653598907789
 20
614.4940687527178
 30
0.0
 10
961.5542163135579
 20
626.2590899587221
 30
0.0
 10
971.0932172548146
 20
618.0915268146755
 30
0.0
 10
982.3344364408512
 20
615.3536113786895
 30
0.0
 10
983.0246337066601
 20
615.1855066814441
 30
0.0
 10
983.7037184448963
 20
614.9561165547802
 30
0.0
 10
984.4298821224983
 20
615.1471178410365
 30
0.0
 10
990.7196526492061
 20
621.0809328751501
 30
0.0
 10
997.1762704590128
 20
626.5613125718819
 30
0.0
 10
1004.204158507238
 20
631.6104384358713
 30
0.0
 10
1008.826314000655
 20
634.9311863887469
 30
0.0
 10
1015.381005555842
 20
639.819180715398
 30
0.0
 10
1020.536233120157
 20
641.91551002301
 30
0.0
 10
1036.323361875759
 20
648.335211244831
 30
0.0
 10
1062.189964217554
 20
643.1712307506659
 30
0.0
 10
1074.603349214305
 20
631.5379662272571
 30
0.0
 10
1082.726437117693
 20
623.9253746294179
 30
0.0
 10
1094.494698295526
 20
603.0122876383911
 30
0.0
 10
1096.609236161552
 20
592.114770703035
 30
0.0
 10
1097.92575740304
 20
585.3299252976139
 30
0.0
 10
1096.890979336691
 20
581.0514510576285
 30
0.0
 10
1096.201332308919
 20
574.4290999536242
 30
0.0
 10
1095.87363351549
 20
571.2823649151687
 30
0.0
 10
1096.095690314867
 20
568.0964590379671
 30
0.0
 10
1095.307908744818
 20
565.0051333118645
 30
0.0
 10
1094.58508003287
 20
562.1686884421579
 30
0.0
 10
1090.251976178879
 20
553.062460183909
 30
0.0
 10
1088.424331311995
 20
550.8864154842795
 30
0.0
  0
HATCH
  5
87
330
7D
100
AcDbEntity
  8
Layer 1
 62
    18
420
        0
440
 33554687
100
AcDbHatch
 10
0.0
 20
0.0
 30
0.0
210
0.0
220
0.0
230
1.0
  2
SOLID
 70
     1
 71
     1
 91
        4
 92
        1
 93
        1
 72
     4
 94
        3
 73
     0
 74
     0
 95
       32
 96
       28
 40
0.0
 40
0.0
 40
0.0
 40
0.0
 40
1.0
 40
1.0
 40
1.0
 40
2.0
 40
2.0
 40
2.0
 40
3.0
 40
3.0
 40
3.0
 40
4.0
 40
4.0
 40
4.0
 40
5.0
 40
5.0
 40
5.0
 40
6.0
 40
6.0
 40
6.0
 40
7.0
 40
7.0
 40
7.0
 40
8.0
 40
8.0
 40
8.0
 40
9.0
 40
9.0
 40
9.0
 40
9.0
 10
1036.107682541453
 20
501.4605434609238
 10
1039.532913867544
 20
505.251847227064
 10
1042.716261695839
 20
508.2691372493646
 10
1042.209270161791
 20
513.7365229896568
 10
1042.003848842734
 20
515.9517820524561
 10
1041.545425400403
 20
515.9732286045801
 10
1039.714879344183
 20
515.2513806197203
 10
1032.099979311204
 20
512.2485606551399
 10
1023.417553721565
 20
506.8192701639018
 10
1015.886246664791
 20
503.0839433259789
 10
1007.324452354232
 20
498.8375223756829
 10
998.2240921739721
 20
495.5165743775341
 10
990.3807749435291
 20
489.9530514061225
 10
987.9736366938068
 20
488.2455890462279
 10
985.7643717047267
 20
486.2198758370595
 10
983.3794592860122
 20
484.4758838643975
 10
974.7432265416628
 20
478.1605489858557
 10
964.0101204804887
 20
471.0979881861113
 10
956.5148717288485
 20
463.5861493253432
 10
955.2877414305466
 20
462.3563028762873
 10
955.0541840050273
 20
461.8795363437039
 10
956.8140540353796
 20
461.2359446985046
 10
962.4764670977674
 20
459.1651771555789
 10
971.9239094601725
 20
458.3761249593335
 10
977.4855957942254
 20
460.856288368508
 10
996.7196498196862
 20
473.6801635398697
 10
1020.457159887628
 20
484.1373673508878
 10
1036.107682541453
 20
501.4605434609238
 97
        0
 97
        1
330
83
 92
        1
 93
        1
 72
     4
 94
        3
 73
     0
 74
     0
 95
       38
 96
       34
 40
0.0
 40
0.0
 40
0.0
 40
0.0
 40
1.0
 40
1.0
 40
1.0
 40
2.0
 40
2.0
 40
2.0
 40
3.0
 40
3.0
 40
3.0
 40
4.0
 40
4.0
 40
4.0
 40
5.0
 40
5.0
 40
5.0
 40
6.0
 40
6.0
 40
6.0
 40
7.0
 40
7.0
 40
7.0
 40
8.0
 40
8.0
 40
8.0
 40
9.0
 40
9.0
 40
9.0
 40
10.0
 40
10.0
 40
10.0
 40
11.0
 40
11.0
 40
11.0
 40
11.0
 10
944.6760370866385
 20
566.9564441621232
 10
952.9679228695805
 20
574.6808707798891
 10
961.2224942444154
 20
582.8393240638943
 10
967.9992828037192
 20
591.9862873188722
 10
972.1008870894493
 20
597.522423404529
 10
975.7172658832642
 20
603.4406654350696
 10
979.7601355018633
 20
609.0217985591325
 10
980.1143471077976
 20
609.5255825617905
 10
980.1580985320724
 20
609.8753153771403
 10
979.6924796101121
 20
610.3129670012304
 10
979.1597738712935
 20
610.813675887317
 10
972.5794534358501
 20
613.2571343572908
 10
971.4524108215318
 20
613.5919976394298
 10
965.0882108564584
 20
615.4829082948163
 10
961.0821986136798
 20
614.5274967028808
 10
957.0444002214516
 20
609.1764094131613
 10
952.4551757306181
 20
603.094545373132
 10
948.8900213405095
 20
595.9230133830088
 10
944.2355712951885
 20
589.8305958064993
 10
935.9295198955832
 20
578.9584341019754
 10
921.2257953205753
 20
572.0966559696462
 10
910.3639092840621
 20
563.7094915784964
 10
903.4081023714234
 20
558.3384633930345
 10
903.0384860536251
 20
553.2942079086806
 10
903.049188344833
 20
544.6756347732762
 10
903.050280770568
 20
543.7959024890196
 10
903.3247459854692
 20
543.3896618134813
 10
904.232666082693
 20
543.4908900293903
 10
915.3226669930255
 20
548.0521665045198
 10
926.5012791717872
 20
552.2322266836353
 10
936.0995288493104
 20
559.5750169781677
 10
939.0710864314387
 20
561.8482985562441
 10
941.9411476694776
 20
564.4087182088751
 10
944.6760370866385
 20
566.9564441621232
 97
        0
 97
        1
330
84
 92
        1
 93
        1
 72
     4
 94
        3
 73
     0
 74
     0
 95
       68
 96
       64
 40
0.0
 40
0.0
 40
0.0
 40
0.0
 40
1.0
 40
1.0
 40
1.0
 40
2.0
 40
2.0
 40
2.0
 40
3.0
 40
3.0
 40
3.0
 40
4.0
 40
4.0
 40
4.0
 40
5.0
 40
5.0
 40
5.0
 40
6.0
 40
6.0
 40
6.0
 40
7.0
 40
7.0
 40
7.0
 40
8.0
 40
8.0
 40
8.0
 40
9.0
 40
9.0
 40
9.0
 40
10.0
 40
10.0
 40
10.0
 40
11.0
 40
11.0
 40
11.0
 40
12.0
 40
12.0
 40
12.0
 40
13.0
 40
13.0
 40
13.0
 40
14.0
 40
14.0
 40
14.0
 40
15.0
 40
15.0
 40
15.0
 40
16.0
 40
16.0
 40
16.0
 40
17.0
 40
17.0
 40
17.0
 40
18.0
 40
18.0
 40
18.0
 40
19.0
 40
19.0
 40
19.0
 40
20.0
 40
20.0
 40
20.0
 40
21.0
 40
21.0
 40
21.0
 40
21.0
 10
1067.311366035388
 20
631.3232928954493
 10
1056.896112689957
 20
638.6498635672424
 10
1033.415848120754
 20
639.9780695538574
 10
1022.27589429189
 20
633.9380580597971
 10
1011.411785440778
 20
628.0476079429027
 10
995.9300678502149
 20
616.3709801921996
 10
988.3448010866322
 20
606.6767007962826
 10
980.9165360444712
 20
597.1830759851719
 10
975.1394516018281
 20
586.5251119920322
 10
966.8504471463384
 20
577.5453044097402
 10
948.7327727678549
 20
557.9177085227966
 10
925.4138621696156
 20
538.0096510196945
 10
898.2497809724055
 20
533.3520268296361
 10
890.4217806376827
 20
532.009817481412
 10
882.5085280546
 20
532.713902430205
 10
874.9707221439804
 20
530.4718832608214
 10
866.8530138829574
 20
528.0573799227822
 10
857.0447425073135
 20
524.4244215008257
 10
850.3265607579033
 20
519.3591221215974
 10
847.060432545849
 20
516.8965633784591
 10
841.8637572867837
 20
513.1057517665777
 10
839.684634486599
 20
509.8436835185184
 10
833.5500223788375
 20
500.6603904204076
 10
830.453804878649
 20
485.5315400845629
 10
831.481863002763
 20
474.6199353753745
 10
831.8533715790035
 20
470.6768171460425
 10
832.7784185372829
 20
466.7488735917977
 10
833.3712496527159
 20
462.8335633152728
 10
834.289550822652
 20
456.7687095753154
 10
834.2992959273132
 20
452.2865681283201
 10
840.1531497013102
 20
448.4984561382698
 10
846.979964217212
 20
444.080727421433
 10
862.2957167217574
 20
441.6041440319641
 10
870.4699854419368
 20
441.1373304072039
 10
878.3228791669971
 20
440.6888697668509
 10
885.84427360261
 20
442.3517522739184
 10
893.5508889999718
 20
443.5157972926626
 10
903.1470403715839
 20
444.9652471000426
 10
911.1021680625844
 20
446.0080996440155
 10
920.3399926464589
 20
449.365073796689
 10
940.6512281956274
 20
456.7460639993405
 10
955.2313027776218
 20
471.4866667918413
 10
972.1405436654421
 20
484.194877304566
 10
979.844992764869
 20
489.9851881582344
 10
988.0708246410122
 20
496.4765224013717
 10
996.7539386106109
 20
500.6169345728358
 10
1010.848991407489
 20
507.3379482969394
 10
1024.942952334193
 20
513.8342984552637
 10
1038.891169895201
 20
520.8740934408706
 10
1046.934635662013
 20
524.9337053392664
 10
1057.040666453913
 20
530.1631350849492
 10
1063.912883907687
 20
535.928210467704
 10
1067.773780889036
 20
539.1671013049381
 10
1071.778024091962
 20
544.0023406206501
 10
1075.433668672394
 20
547.6841701063067
 10
1085.349765303073
 20
557.6712944435148
 10
1089.541254714695
 20
565.4475330663753
 10
1090.209882322591
 20
579.9390240678631
 10
1090.88766292675
 20
594.6288924043419
 10
1087.391383076456
 20
602.0477879816517
 10
1080.073917074809
 20
614.2133318264495
 10
1077.114647616437
 20
619.1332210799546
 10
1071.841079164205
 20
628.1368832844182
 10
1067.311366035388
 20
631.3232928954493
 97
        0
 97
        1
330
85
 92
        1
 93
        1
 72
     4
 94
        3
 73
     0
 74
     0
 95
      101
 96
       97
 40
0.0
 40
0.0
 40
0.0
 40
0.0
 40
1.0
 40
1.0
 40
1.0
 40
2.0
 40
2.0
 40
2.0
 40
3.0
 40
3.0
 40
3.0
 40
4.0
 40
4.0
 40
4.0
 40
5.0
 40
5.0
 40
5.0
 40
6.0
 40
6.0
 40
6.0
 40
7.0
 40
7.0
 40
7.0
 40
8.0
 40
8.0
 40
8.0
 40
9.0
 40
9.0
 40
9.0
 40
10.0
 40
10.0
 40
10.0
 40
11.0
 40
11.0
 40
11.0
 40
12.0
 40
12.0
 40
12.0
 40
13.0
 40
13.0
 40
13.0
 40
14.0
 40
14.0
 40
14.0
 40
15.0
 40
15.0
 40
15.0
 40
16.0
 40
16.0
 40
16.0
 40
17.0
 40
17.0
 40
17.0
 40
18.0
 40
18.0
 40
18.0
 40
19.0
 40
19.0
 40
19.0
 40
20.0
 40
20.0
 40
20.0
 40
21.0
 40
21.0
 40
21.0
 40
22.0
 40
22.0
 40
22.0
 40
23.0
 40
23.0
 40
23.0
 40
24.0
 40
24.0
 40
24.0
 40
25.0
 40
25.0
 40
25.0
 40
26.0
 40
26.0
 40
26.0
 40
27.0
 40
27.0
 40
27.0
 40
28.0
 40
28.0
 40
28.0
 40
29.0
 40
29.0
 40
29.0
 40
30.0
 40
30.0
 40
30.0
 40
31.0
 40
31.0
 40
31.0
 40
32.0
 40
32.0
 40
32.0
 40
32.0
 10
1088.424331311995
 20
550.8864154842795
 10
1086.446273867759
 20
548.5312853957821
 10
1082.712301598429
 20
545.9593775819948
 10
1080.356646482476
 20
543.7222894664046
 10
1076.392734964551
 20
539.9578931895648
 10
1072.683064106477
 20
535.5112495759621
 10
1068.472742221689
 20
532.0894152374513
 10
1062.973345600936
 20
527.6199174857501
 10
1056.253463911733
 20
524.3094568418491
 10
1050.43062573007
 20
520.25793847577
 10
1050.092649516877
 20
519.8123555396723
 10
1048.784849962416
 20
513.5729706915426
 10
1048.636362462754
 20
512.5545872929978
 10
1048.211113400557
 20
509.6380684872565
 10
1048.854402310629
 20
507.7929062899875
 10
1047.522281300689
 20
504.8074314020777
 10
1045.261004513719
 20
499.7395847036695
 10
1040.794684041133
 20
494.3226327594129
 10
1036.729356009891
 20
490.5869409687457
 10
1023.541083618225
 20
478.4680367799592
 10
1006.236655050756
 20
468.1343292326054
 10
990.6746120918796
 20
459.1877341462405
 10
980.4268064543903
 20
453.2962861014912
 10
976.6865408680823
 20
451.4465644144147
 10
964.4314804390106
 20
453.9752701731067
 10
959.4476379403996
 20
455.0036348474077
 10
955.4788195155415
 20
456.9595035438378
 10
950.1908834847508
 20
456.472217638031
 10
945.04410299369
 20
455.9979392846289
 10
940.1369633822477
 20
452.0400925094272
 10
935.645132318764
 20
449.6598524908477
 10
924.0630337752518
 20
443.5224501569737
 10
912.5489954964068
 20
440.0607426888273
 10
899.5187058150877
 20
438.5093669163125
 10
893.8775266274824
 20
437.8377326753161
 10
888.2934260202237
 20
436.7911816244195
 10
882.6891402369273
 20
436.1395887609233
 10
876.3315796715859
 20
435.4004149832435
 10
869.6472927494369
 20
436.1013196864842
 10
863.3087574248374
 20
436.8572876691833
 10
849.6853078955309
 20
438.4820938950142
 10
836.0010959034525
 20
441.1416536730576
 10
828.5586217715808
 20
453.9424206027615
 10
826.0001300719633
 20
458.342927122243
 10
825.4080434254538
 20
463.916403176574
 10
824.5848915817896
 20
468.9245413903226
 10
821.9477812619189
 20
484.9689845492339
 10
823.3190484399184
 20
500.5300164389755
 10
832.528430013237
 20
514.3586376584171
 10
841.6260772130508
 20
528.0194808011092
 10
861.0427503202044
 20
534.2126653849573
 10
876.5498631242598
 20
536.8109867824751
 10
880.7769506164014
 20
537.5192638175867
 10
885.8279389170848
 20
537.7106088673262
 10
889.8626906722938
 20
538.6176589098413
 10
892.7248643042958
 20
539.2611023909048
 10
894.7659823560925
 20
543.6428785158132
 10
895.743835406658
 20
546.1744214691471
 10
897.3758049509006
 20
550.3993926929888
 10
897.0356040729157
 20
552.9381367718924
 10
897.5809971732669
 20
557.113856316002
 10
898.1669698240921
 20
561.6002670329471
 10
902.1576611343725
 20
565.5042763771616
 10
905.3966555642036
 20
568.4354365331292
 10
915.6708366296671
 20
577.7331586585241
 10
929.0670896183938
 20
583.6474649932916
 10
938.1629193228601
 20
594.4619652062993
 10
943.3907491357722
 20
600.6776012133741
 10
946.9960391685262
 20
608.3969742610498
 10
951.9653598907789
 20
614.4940687527178
 10
961.5542163135579
 20
626.2590899587221
 10
971.0932172548146
 20
618.0915268146755
 10
982.3344364408512
 20
615.3536113786895
 10
983.0246337066601
 20
615.1855066814441
 10
983.7037184448963
 20
614.9561165547802
 10
984.4298821224983
 20
615.1471178410365
 10
990.7196526492061
 20
621.0809328751501
 10
997.1762704590128
 20
626.5613125718819
 10
1004.204158507238
 20
631.6104384358713
 10
1008.826314000655
 20
634.9311863887469
 10
1015.381005555842
 20
639.819180715398
 10
1020.536233120157
 20
641.91551002301
 10
1036.323361875759
 20
648.335211244831
 10
1062.189964217554
 20
643.1712307506659
 10
1074.603349214305
 20
631.5379662272571
 10
1082.726437117693
 20
623.9253746294179
 10
1094.494698295526
 20
603.0122876383911
 10
1096.609236161552
 20
592.114770703035
 10
1097.92575740304
 20
585.3299252976139
 10
1096.890979336691
 20
581.0514510576285
 10
1096.201332308919
 20
574.4290999536242
 10
1095.87363351549
 20
571.2823649151687
 10
1096.095690314867
 20
568.0964590379671
 10
1095.307908744818
 20
565.0051333118645
 10
1094.58508003287
 20
562.1686884421579
 10
1090.251976178879
 20
553.062460183909
 10
1088.424331311995
 20
550.8864154842795
 97
        0
 97
        1
330
86
 75
     2
 76
     1
 98
        1
 10
0.0
 20
0.0
450
        0
451
        0
460
0.0
461
0.0
452
        0
462
0.0
453
        0
470

  0
SPLINE
  5
88
330
7D
100
AcDbEntity
  8
Layer 1
100
AcDbSpline
210
0.0
220
0.0
230
1.0
 70
     9
 71
     3
 72
    50
 73
    46
 74
     0
 42
0.0000000001
 43
0.0000000001
 40
0.0
 40
0.0
 40
0.0
 40
0.0
 40
1.0
 40
1.0
 40
1.0
 40
2.0
 40
2.0
 40
2.0
 40
3.0
 40
3.0
 40
3.0
 40
4.0
 40
4.0
 40
4.0
 40
5.0
 40
5.0
 40
5.0
 40
6.0
 40
6.0
 40
6.0
 40
7.0
 40
7.0
 40
7.0
 40
8.0
 40
8.0
 40
8.0
 40
9.0
 40
9.0
 40
9.0
 40
10.0
 40
10.0
 40
10.0
 40
11.0
 40
11.0
 40
11.0
 40
12.0
 40
12.0
 40
12.0
 40
13.0
 40
13.0
 40
13.0
 40
14.0
 40
14.0
 40
14.0
 40
15.0
 40
15.0
 40
15.0
 40
15.0
 10
1063.699943664695
 20
619.5577246396033
 30
0.0
 10
1049.164063838483
 20
632.3633266782881
 30
0.0
 10
1034.235783420699
 20
632.2768099383502
 30
0.0
 10
1017.15393819698
 20
624.1827157172501
 30
0.0
 10
991.4510348579606
 20
612.0036028253344
 30
0.0
 10
987.1371695407688
 20
590.3804920510483
 30
0.0
 10
969.6357283994112
 20
571.2748776490971
 30
0.0
 10
959.1990907819235
 20
559.8816230958236
 30
0.0
 10
943.8610228442531
 20
545.6499393314698
 30
0.0
 10
930.1710923679747
 20
538.6292540031136
 30
0.0
 10
922.3319018741131
 20
534.6090371158298
 30
0.0
 10
904.0569184963597
 20
525.3794119808971
 30
0.0
 10
895.9162043163205
 20
524.6480139937321
 30
0.0
 10
891.3285265138684
 20
524.2358366053285
 30
0.0
 10
888.333549119554
 20
525.459171609471
 30
0.0
 10
884.1560614654099
 20
525.8399524337874
 30
0.0
 10
871.7002273241496
 20
526.9753101378774
 30
0.0
 10
856.6963890825837
 20
522.4661650540947
 30
0.0
 10
848.156607883352
 20
513.1307998153988
 30
0.0
 10
839.0155036846927
 20
503.1380910575735
 30
0.0
 10
833.6943498285499
 20
488.9799728418839
 30
0.0
 10
836.0595825051159
 20
475.3574508377568
 30
0.0
 10
838.0161085480768
 20
464.08886853888
 30
0.0
 10
853.4720375100169
 20
452.2214644435043
 30
0.0
 10
864.1192587786573
 20
449.6642423725716
 30
0.0
 10
882.6279154018266
 20
445.218881087605
 30
0.0
 10
914.9742183183871
 20
455.0545396917587
 30
0.0
 10
931.4813711449859
 20
464.1396037639679
 30
0.0
 10
949.1757899862786
 20
473.8781050417055
 30
0.0
 10
961.637225354134
 20
488.3348205866441
 30
0.0
 10
977.2900708854777
 20
500.6407956900729
 30
0.0
 10
982.8203835709738
 20
504.9886243379441
 30
0.0
 10
987.4686635618818
 20
507.4197890261021
 30
0.0
 10
993.3132496697471
 20
511.0147440317123
 30
0.0
 10
999.2160640586698
 20
514.6455147557662
 30
0.0
 10
1005.065130019553
 20
518.9271152592773
 30
0.0
 10
1011.078940276398
 20
522.2859320769457
 30
0.0
 10
1028.304204938937
 20
531.9065396728456
 30
0.0
 10
1059.370114008952
 20
539.9431976167943
 30
0.0
 10
1069.601145648175
 20
557.1140816900443
 30
0.0
 10
1073.538198936203
 20
563.7216935109027
 30
0.0
 10
1078.373067355167
 20
573.0813683831338
 30
0.0
 10
1079.372041438142
 20
580.6968103760373
 30
0.0
 10
1081.106830259445
 20
593.9215615119501
 30
0.0
 10
1073.567043017057
 20
610.8651550054855
 30
0.0
 10
1063.699943664695
 20
619.5577246396033
 30
0.0
  0
SPLINE
  5
89
330
7D
100
AcDbEntity
  8
Layer 1
100
AcDbSpline
210
0.0
220
0.0
230
1.0
 70
     9
 71
     3
 72
    68
 73
    64
 74
     0
 42
0.0000000001
 43
0.0000000001
 40
0.0
 40
0.0
 40
0.0
 40
0.0
 40
1.0
 40
1.0
 40
1.0
 40
2.0
 40
2.0
 40
2.0
 40
3.0
 40
3.0
 40
3.0
 40
4.0
 40
4.0
 40
4.0
 40
5.0
 40
5.0
 40
5.0
 40
6.0
 40
6.0
 40
6.0
 40
7.0
 40
7.0
 40
7.0
 40
8.0
 40
8.0
 40
8.0
 40
9.0
 40
9.0
 40
9.0
 40
10.0
 40
10.0
 40
10.0
 40
11.0
 40
11.0
 40
11.0
 40
12.0
 40
12.0
 40
12.0
 40
13.0
 40
13.0
 40
13.0
 40
14.0
 40
14.0
 40
14.0
 40
15.0
 40
15.0
 40
15.0
 40
16.0
 40
16.0
 40
16.0
 40
17.0
 40
17.0
 40
17.0
 40
18.0
 40
18.0
 40
18.0
 40
19.0
 40
19.0
 40
19.0
 40
20.0
 40
20.0
 40
20.0
 40
21.0
 40
21.0
 40
21.0
 40
21.0
 10
1067.311366035388
 20
631.3232928954493
 30
0.0
 10
1071.841079164205
 20
628.1368832844182
 30
0.0
 10
1077.114647616437
 20
619.1332210799546
 30
0.0
 10
1080.073917074809
 20
614.2133318264495
 30
0.0
 10
1087.391383076456
 20
602.0477879816517
 30
0.0
 10
1090.88766292675
 20
594.6288924043419
 30
0.0
 10
1090.209882322591
 20
579.9390240678631
 30
0.0
 10
1089.541254714695
 20
565.4475330663753
 30
0.0
 10
1085.349765303073
 20
557.6712944435148
 30
0.0
 10
1075.433668672394
 20
547.6841701063067
 30
0.0
 10
1071.778024091962
 20
544.0023406206501
 30
0.0
 10
1067.773780889036
 20
539.1671013049381
 30
0.0
 10
1063.912883907687
 20
535.928210467704
 30
0.0
 10
1057.040666453913
 20
530.1631350849492
 30
0.0
 10
1046.934635662013
 20
524.9337053392664
 30
0.0
 10
1038.891169895201
 20
520.8740934408706
 30
0.0
 10
1024.942952334193
 20
513.8342984552637
 30
0.0
 10
1010.848991407489
 20
507.3379482969394
 30
0.0
 10
996.7539386106109
 20
500.6169345728358
 30
0.0
 10
988.0708246410122
 20
496.4765224013717
 30
0.0
 10
979.844992764869
 20
489.9851881582344
 30
0.0
 10
972.1405436654421
 20
484.194877304566
 30
0.0
 10
955.2313027776218
 20
471.4866667918413
 30
0.0
 10
940.6512281956274
 20
456.7460639993405
 30
0.0
 10
920.3399926464589
 20
449.365073796689
 30
0.0
 10
911.1021680625844
 20
446.0080996440155
 30
0.0
 10
903.1470403715839
 20
444.9652471000426
 30
0.0
 10
893.5508889999718
 20
443.5157972926626
 30
0.0
 10
885.84427360261
 20
442.3517522739184
 30
0.0
 10
878.3228791669971
 20
440.6888697668509
 30
0.0
 10
870.4699854419368
 20
441.1373304072039
 30
0.0
 10
862.2957167217574
 20
441.6041440319641
 30
0.0
 10
846.979964217212
 20
444.080727421433
 30
0.0
 10
840.1531497013102
 20
448.4984561382698
 30
0.0
 10
834.2992959273132
 20
452.2865681283201
 30
0.0
 10
834.289550822652
 20
456.7687095753154
 30
0.0
 10
833.3712496527159
 20
462.8335633152728
 30
0.0
 10
832.7784185372829
 20
466.7488735917977
 30
0.0
 10
831.8533715790035
 20
470.6768171460425
 30
0.0
 10
831.481863002763
 20
474.6199353753745
 30
0.0
 10
830.453804878649
 20
485.5315400845629
 30
0.0
 10
833.5500223788375
 20
500.6603904204076
 30
0.0
 10
839.684634486599
 20
509.8436835185184
 30
0.0
 10
841.8637572867837
 20
513.1057517665777
 30
0.0
 10
847.060432545849
 20
516.8965633784591
 30
0.0
 10
850.3265607579033
 20
519.3591221215974
 30
0.0
 10
857.0447425073135
 20
524.4244215008257
 30
0.0
 10
866.8530138829574
 20
528.0573799227822
 30
0.0
 10
874.9707221439804
 20
530.4718832608214
 30
0.0
 10
882.5085280546
 20
532.713902430205
 30
0.0
 10
890.4217806376827
 20
532.009817481412
 30
0.0
 10
898.2497809724055
 20
533.3520268296361
 30
0.0
 10
925.4138621696156
 20
538.0096510196945
 30
0.0
 10
948.7327727678549
 20
557.9177085227966
 30
0.0
 10
966.8504471463384
 20
577.5453044097402
 30
0.0
 10
975.1394516018281
 20
586.5251119920322
 30
0.0
 10
980.9165360444712
 20
597.1830759851719
 30
0.0
 10
988.3448010866322
 20
606.6767007962826
 30
0.0
 10
995.9300678502149
 20
616.3709801921996
 30
0.0
 10
1011.411785440778
 20
628.0476079429027
 30
0.0
 10
1022.27589429189
 20
633.9380580597971
 30
0.0
 10
1033.415848120754
 20
639.9780695538574
 30
0.0
 10
1056.896112689957
 20
638.6498635672424
 30
0.0
 10
1067.311366035388
 20
631.3232928954493
 30
0.0
  0
SPLINE
  5
8A
330
7D
100
AcDbEntity
  8
Layer 1
100
AcDbSpline
210
0.0
220
0.0
230
1.0
 70
     9
 71
     3
 72
    38
 73
    34
 74
     0
 42
0.0000000001
 43
0.0000000001
 40
0.0
 40
0.0
 40
0.0
 40
0.0
 40
1.0
 40
1.0
 40
1.0
 40
2.0
 40
2.0
 40
2.0
 40
3.0
 40
3.0
 40
3.0
 40
4.0
 40
4.0
 40
4.0
 40
5.0
 40
5.0
 40
5.0
 40
6.0
 40
6.0
 40
6.0
 40
7.0
 40
7.0
 40
7.0
 40
8.0
 40
8.0
 40
8.0
 40
9.0
 40
9.0
 40
9.0
 40
10.0
 40
10.0
 40
10.0
 40
11.0
 40
11.0
 40
11.0
 40
11.0
 10
944.6760370866385
 20
566.9564441621232
 30
0.0
 10
941.9411476694776
 20
564.4087182088751
 30
0.0
 10
939.0710864314387
 20
561.8482985562441
 30
0.0
 10
936.0995288493104
 20
559.5750169781677
 30
0.0
 10
926.5012791717872
 20
552.2322266836353
 30
0.0
 10
915.3226669930255
 20
548.0521665045198
 30
0.0
 10
904.232666082693
 20
543.4908900293903
 30
0.0
 10
903.3247459854692
 20
543.3896618134813
 30
0.0
 10
903.050280770568
 20
543.7959024890196
 30
0.0
 10
903.049188344833
 20
544.6756347732762
 30
0.0
 10
903.0384860536251
 20
553.2942079086806
 30
0.0
 10
903.4081023714234
 20
558.3384633930345
 30
0.0
 10
910.3639092840621
 20
563.7094915784964
 30
0.0
 10
921.2257953205753
 20
572.0966559696462
 30
0.0
 10
935.9295198955832
 20
578.9584341019754
 30
0.0
 10
944.2355712951885
 20
589.8305958064993
 30
0.0
 10
948.8900213405095
 20
595.9230133830088
 30
0.0
 10
952.4551757306181
 20
603.094545373132
 30
0.0
 10
957.0444002214516
 20
609.1764094131613
 30
0.0
 10
961.0821986136798
 20
614.5274967028808
 30
0.0
 10
965.0882108564584
 20
615.4829082948163
 30
0.0
 10
971.4524108215318
 20
613.5919976394298
 30
0.0
 10
972.5794534358501
 20
613.2571343572908
 30
0.0
 10
979.1597738712935
 20
610.813675887317
 30
0.0
 10
979.6924796101121
 20
610.3129670012304
 30
0.0
 10
980.1580985320724
 20
609.8753153771403
 30
0.0
 10
980.1143471077976
 20
609.5255825617905
 30
0.0
 10
979.7601355018633
 20
609.0217985591325
 30
0.0
 10
975.7172658832642
 20
603.4406654350696
 30
0.0
 10
972.1008870894493
 20
597.522423404529
 30
0.0
 10
967.9992828037192
 20
591.9862873188722
 30
0.0
 10
961.2224942444154
 20
582.8393240638943
 30
0.0
 10
952.9679228695805
 20
574.6808707798891
 30
0.0
 10
944.6760370866385
 20
566.9564441621232
 30
0.0
  0
SPLINE
  5
8B
330
7D
100
AcDbEntity
  8
Layer 1
100
AcDbSpline
210
0.0
220
0.0
230
1.0
 70
     9
 71
     3
 72
    32
 73
    28
 74
     0
 42
0.0000000001
 43
0.0000000001
 40
0.0
 40
0.0
 40
0.0
 40
0.0
 40
1.0
 40
1.0
 40
1.0
 40
2.0
 40
2.0
 40
2.0
 40
3.0
 40
3.0
 40
3.0
 40
4.0
 40
4.0
 40
4.0
 40
5.0
 40
5.0
 40
5.0
 40
6.0
 40
6.0
 40
6.0
 40
7.0
 40
7.0
 40
7.0
 40
8.0
 40
8.0
 40
8.0
 40
9.0
 40
9.0
 40
9.0
 40
9.0
 10
1036.107682541453
 20
501.4605434609238
 30
0.0
 10
1020.457159887628
 20
484.1373673508878
 30
0.0
 10
996.7196498196862
 20
473.6801635398697
 30
0.0
 10
977.4855957942254
 20
460.856288368508
 30
0.0
 10
971.9239094601725
 20
458.3761249593335
 30
0.0
 10
962.4764670977674
 20
459.1651771555789
 30
0.0
 10
956.8140540353796
 20
461.2359446985046
 30
0.0
 10
955.0541840050273
 20
461.8795363437039
 30
0.0
 10
955.2877414305466
 20
462.3563028762873
 30
0.0
 10
956.5148717288485
 20
463.5861493253432
 30
0.0
 10
964.0101204804887
 20
471.0979881861113
 30
0.0
 10
974.7432265416628
 20
478.1605489858557
 30
0.0
 10
983.3794592860122
 20
484.4758838643975
 30
0.0
 10
985.7643717047267
 20
486.2198758370595
 30
0.0
 10
987.9736366938068
 20
488.2455890462279
 30
0.0
 10
990.3807749435291
 20
489.9530514061225
 30
0.0
 10
998.2240921739721
 20
495.5165743775341
 30
0.0
 10
1007.324452354232
 20
498.8375223756829
 30
0.0
 10
1015.886246664791
 20
503.0839433259789
 30
0.0
 10
1023.417553721565
 20
506.8192701639018
 30
0.0
 10
1032.099979311204
 20
512.2485606551399
 30
0.0
 10
1039.714879344183
 20
515.2513806197203
 30
0.0
 10
1041.545425400403
 20
515.9732286045801
 30
0.0
 10
1042.003848842734
 20
515.9517820524561
 30
0.0
 10
1042.209270161791
 20
513.7365229896568
 30
0.0
 10
1042.716261695839
 20
508.2691372493646
 30
0.0
 10
1039.532913867544
 20
505.251847227064
 30
0.0
 10
1036.107682541453
 20
501.4605434609238
 30
0.0
  0
SPLINE
  5
8C
330
7D
100
AcDbEntity
  8
Layer 1
100
AcDbSpline
210
0.0
220
0.0
230
1.0
 70
     9
 71
     3
 72
    53
 73
    49
 74
     0
 42
0.0000000001
 43
0.0000000001
 40
0.0
 40
0.0
 40
0.0
 40
0.0
 40
1.0
 40
1.0
 40
1.0
 40
2.0
 40
2.0
 40
2.0
 40
3.0
 40
3.0
 40
3.0
 40
4.0
 40
4.0
 40
4.0
 40
5.0
 40
5.0
 40
5.0
 40
6.0
 40
6.0
 40
6.0
 40
7.0
 40
7.0
 40
7.0
 40
8.0
 40
8.0
 40
8.0
 40
9.0
 40
9.0
 40
9.0
 40
10.0
 40
10.0
 40
10.0
 40
11.0
 40
11.0
 40
11.0
 40
12.0
 40
12.0
 40
12.0
 40
13.0
 40
13.0
 40
13.0
 40
14.0
 40
14.0
 40
14.0
 40
15.0
 40
15.0
 40
15.0
 40
16.0
 40
16.0
 40
16.0
 40
16.0
 10
1063.709581984618
 20
561.4414533547097
 30
0.0
 10
1066.911815311201
 20
565.6841076036134
 30
0.0
 10
1071.714067785162
 20
576.9096411124547
 30
0.0
 10
1072.411571456272
 20
582.1358415270288
 30
0.0
 10
1074.565493052836
 20
598.274575138299
 30
0.0
 10
1063.720437825239
 20
619.9527120817692
 30
0.0
 10
1046.374838870844
 20
622.5119554713792
 30
0.0
 10
1029.153074923319
 20
625.0529277177683
 30
0.0
 10
1011.932175226184
 20
615.3063209473157
 30
0.0
 10
1000.796600316691
 20
602.8659568816256
 30
0.0
 10
994.3402831330931
 20
595.6531333911161
 30
0.0
 10
989.9397994208229
 20
586.9007241764393
 30
0.0
 10
984.2194503979845
 20
579.1296801253811
 30
0.0
 10
974.3212820733825
 20
565.6831051405015
 30
0.0
 10
962.5476803999172
 20
554.1145218587326
 30
0.0
 10
949.2951210084974
 20
543.9837425355245
 30
0.0
 10
934.2622839798959
 20
532.4920487395993
 30
0.0
 10
917.8392864569632
 20
526.8417853159226
 30
0.0
 10
900.1299230183532
 20
520.9153288983197
 30
0.0
 10
898.1087961390949
 20
520.2389567403988
 30
0.0
 10
896.1406543736011
 20
518.9129400749825
 30
0.0
 10
893.9746415444961
 20
518.671036288295
 30
0.0
 10
891.3739104168243
 20
518.3805824648043
 30
0.0
 10
888.6773616044338
 20
519.2039955580858
 30
0.0
 10
886.0775120776734
 20
519.3631672169085
 30
0.0
 10
866.9620963965835
 20
520.5334781875007
 30
0.0
 10
853.6245120660987
 20
511.1446454359175
 30
0.0
 10
846.1893102796203
 20
493.983399939174
 30
0.0
 10
844.2048221193291
 20
489.402987802132
 30
0.0
 10
844.2709349271289
 20
486.8270039687886
 30
0.0
 10
843.6816290905026
 20
482.0945804838393
 30
0.0
 10
842.9639231472384
 20
476.3310392967524
 30
0.0
 10
841.6833368602956
 20
474.0519884343302
 30
0.0
 10
845.0591941995689
 20
468.5189554176504
 30
0.0
 10
856.9626293716856
 20
449.0092151650078
 30
0.0
 10
881.028205900564
 20
453.9882076077264
 30
0.0
 10
899.4517735274738
 20
458.9706328328593
 30
0.0
 10
912.9278843772654
 20
462.6150797713908
 30
0.0
 10
925.7827166347743
 20
468.2064954414254
 30
0.0
 10
937.2980786241013
 20
476.0795897254629
 30
0.0
 10
953.3331550044886
 20
487.0428289455158
 30
0.0
 10
966.8392687332744
 20
502.0396816076535
 30
0.0
 10
983.0350123703338
 20
512.6525277770542
 30
0.0
 10
991.783494957046
 20
518.3852870741339
 30
0.0
 10
1001.431902782049
 20
525.1512395360968
 30
0.0
 10
1010.599341431938
 20
529.9634047866202
 30
0.0
 10
1027.423260589023
 20
538.7946042347157
 30
0.0
 10
1051.929915792343
 20
545.8345172809313
 30
0.0
 10
1063.709581984618
 20
561.4414533547097
 30
0.0
  0
SPLINE
  5
8D
330
7D
100
AcDbEntity
  8
Layer 1
100
AcDbSpline
210
0.0
220
0.0
230
1.0
 70
     9
 71
     3
 72
    50
 73
    46
 74
     0
 42
0.0000000001
 43
0.0000000001
 40
0.0
 40
0.0
 40
0.0
 40
0.0
 40
1.0
 40
1.0
 40
1.0
 40
2.0
 40
2.0
 40
2.0
 40
3.0
 40
3.0
 40
3.0
 40
4.0
 40
4.0
 40
4.0
 40
5.0
 40
5.0
 40
5.0
 40
6.0
 40
6.0
 40
6.0
 40
7.0
 40
7.0
 40
7.0
 40
8.0
 40
8.0
 40
8.0
 40
9.0
 40
9.0
 40
9.0
 40
10.0
 40
10.0
 40
10.0
 40
11.0
 40
11.0
 40
11.0
 40
12.0
 40
12.0
 40
12.0
 40
13.0
 40
13.0
 40
13.0
 40
14.0
 40
14.0
 40
14.0
 40
15.0
 40
15.0
 40
15.0
 40
15.0
 10
1063.699943664695
 20
619.5577246396033
 30
0.0
 10
1073.567043017057
 20
610.8651550054855
 30
0.0
 10
1081.106830259445
 20
593.9215615119501
 30
0.0
 10
1079.372041438142
 20
580.6968103760373
 30
0.0
 10
1078.373067355167
 20
573.0813683831338
 30
0.0
 10
1073.538198936203
 20
563.7216935109027
 30
0.0
 10
1069.601145648175
 20
557.1140816900443
 30
0.0
 10
1059.370114008952
 20
539.9431976167943
 30
0.0
 10
1028.304204938937
 20
531.9065396728456
 30
0.0
 10
1011.078940276398
 20
522.2859320769457
 30
0.0
 10
1005.065130019553
 20
518.9271152592773
 30
0.0
 10
999.2160640586698
 20
514.6455147557662
 30
0.0
 10
993.3132496697471
 20
511.0147440317123
 30
0.0
 10
987.4686635618818
 20
507.4197890261021
 30
0.0
 10
982.8203835709738
 20
504.9886243379441
 30
0.0
 10
977.2900708854777
 20
500.6407956900729
 30
0.0
 10
961.637225354134
 20
488.3348205866441
 30
0.0
 10
949.1757899862786
 20
473.8781050417055
 30
0.0
 10
931.4813711449859
 20
464.1396037639679
 30
0.0
 10
914.9742183183871
 20
455.0545396917587
 30
0.0
 10
882.6279154018266
 20
445.218881087605
 30
0.0
 10
864.1192587786573
 20
449.6642423725716
 30
0.0
 10
853.4720375100169
 20
452.2214644435043
 30
0.0
 10
838.0161085480768
 20
464.08886853888
 30
0.0
 10
836.0595825051159
 20
475.3574508377568
 30
0.0
 10
833.6943498285499
 20
488.9799728418839
 30
0.0
 10
839.0155036846927
 20
503.1380910575735
 30
0.0
 10
848.156607883352
 20
513.1307998153988
 30
0.0
 10
856.6963890825837
 20
522.4661650540947
 30
0.0
 10
871.7002273241496
 20
526.9753101378774
 30
0.0
 10
884.1560614654099
 20
525.8399524337874
 30
0.0
 10
888.333549119554
 20
525.459171609471
 30
0.0
 10
891.3285265138684
 20
524.2358366053285
 30
0.0
 10
895.9162043163205
 20
524.6480139937321
 30
0.0
 10
904.0569184963597
 20
525.3794119808971
 30
0.0
 10
922.3319018741131
 20
534.6090371158298
 30
0.0
 10
930.1710923679747
 20
538.6292540031136
 30
0.0
 10
943.8610228442531
 20
545.6499393314698
 30
0.0
 10
959.1990907819235
 20
559.8816230958236
 30
0.0
 10
969.6357283994112
 20
571.2748776490971
 30
0.0
 10
987.1371695407688
 20
590.3804920510483
 30
0.0
 10
991.4510348579606
 20
612.0036028253344
 30
0.0
 10
1017.15393819698
 20
624.1827157172501
 30
0.0
 10
1034.235783420699
 20
632.2768099383502
 30
0.0
 10
1049.164063838483
 20
632.3633266782881
 30
0.0
 10
1063.699943664695
 20
619.5577246396033
 30
0.0
  0
HATCH
  5
8E
330
7D
100
AcDbEntity
  8
Layer 1
 62
    18
420
        0
440
 33554687
100
AcDbHatch
 10
0.0
 20
0.0
 30
0.0
210
0.0
220
0.0
230
1.0
  2
SOLID
 70
     1
 71
     1
 91
        2
 92
        1
 93
        1
 72
     4
 94
        3
 73
     0
 74
     0
 95
       53
 96
       49
 40
0.0
 40
0.0
 40
0.0
 40
0.0
 40
1.0
 40
1.0
 40
1.0
 40
2.0
 40
2.0
 40
2.0
 40
3.0
 40
3.0
 40
3.0
 40
4.0
 40
4.0
 40
4.0
 40
5.0
 40
5.0
 40
5.0
 40
6.0
 40
6.0
 40
6.0
 40
7.0
 40
7.0
 40
7.0
 40
8.0
 40
8.0
 40
8.0
 40
9.0
 40
9.0
 40
9.0
 40
10.0
 40
10.0
 40
10.0
 40
11.0
 40
11.0
 40
11.0
 40
12.0
 40
12.0
 40
12.0
 40
13.0
 40
13.0
 40
13.0
 40
14.0
 40
14.0
 40
14.0
 40
15.0
 40
15.0
 40
15.0
 40
16.0
 40
16.0
 40
16.0
 40
16.0
 10
1063.709581984618
 20
561.4414533547097
 10
1066.911815311201
 20
565.6841076036134
 10
1071.714067785162
 20
576.9096411124547
 10
1072.411571456272
 20
582.1358415270288
 10
1074.565493052836
 20
598.274575138299
 10
1063.720437825239
 20
619.9527120817692
 10
1046.374838870844
 20
622.5119554713792
 10
1029.153074923319
 20
625.0529277177683
 10
1011.932175226184
 20
615.3063209473157
 10
1000.796600316691
 20
602.8659568816256
 10
994.3402831330931
 20
595.6531333911161
 10
989.9397994208229
 20
586.9007241764393
 10
984.2194503979845
 20
579.1296801253811
 10
974.3212820733825
 20
565.6831051405015
 10
962.5476803999172
 20
554.1145218587326
 10
949.2951210084974
 20
543.9837425355245
 10
934.2622839798959
 20
532.4920487395993
 10
917.8392864569632
 20
526.8417853159226
 10
900.1299230183532
 20
520.9153288983197
 10
898.1087961390949
 20
520.2389567403988
 10
896.1406543736011
 20
518.9129400749825
 10
893.9746415444961
 20
518.671036288295
 10
891.3739104168243
 20
518.3805824648043
 10
888.6773616044338
 20
519.2039955580858
 10
886.0775120776734
 20
519.3631672169085
 10
866.9620963965835
 20
520.5334781875007
 10
853.6245120660987
 20
511.1446454359175
 10
846.1893102796203
 20
493.983399939174
 10
844.2048221193291
 20
489.402987802132
 10
844.2709349271289
 20
486.8270039687886
 10
843.6816290905026
 20
482.0945804838393
 10
842.9639231472384
 20
476.3310392967524
 10
841.6833368602956
 20
474.0519884343302
 10
845.0591941995689
 20
468.5189554176504
 10
856.9626293716856
 20
449.0092151650078
 10
881.028205900564
 20
453.9882076077264
 10
899.4517735274738
 20
458.9706328328593
 10
912.9278843772654
 20
462.6150797713908
 10
925.7827166347743
 20
468.2064954414254
 10
937.2980786241013
 20
476.0795897254629
 10
953.3331550044886
 20
487.0428289455158
 10
966.8392687332744
 20
502.0396816076535
 10
983.0350123703338
 20
512.6525277770542
 10
991.783494957046
 20
518.3852870741339
 10
1001.431902782049
 20
525.1512395360968
 10
1010.599341431938
 20
529.9634047866202
 10
1027.423260589023
 20
538.7946042347157
 10
1051.929915792343
 20
545.8345172809313
 10
1063.709581984618
 20
561.4414533547097
 97
        0
 97
        1
330
8C
 92
        1
 93
        1
 72
     4
 94
        3
 73
     0
 74
     0
 95
       50
 96
       46
 40
0.0
 40
0.0
 40
0.0
 40
0.0
 40
1.0
 40
1.0
 40
1.0
 40
2.0
 40
2.0
 40
2.0
 40
3.0
 40
3.0
 40
3.0
 40
4.0
 40
4.0
 40
4.0
 40
5.0
 40
5.0
 40
5.0
 40
6.0
 40
6.0
 40
6.0
 40
7.0
 40
7.0
 40
7.0
 40
8.0
 40
8.0
 40
8.0
 40
9.0
 40
9.0
 40
9.0
 40
10.0
 40
10.0
 40
10.0
 40
11.0
 40
11.0
 40
11.0
 40
12.0
 40
12.0
 40
12.0
 40
13.0
 40
13.0
 40
13.0
 40
14.0
 40
14.0
 40
14.0
 40
15.0
 40
15.0
 40
15.0
 40
15.0
 10
1063.699943664695
 20
619.5577246396033
 10
1073.567043017057
 20
610.8651550054855
 10
1081.106830259445
 20
593.9215615119501
 10
1079.372041438142
 20
580.6968103760373
 10
1078.373067355167
 20
573.0813683831338
 10
1073.538198936203
 20
563.7216935109027
 10
1069.601145648175
 20
557.1140816900443
 10
1059.370114008952
 20
539.9431976167943
 10
1028.304204938937
 20
531.9065396728456
 10
1011.078940276398
 20
522.2859320769457
 10
1005.065130019553
 20
518.9271152592773
 10
999.2160640586698
 20
514.6455147557662
 10
993.3132496697471
 20
511.0147440317123
 10
987.4686635618818
 20
507.4197890261021
 10
982.8203835709738
 20
504.9886243379441
 10
977.2900708854777
 20
500.6407956900729
 10
961.637225354134
 20
488.3348205866441
 10
949.1757899862786
 20
473.8781050417055
 10
931.4813711449859
 20
464.1396037639679
 10
914.9742183183871
 20
455.0545396917587
 10
882.6279154018266
 20
445.218881087605
 10
864.1192587786573
 20
449.6642423725716
 10
853.4720375100169
 20
452.2214644435043
 10
838.0161085480768
 20
464.08886853888
 10
836.0595825051159
 20
475.3574508377568
 10
833.6943498285499
 20
488.9799728418839
 10
839.0155036846927
 20
503.1380910575735
 10
848.156607883352
 20
513.1307998153988
 10
856.6963890825837
 20
522.4661650540947
 10
871.7002273241496
 20
526.9753101378774
 10
884.1560614654099
 20
525.8399524337874
 10
888.333549119554
 20
525.459171609471
 10
891.3285265138684
 20
524.2358366053285
 10
895.9162043163205
 20
524.6480139937321
 10
904.0569184963597
 20
525.3794119808971
 10
922.3319018741131
 20
534.6090371158298
 10
930.1710923679747
 20
538.6292540031136
 10
943.8610228442531
 20
545.6499393314698
 10
959.1990907819235
 20
559.8816230958236
 10
969.6357283994112
 20
571.2748776490971
 10
987.1371695407688
 20
590.3804920510483
 10
991.4510348579606
 20
612.0036028253344
 10
1017.15393819698
 20
624.1827157172501
 10
1034.235783420699
 20
632.2768099383502
 10
1049.164063838483
 20
632.3633266782881
 10
1063.699943664695
 20
619.5577246396033
 97
        0
 97
        1
330
8D
 75
     2
 76
     1
 98
        1
 10
0.0
 20
0.0
450
        0
451
        0
460
0.0
461
0.0
452
        0
462
0.0
453
        0
470

  0
SPLINE
  5
8F
330
7D
100
AcDbEntity
  8
Layer 1
100
AcDbSpline
210
0.0
220
0.0
230
1.0
 70
     9
 71
     3
 72
    41
 73
    37
 74
     0
 42
0.0000000001
 43
0.0000000001
 40
0.0
 40
0.0
 40
0.0
 40
0.0
 40
1.0
 40
1.0
 40
1.0
 40
2.0
 40
2.0
 40
2.0
 40
3.0
 40
3.0
 40
3.0
 40
4.0
 40
4.0
 40
4.0
 40
5.0
 40
5.0
 40
5.0
 40
6.0
 40
6.0
 40
6.0
 40
7.0
 40
7.0
 40
7.0
 40
8.0
 40
8.0
 40
8.0
 40
9.0
 40
9.0
 40
9.0
 40
10.0
 40
10.0
 40
10.0
 40
11.0
 40
11.0
 40
11.0
 40
12.0
 40
12.0
 40
12.0
 40
12.0
 10
1027.955457164055
 20
584.4726815533294
 30
0.0
 10
1029.276293369905
 20
585.9922102062991
 30
0.0
 10
1029.537915062918
 20
588.8675511672317
 30
0.0
 10
1026.735260654792
 20
588.4514546485124
 30
0.0
 10
1023.713208777777
 20
588.0027852507546
 30
0.0
 10
1016.926966857061
 20
581.5070596528784
 30
0.0
 10
1014.356615264056
 20
579.2325017777529
 30
0.0
 10
997.0967988199609
 20
563.9589292739056
 30
0.0
 10
981.1370808873343
 20
547.2890258636798
 30
0.0
 10
963.9633433018207
 20
531.9588382479633
 30
0.0
 10
952.818995854208
 20
522.0108035597641
 30
0.0
 10
941.0775802688631
 20
511.6362963742813
 30
0.0
 10
926.9958763941113
 20
506.0534912350103
 30
0.0
 10
916.8994178864467
 20
502.0506687821052
 30
0.0
 10
906.6683233194963
 20
498.5014161960917
 30
0.0
 10
896.2282569138478
 20
495.5440211196291
 30
0.0
 10
892.9957851822045
 20
494.628347251999
 30
0.0
 10
889.7418582610971
 20
493.9129482748776
 30
0.0
 10
887.0811987167554
 20
491.73213494833
 30
0.0
 10
884.8376144899285
 20
489.8931779906452
 30
0.0
 10
881.9301354609816
 20
485.7017772945218
 30
0.0
 10
887.2197293788358
 20
486.3166200101786
 30
0.0
 10
892.304671294889
 20
486.9076747386097
 30
0.0
 10
902.2450288996342
 20
489.4195944327475
 30
0.0
 10
907.2037453067551
 20
491.0497773248371
 30
0.0
 10
910.351088771139
 20
492.0844695818468
 30
0.0
 10
913.41798734872
 20
493.775693800595
 30
0.0
 10
916.5558106218295
 20
494.8966466900819
 30
0.0
 10
920.2607341138609
 20
496.2201899021256
 30
0.0
 10
924.1529995113934
 20
497.0876996267616
 30
0.0
 10
927.8442933836094
 20
498.487169599055
 30
0.0
 10
939.4877847648313
 20
502.9015340806563
 30
0.0
 10
950.5115254155244
 20
510.4271128344044
 30
0.0
 10
959.8833928410122
 20
518.5225218710383
 30
0.0
 10
983.8156040020894
 20
539.1951402195554
 30
0.0
 10
1005.082415644712
 20
562.7396659092382
 30
0.0
 10
1027.955457164055
 20
584.4726815533294
 30
0.0
  0
SPLINE
  5
90
330
7D
100
AcDbEntity
  8
Layer 1
100
AcDbSpline
210
0.0
220
0.0
230
1.0
 70
     9
 71
     3
 72
    53
 73
    49
 74
     0
 42
0.0000000001
 43
0.0000000001
 40
0.0
 40
0.0
 40
0.0
 40
0.0
 40
1.0
 40
1.0
 40
1.0
 40
2.0
 40
2.0
 40
2.0
 40
3.0
 40
3.0
 40
3.0
 40
4.0
 40
4.0
 40
4.0
 40
5.0
 40
5.0
 40
5.0
 40
6.0
 40
6.0
 40
6.0
 40
7.0
 40
7.0
 40
7.0
 40
8.0
 40
8.0
 40
8.0
 40
9.0
 40
9.0
 40
9.0
 40
10.0
 40
10.0
 40
10.0
 40
11.0
 40
11.0
 40
11.0
 40
12.0
 40
12.0
 40
12.0
 40
13.0
 40
13.0
 40
13.0
 40
14.0
 40
14.0
 40
14.0
 40
15.0
 40
15.0
 40
15.0
 40
16.0
 40
16.0
 40
16.0
 40
16.0
 10
1063.709581984618
 20
561.4414533547097
 30
0.0
 10
1051.929915792343
 20
545.8345172809313
 30
0.0
 10
1027.423260589023
 20
538.7946042347157
 30
0.0
 10
1010.599341431938
 20
529.9634047866202
 30
0.0
 10
1001.431902782049
 20
525.1512395360968
 30
0.0
 10
991.783494957046
 20
518.3852870741339
 30
0.0
 10
983.0350123703338
 20
512.6525277770542
 30
0.0
 10
966.8392687332744
 20
502.0396816076535
 30
0.0
 10
953.3331550044886
 20
487.0428289455158
 30
0.0
 10
937.2980786241013
 20
476.0795897254629
 30
0.0
 10
925.7827166347743
 20
468.2064954414254
 30
0.0
 10
912.9278843772654
 20
462.6150797713908
 30
0.0
 10
899.4517735274738
 20
458.9706328328593
 30
0.0
 10
881.028205900564
 20
453.9882076077264
 30
0.0
 10
856.9626293716856
 20
449.0092151650078
 30
0.0
 10
845.0591941995689
 20
468.5189554176504
 30
0.0
 10
841.6833368602956
 20
474.0519884343302
 30
0.0
 10
842.9639231472384
 20
476.3310392967524
 30
0.0
 10
843.6816290905026
 20
482.0945804838393
 30
0.0
 10
844.2709349271289
 20
486.8270039687886
 30
0.0
 10
844.2048221193291
 20
489.402987802132
 30
0.0
 10
846.1893102796203
 20
493.983399939174
 30
0.0
 10
853.6245120660987
 20
511.1446454359175
 30
0.0
 10
866.9620963965835
 20
520.5334781875007
 30
0.0
 10
886.0775120776734
 20
519.3631672169085
 30
0.0
 10
888.6773616044338
 20
519.2039955580858
 30
0.0
 10
891.3739104168243
 20
518.3805824648043
 30
0.0
 10
893.9746415444961
 20
518.671036288295
 30
0.0
 10
896.1406543736011
 20
518.9129400749825
 30
0.0
 10
898.1087961390949
 20
520.2389567403988
 30
0.0
 10
900.1299230183532
 20
520.9153288983197
 30
0.0
 10
917.8392864569632
 20
526.8417853159226
 30
0.0
 10
934.2622839798959
 20
532.4920487395993
 30
0.0
 10
949.2951210084974
 20
543.9837425355245
 30
0.0
 10
962.5476803999172
 20
554.1145218587326
 30
0.0
 10
974.3212820733825
 20
565.6831051405015
 30
0.0
 10
984.2194503979845
 20
579.1296801253811
 30
0.0
 10
989.9397994208229
 20
586.9007241764393
 30
0.0
 10
994.3402831330931
 20
595.6531333911161
 30
0.0
 10
1000.796600316691
 20
602.8659568816256
 30
0.0
 10
1011.932175226184
 20
615.3063209473157
 30
0.0
 10
1029.153074923319
 20
625.0529277177683
 30
0.0
 10
1046.374838870844
 20
622.5119554713792
 30
0.0
 10
1063.720437825239
 20
619.9527120817692
 30
0.0
 10
1074.565493052836
 20
598.274575138299
 30
0.0
 10
1072.411571456272
 20
582.1358415270288
 30
0.0
 10
1071.714067785162
 20
576.9096411124547
 30
0.0
 10
1066.911815311201
 20
565.6841076036134
 30
0.0
 10
1063.709581984618
 20
561.4414533547097
 30
0.0
  0
SPLINE
  5
91
330
7D
100
AcDbEntity
  8
Layer 1
100
AcDbSpline
210
0.0
220
0.0
230
1.0
 70
     9
 71
     3
 72
    41
 73
    37
 74
     0
 42
0.0000000001
 43
0.0000000001
 40
0.0
 40
0.0
 40
0.0
 40
0.0
 40
1.0
 40
1.0
 40
1.0
 40
2.0
 40
2.0
 40
2.0
 40
3.0
 40
3.0
 40
3.0
 40
4.0
 40
4.0
 40
4.0
 40
5.0
 40
5.0
 40
5.0
 40
6.0
 40
6.0
 40
6.0
 40
7.0
 40
7.0
 40
7.0
 40
8.0
 40
8.0
 40
8.0
 40
9.0
 40
9.0
 40
9.0
 40
10.0
 40
10.0
 40
10.0
 40
11.0
 40
11.0
 40
11.0
 40
12.0
 40
12.0
 40
12.0
 40
12.0
 10
1027.955457164055
 20
584.4726815533294
 30
0.0
 10
1005.082415644712
 20
562.7396659092382
 30
0.0
 10
983.8156040020894
 20
539.1951402195554
 30
0.0
 10
959.8833928410122
 20
518.5225218710383
 30
0.0
 10
950.5115254155244
 20
510.4271128344044
 30
0.0
 10
939.4877847648313
 20
502.9015340806563
 30
0.0
 10
927.8442933836094
 20
498.487169599055
 30
0.0
 10
924.1529995113934
 20
497.0876996267616
 30
0.0
 10
920.2607341138609
 20
496.2201899021256
 30
0.0
 10
916.5558106218295
 20
494.8966466900819
 30
0.0
 10
913.41798734872
 20
493.775693800595
 30
0.0
 10
910.351088771139
 20
492.0844695818468
 30
0.0
 10
907.2037453067551
 20
491.0497773248371
 30
0.0
 10
902.2450288996342
 20
489.4195944327475
 30
0.0
 10
892.304671294889
 20
486.9076747386097
 30
0.0
 10
887.2197293788358
 20
486.3166200101786
 30
0.0
 10
881.9301354609816
 20
485.7017772945218
 30
0.0
 10
884.8376144899285
 20
489.8931779906452
 30
0.0
 10
887.0811987167554
 20
491.73213494833
 30
0.0
 10
889.7418582610971
 20
493.9129482748776
 30
0.0
 10
892.9957851822045
 20
494.628347251999
 30
0.0
 10
896.2282569138478
 20
495.5440211196291
 30
0.0
 10
906.6683233194963
 20
498.5014161960917
 30
0.0
 10
916.8994178864467
 20
502.0506687821052
 30
0.0
 10
926.9958763941113
 20
506.0534912350103
 30
0.0
 10
941.0775802688631
 20
511.6362963742813
 30
0.0
 10
952.818995854208
 20
522.0108035597641
 30
0.0
 10
963.9633433018207
 20
531.9588382479633
 30
0.0
 10
981.1370808873343
 20
547.2890258636798
 30
0.0
 10
997.0967988199609
 20
563.9589292739056
 30
0.0
 10
1014.356615264056
 20
579.2325017777529
 30
0.0
 10
1016.926966857061
 20
581.5070596528784
 30
0.0
 10
1023.713208777777
 20
588.0027852507546
 30
0.0
 10
1026.735260654792
 20
588.4514546485124
 30
0.0
 10
1029.537915062918
 20
588.8675511672317
 30
0.0
 10
1029.276293369905
 20
585.9922102062991
 30
0.0
 10
1027.955457164055
 20
584.4726815533294
 30
0.0
  0
HATCH
  5
92
330
7D
100
AcDbEntity
  8
Layer 1
 62
    18
420
        0
440
 33554687
100
AcDbHatch
 10
0.0
 20
0.0
 30
0.0
210
0.0
220
0.0
230
1.0
  2
SOLID
 70
     1
 71
     1
 91
        1
 92
        1
 93
        1
 72
     4
 94
        3
 73
     0
 74
     0
 95
       41
 96
       37
 40
0.0
 40
0.0
 40
0.0
 40
0.0
 40
1.0
 40
1.0
 40
1.0
 40
2.0
 40
2.0
 40
2.0
 40
3.0
 40
3.0
 40
3.0
 40
4.0
 40
4.0
 40
4.0
 40
5.0
 40
5.0
 40
5.0
 40
6.0
 40
6.0
 40
6.0
 40
7.0
 40
7.0
 40
7.0
 40
8.0
 40
8.0
 40
8.0
 40
9.0
 40
9.0
 40
9.0
 40
10.0
 40
10.0
 40
10.0
 40
11.0
 40
11.0
 40
11.0
 40
12.0
 40
12.0
 40
12.0
 40
12.0
 10
1027.955457164055
 20
584.4726815533294
 10
1005.082415644712
 20
562.7396659092382
 10
983.8156040020894
 20
539.1951402195554
 10
959.8833928410122
 20
518.5225218710383
 10
950.5115254155244
 20
510.4271128344044
 10
939.4877847648313
 20
502.9015340806563
 10
927.8442933836094
 20
498.487169599055
 10
924.1529995113934
 20
497.0876996267616
 10
920.2607341138609
 20
496.2201899021256
 10
916.5558106218295
 20
494.8966466900819
 10
913.41798734872
 20
493.775693800595
 10
910.351088771139
 20
492.0844695818468
 10
907.2037453067551
 20
491.0497773248371
 10
902.2450288996342
 20
489.4195944327475
 10
892.304671294889
 20
486.9076747386097
 10
887.2197293788358
 20
486.3166200101786
 10
881.9301354609816
 20
485.7017772945218
 10
884.8376144899285
 20
489.8931779906452
 10
887.0811987167554
 20
491.73213494833
 10
889.7418582610971
 20
493.9129482748776
 10
892.9957851822045
 20
494.628347251999
 10
896.2282569138478
 20
495.5440211196291
 10
906.6683233194963
 20
498.5014161960917
 10
916.8994178864467
 20
502.0506687821052
 10
926.9958763941113
 20
506.0534912350103
 10
941.0775802688631
 20
511.6362963742813
 10
952.818995854208
 20
522.0108035597641
 10
963.9633433018207
 20
531.9588382479633
 10
981.1370808873343
 20
547.2890258636798
 10
997.0967988199609
 20
563.9589292739056
 10
1014.356615264056
 20
579.2325017777529
 10
1016.926966857061
 20
581.5070596528784
 10
1023.713208777777
 20
588.0027852507546
 10
1026.735260654792
 20
588.4514546485124
 10
1029.537915062918
 20
588.8675511672317
 10
1029.276293369905
 20
585.9922102062991
 10
1027.955457164055
 20
584.4726815533294
 97
        0
 97
        1
330
91
 75
     2
 76
     1
 98
        1
 10
0.0
 20
0.0
450
        0
451
        0
460
0.0
461
0.0
452
        0
462
0.0
453
        0
470

  0
ENDBLK
  5
80
330
7D
100
AcDbEntity
  8
0
100
AcDbBlockEnd
  0
ENDSEC
  0
SECTION
  2
ENTITIES
  0
INSERT
  5
7A
330
70
100
AcDbEntity
  8
Layer 1
100
AcDbBlockReference
  2
Block_0
 10
0.0
 20
0.0
 30
0.0
  0
ENDSEC
  0
SECTION
  2
OBJECTS
  0
DICTIONARY
  5
C
330
0
100
AcDbDictionary
281
     1
  3
ACAD_COLOR
350
63
  3
ACAD_DETAILVIEWSTYLE
350
6A
  3
ACAD_GROUP
350
D
  3
ACAD_LAYOUT
350
62
  3
ACAD_MATERIAL
350
10
  3
ACAD_MLEADERSTYLE
350
66
  3
ACAD_MLINESTYLE
350
5F
  3
ACAD_PLOTSETTINGS
350
61
  3
ACAD_PLOTSTYLENAME
350
E
  3
ACAD_SCALELIST
350
42
  3
ACAD_SECTIONVIEWSTYLE
350
68
  3
ACAD_TABLESTYLE
350
64
  3
ACAD_VISUALSTYLE
350
29
  3
ACDB_RECOMPOSE_DATA
350
9B
  3
AcDbVariableDictionary
350
93
  0
DICTIONARY
  5
63
102
{ACAD_REACTORS
330
C
102
}
330
C
100
AcDbDictionary
281
     1
  0
DICTIONARY
  5
6A
102
{ACAD_REACTORS
330
C
102
}
330
C
100
AcDbDictionary
281
     1
  3
Imperial24
350
6B
  0
DICTIONARY
  5
D
102
{ACAD_REACTORS
330
C
102
}
330
C
100
AcDbDictionary
281
     1
  0
DICTIONARY
  5
62
102
{ACAD_REACTORS
330
C
102
}
330
C
100
AcDbDictionary
281
     1
  3
Layout1
350
6F
  3
Layout2
350
77
  3
Model
350
73
  0
DICTIONARY
  5
10
102
{ACAD_REACTORS
330
C
102
}
330
C
100
AcDbDictionary
281
     1
  3
ByBlock
350
19
  3
ByLayer
350
11
  3
Global
350
21
  0
DICTIONARY
  5
66
102
{ACAD_REACTORS
330
C
102
}
330
C
100
AcDbDictionary
281
     1
  3
Standard
350
67
  0
DICTIONARY
  5
5F
102
{ACAD_REACTORS
330
C
102
}
330
C
100
AcDbDictionary
281
     1
  3
Standard
350
60
  0
DICTIONARY
  5
61
102
{ACAD_REACTORS
330
C
102
}
330
C
100
AcDbDictionary
281
     1
  0
ACDBDICTIONARYWDFLT
  5
E
102
{ACAD_REACTORS
330
C
102
}
330
C
100
AcDbDictionary
281
     1
  3
Normal
350
F
100
AcDbDictionaryWithDefault
340
F
  0
DICTIONARY
  5
42
102
{ACAD_REACTORS
330
C
102
}
330
C
100
AcDbDictionary
281
     1
  3
A0
350
43
  3
A1
350
44
  3
A2
350
45
  3
A3
350
46
  3
A4
350
47
  3
A5
350
48
  3
A6
350
49
  3
A7
350
4A
  3
A8
350
4B
  3
A9
350
4C
  3
B0
350
4D
  3
B1
350
4E
  3
B2
350
4F
  3
B3
350
50
  3
B4
350
51
  3
B5
350
52
  3
B6
350
53
  0
DICTIONARY
  5
68
102
{ACAD_REACTORS
330
C
102
}
330
C
100
AcDbDictionary
281
     1
  3
Imperial24
350
69
  0
DICTIONARY
  5
64
102
{ACAD_REACTORS
330
C
102
}
330
C
100
AcDbDictionary
281
     1
  3
Standard
350
65
  0
DICTIONARY
  5
29
102
{ACAD_REACTORS
330
C
102
}
330
C
100
AcDbDictionary
281
     1
  3
2dWireframe
350
2F
  3
Basic
350
2E
  3
Brighten
350
35
  3
ColorChange
350
39
  3
Conceptual
350
32
  3
Dim
350
34
  3
EdgeColorOff
350
41
  3
Facepattern
350
38
  3
Flat
350
2A
  3
FlatWithEdges
350
2B
  3
Gouraud
350
2C
  3
GouraudWithEdges
350
2D
  3
Hidden
350
31
  3
JitterOff
350
3F
  3
Linepattern
350
37
  3
OverhangOff
350
40
  3
Realistic
350
33
  3
Shaded
350
3E
  3
Shaded with edges
350
3D
  3
Shades of Gray
350
3A
  3
Sketchy
350
3B
  3
Thicken
350
36
  3
Wireframe
350
30
  3
X-Ray
350
3C
  0
XRECORD
  5
9B
102
{ACAD_REACTORS
330
C
102
}
330
C
100
AcDbXrecord
280
     1
 90
        1
330
65
  0
DICTIONARY
  5
93
102
{ACAD_REACTORS
330
C
102
}
330
C
100
AcDbDictionary
281
     1
  3
CANNOSCALE
350
98
  3
CMLEADERSTYLE
350
95
  3
CTABLESTYLE
350
94
  3
CVIEWDETAILSTYLE
350
96
  3
CVIEWSECTIONSTYLE
350
97
  0
ACDBDETAILVIEWSTYLE
  5
6B
102
{ACAD_REACTORS
330
6A
102
}
330
6A
100
AcDbModelDocViewStyle
 70
     0
  3
Imperial24
290
     1
300
Imperial24
 90
        0
100
AcDbDetailViewStyle
 70
     0
 71
     0
 90
        3
 71
     1
340
55
 62
   256
 40
0.24
340
0
 62
   256
 40
0.24
300

 40
0.36
280
     3
 71
     2
340
5D
 90
       25
 62
   256
 71
     3
340
55
 62
   256
 40
0.24
 90
        1
 40
0.75
 90
        1
300
%<\AcVar ViewType \f "%tc1">% %<\AcVar ViewDetailId>%\PSCALE %<\AcVar ViewScale \f "%sn">%
 71
     4
340
5D
 90
       25
 62
   256
340
5D
 90
       25
 62
   256
280
     0
  0
LAYOUT
  5
6F
102
{ACAD_REACTORS
330
62
102
}
330
62
100
AcDbPlotSettings
  1

  2

  4

  6

 40
0.0
 41
0.0
 42
0.0
 43
0.0
 44
0.0
 45
0.0
 46
0.0
 47
0.0
 48
0.0
 49
0.0
140
0.0
141
0.0
142
1.0
143
1.0
 70
   688
 72
     0
 73
     0
 74
     5
  7

 75
    16
147
1.0
 76
     0
 77
     2
 78
   300
148
0.0
149
0.0
100
AcDbLayout
  1
Layout1
 70
     1
 71
     1
 10
0.0
 20
0.0
 11
12.0
 21
9.0
 12
0.0
 22
0.0
 32
0.0
 14
0.0
 24
0.0
 34
0.0
 15
0.0
 25
0.0
 35
0.0
146
0.0
 13
0.0
 23
0.0
 33
0.0
 16
1.0
 26
0.0
 36
0.0
 17
0.0
 27
1.0
 37
0.0
 76
     0
330
6C
  0
LAYOUT
  5
77
102
{ACAD_REACTORS
330
62
102
}
330
62
100
AcDbPlotSettings
  1

  2

  4

  6

 40
0.0
 41
0.0
 42
0.0
 43
0.0
 44
0.0
 45
0.0
 46
0.0
 47
0.0
 48
0.0
 49
0.0
140
0.0
141
0.0
142
1.0
143
1.0
 70
   688
 72
     0
 73
     0
 74
     5
  7

 75
    16
147
1.0
 76
     0
 77
     2
 78
   300
148
0.0
149
0.0
100
AcDbLayout
  1
Layout2
 70
     1
 71
     2
 10
0.0
 20
0.0
 11
12.0
 21
9.0
 12
0.0
 22
0.0
 32
0.0
 14
0.0
 24
0.0
 34
0.0
 15
0.0
 25
0.0
 35
0.0
146
0.0
 13
0.0
 23
0.0
 33
0.0
 16
1.0
 26
0.0
 36
0.0
 17
0.0
 27
1.0
 37
0.0
 76
     0
330
74
  0
LAYOUT
  5
73
102
{ACAD_REACTORS
330
62
102
}
330
62
100
AcDbPlotSettings
  1

  2

  4

  6

 40
0.0
 41
0.0
 42
0.0
 43
0.0
 44
0.0
 45
0.0
 46
0.0
 47
0.0
 48
0.0
 49
0.0
140
0.0
141
0.0
142
1.0
143
1.0
 70
  1712
 72
     0
 73
     0
 74
     0
  7

 75
     0
147
1.0
 76
     0
 77
     2
 78
   300
148
0.0
149
0.0
100
AcDbLayout
  1
Model
 70
     1
 71
     0
 10
0.0
 20
0.0
 11
12.0
 21
9.0
 12
0.0
 22
0.0
 32
0.0
 14
0.0
 24
0.0
 34
0.0
 15
0.0
 25
0.0
 35
0.0
146
0.0
 13
0.0
 23
0.0
 33
0.0
 16
1.0
 26
0.0
 36
0.0
 17
0.0
 27
1.0
 37
0.0
 76
     0
330
70
  0
MATERIAL
  5
19
102
{ACAD_XDICTIONARY
360
1A
102
}
102
{ACAD_REACTORS
330
10
102
}
330
10
100
AcDbMaterial
  1
ByBlock
 72
     0
 43
0.0208333333333333
 43
0.0
 43
0.0
 43
0.0
 43
0.0
 43
0.0208333333333333
 43
0.0
 43
0.0
 43
0.0
 43
0.0
 43
1.0
 43
0.0
 43
0.0
 43
0.0
 43
0.0
 43
1.0
 77
     0
 47
0.0208333333333333
 47
0.0
 47
0.0
 47
0.0
 47
0.0
 47
0.0208333333333333
 47
0.0
 47
0.0
 47
0.0
 47
0.0
 47
1.0
 47
0.0
 47
0.0
 47
0.0
 47
0.0
 47
1.0
171
     0
 49
0.0208333333333333
 49
0.0
 49
0.0
 49
0.0
 49
0.0
 49
0.0208333333333333
 49
0.0
 49
0.0
 49
0.0
 49
0.0
 49
1.0
 49
0.0
 49
0.0
 49
0.0
 49
0.0
 49
1.0
175
     0
142
0.0208333333333333
142
0.0
142
0.0
142
0.0
142
0.0
142
0.0208333333333333
142
0.0
142
0.0
142
0.0
142
0.0
142
1.0
142
0.0
142
0.0
142
0.0
142
0.0
142
1.0
179
     0
144
0.0208333333333333
144
0.0
144
0.0
144
0.0
144
0.0
144
0.0208333333333333
144
0.0
144
0.0
144
0.0
144
0.0
144
1.0
144
0.0
144
0.0
144
0.0
144
0.0
144
1.0
147
0.0208333333333333
147
0.0
147
0.0
147
0.0
147
0.0
147
0.0208333333333333
147
0.0
147
0.0
147
0.0
147
0.0
147
1.0
147
0.0
147
0.0
147
0.0
147
0.0
147
1.0
  0
MATERIAL
  5
11
102
{ACAD_XDICTIONARY
360
12
102
}
102
{ACAD_REACTORS
330
10
102
}
330
10
100
AcDbMaterial
  1
ByLayer
 72
     0
 43
0.0208333333333333
 43
0.0
 43
0.0
 43
0.0
 43
0.0
 43
0.0208333333333333
 43
0.0
 43
0.0
 43
0.0
 43
0.0
 43
1.0
 43
0.0
 43
0.0
 43
0.0
 43
0.0
 43
1.0
 77
     0
 47
0.0208333333333333
 47
0.0
 47
0.0
 47
0.0
 47
0.0
 47
0.0208333333333333
 47
0.0
 47
0.0
 47
0.0
 47
0.0
 47
1.0
 47
0.0
 47
0.0
 47
0.0
 47
0.0
 47
1.0
171
     0
 49
0.0208333333333333
 49
0.0
 49
0.0
 49
0.0
 49
0.0
 49
0.0208333333333333
 49
0.0
 49
0.0
 49
0.0
 49
0.0
 49
1.0
 49
0.0
 49
0.0
 49
0.0
 49
0.0
 49
1.0
175
     0
142
0.0208333333333333
142
0.0
142
0.0
142
0.0
142
0.0
142
0.0208333333333333
142
0.0
142
0.0
142
0.0
142
0.0
142
1.0
142
0.0
142
0.0
142
0.0
142
0.0
142
1.0
179
     0
144
0.0208333333333333
144
0.0
144
0.0
144
0.0
144
0.0
144
0.0208333333333333
144
0.0
144
0.0
144
0.0
144
0.0
144
1.0
144
0.0
144
0.0
144
0.0
144
0.0
144
1.0
147
0.0208333333333333
147
0.0
147
0.0
147
0.0
147
0.0
147
0.0208333333333333
147
0.0
147
0.0
147
0.0
147
0.0
147
1.0
147
0.0
147
0.0
147
0.0
147
0.0
147
1.0
  0
MATERIAL
  5
21
102
{ACAD_XDICTIONARY
360
22
102
}
102
{ACAD_REACTORS
330
10
102
}
330
10
100
AcDbMaterial
  1
Global
 72
     0
 43
0.0208333333333333
 43
0.0
 43
0.0
 43
0.0
 43
0.0
 43
0.0208333333333333
 43
0.0
 43
0.0
 43
0.0
 43
0.0
 43
1.0
 43
0.0
 43
0.0
 43
0.0
 43
0.0
 43
1.0
 77
     0
 47
0.0208333333333333
 47
0.0
 47
0.0
 47
0.0
 47
0.0
 47
0.0208333333333333
 47
0.0
 47
0.0
 47
0.0
 47
0.0
 47
1.0
 47
0.0
 47
0.0
 47
0.0
 47
0.0
 47
1.0
171
     0
 49
0.0208333333333333
 49
0.0
 49
0.0
 49
0.0
 49
0.0
 49
0.0208333333333333
 49
0.0
 49
0.0
 49
0.0
 49
0.0
 49
1.0
 49
0.0
 49
0.0
 49
0.0
 49
0.0
 49
1.0
175
     0
142
0.0208333333333333
142
0.0
142
0.0
142
0.0
142
0.0
142
0.0208333333333333
142
0.0
142
0.0
142
0.0
142
0.0
142
1.0
142
0.0
142
0.0
142
0.0
142
0.0
142
1.0
179
     0
144
0.0208333333333333
144
0.0
144
0.0
144
0.0
144
0.0
144
0.0208333333333333
144
0.0
144
0.0
144
0.0
144
0.0
144
1.0
144
0.0
144
0.0
144
0.0
144
0.0
144
1.0
147
0.0208333333333333
147
0.0
147
0.0
147
0.0
147
0.0
147
0.0208333333333333
147
0.0
147
0.0
147
0.0
147
0.0
147
1.0
147
0.0
147
0.0
147
0.0
147
0.0
147
1.0
  0
MLEADERSTYLE
  5
67
102
{ACAD_REACTORS
330
66
102
}
330
66
100
AcDbMLeaderStyle
179
     2
170
     2
171
     1
172
     0
 90
        2
 40
0.0
 41
0.0
173
     1
 91
-1056964608
340
5B
 92
       -2
290
     1
 42
0.09
291
     1
 43
0.36
  3
Standard
 44
0.18
300

342
55
174
     1
178
     6
175
     1
176
     0
 93
-1056964608
 45
0.18
292
     0
297
     0
 46
0.18
 94
-1056964608
 47
1.0
 49
1.0
140
1.0
293
     1
141
0.0
294
     1
177
     0
142
1.0
295
     1
296
     0
143
0.125
271
     0
272
     9
273
     9
298
     1
  0
MLINESTYLE
  5
60
102
{ACAD_REACTORS
330
5F
102
}
330
5F
100
AcDbMlineStyle
  2
STANDARD
 70
     0
  3

 62
   256
 51
90.0
 52
90.0
 71
     2
 49
0.5
 62
   256
  6
BYLAYER
 49
-0.5
 62
   256
  6
BYLAYER
  0
ACDBPLACEHOLDER
  5
F
102
{ACAD_REACTORS
330
E
102
}
330
E
  0
SCALE
  5
43
102
{ACAD_REACTORS
330
42
102
}
330
42
100
AcDbScale
 70
     0
300
1:1
140
1.0
141
1.0
290
     1
  0
SCALE
  5
44
102
{ACAD_REACTORS
330
42
102
}
330
42
100
AcDbScale
 70
     0
300
1/128" = 1'-0"
140
0.0078125
141
12.0
290
     0
  0
SCALE
  5
45
102
{ACAD_REACTORS
330
42
102
}
330
42
100
AcDbScale
 70
     0
300
1/64" = 1'-0"
140
0.015625
141
12.0
290
     0
  0
SCALE
  5
46
102
{ACAD_REACTORS
330
42
102
}
330
42
100
AcDbScale
 70
     0
300
1/32" = 1'-0"
140
0.03125
141
12.0
290
     0
  0
SCALE
  5
47
102
{ACAD_REACTORS
330
42
102
}
330
42
100
AcDbScale
 70
     0
300
1/16" = 1'-0"
140
0.0625
141
12.0
290
     0
  0
SCALE
  5
48
102
{ACAD_REACTORS
330
42
102
}
330
42
100
AcDbScale
 70
     0
300
3/32" = 1'-0"
140
0.09375
141
12.0
290
     0
  0
SCALE
  5
49
102
{ACAD_REACTORS
330
42
102
}
330
42
100
AcDbScale
 70
     0
300
1/8" = 1'-0"
140
0.125
141
12.0
290
     0
  0
SCALE
  5
4A
102
{ACAD_REACTORS
330
42
102
}
330
42
100
AcDbScale
 70
     0
300
3/16" = 1'-0"
140
0.1875
141
12.0
290
     0
  0
SCALE
  5
4B
102
{ACAD_REACTORS
330
42
102
}
330
42
100
AcDbScale
 70
     0
300
1/4" = 1'-0"
140
0.25
141
12.0
290
     0
  0
SCALE
  5
4C
102
{ACAD_REACTORS
330
42
102
}
330
42
100
AcDbScale
 70
     0
300
3/8" = 1'-0"
140
0.375
141
12.0
290
     0
  0
SCALE
  5
4D
102
{ACAD_REACTORS
330
42
102
}
330
42
100
AcDbScale
 70
     0
300
1/2" = 1'-0"
140
0.5
141
12.0
290
     0
  0
SCALE
  5
4E
102
{ACAD_REACTORS
330
42
102
}
330
42
100
AcDbScale
 70
     0
300
3/4" = 1'-0"
140
0.75
141
12.0
290
     0
  0
SCALE
  5
4F
102
{ACAD_REACTORS
330
42
102
}
330
42
100
AcDbScale
 70
     0
300
1" = 1'-0"
140
1.0
141
12.0
290
     0
  0
SCALE
  5
50
102
{ACAD_REACTORS
330
42
102
}
330
42
100
AcDbScale
 70
     0
300
1-1/2" = 1'-0"
140
1.5
141
12.0
290
     0
  0
SCALE
  5
51
102
{ACAD_REACTORS
330
42
102
}
330
42
100
AcDbScale
 70
     0
300
3" = 1'-0"
140
3.0
141
12.0
290
     0
  0
SCALE
  5
52
102
{ACAD_REACTORS
330
42
102
}
330
42
100
AcDbScale
 70
     0
300
6" = 1'-0"
140
6.0
141
12.0
290
     0
  0
SCALE
  5
53
102
{ACAD_REACTORS
330
42
102
}
330
42
100
AcDbScale
 70
     0
300
1'-0" = 1'-0"
140
12.0
141
12.0
290
     0
  0
ACDBSECTIONVIEWSTYLE
  5
69
102
{ACAD_REACTORS
330
68
102
}
330
68
100
AcDbModelDocViewStyle
 70
     0
  3
Imperial24
290
     1
300
Imperial24
 90
        0
100
AcDbSectionViewStyle
 70
     0
 71
     0
 90
       78
 71
     1
340
55
 62
   256
 40
0.24
340
0
340
0
 62
   256
 40
0.24
300
I, O, Q, S, X, Z
 40
0.48
 90
        3
 40
0.18
 90
        1
 71
     2
340
5D
 90
       25
 62
   256
340
5D
 90
       50
 62
   256
 40
0.24
 40
0.0
 40
0.24
 71
     3
340
55
 62
   256
 40
0.24
 90
        1
 40
0.75
 90
        1
300
%<\AcVar ViewType \f "%tc1">% %<\AcVar ViewSectionStartId>%-%<\AcVar ViewSectionEndId>%\PSCALE %<\AcVar ViewScale \f "%sn">%
 71
     4
 62
   256
 62
   257
300
ANSI31
 40
1.0
 90
        0
290
     0
290
     0
 90
        6
 40
0.0
 40
1.570796326794896
 40
0.2617993877991494
 40
1.308996938995747
 40
-0.2617993877991494
 40
1.832595714594046
  0
TABLESTYLE
  5
65
102
{ACAD_XDICTIONARY
360
99
102
}
102
{ACAD_REACTORS
330
64
102
}
330
64
100
AcDbTableStyle
280
     0
  3
Standard
 70
     0
 71
     0
 40
0.06
 41
0.06
280
     0
281
     0
  7
Standard
140
0.18
170
     2
 62
     0
 63
     7
283
     0
 90
      512
 91
        0
  1

274
    -2
284
     1
 64
     0
275
    -2
285
     1
 65
     0
276
    -2
286
     1
 66
     0
277
    -2
287
     1
 67
     0
278
    -2
288
     1
 68
     0
279
    -2
289
     1
 69
     0
  7
Standard
140
0.25
170
     5
 62
     0
 63
     7
283
     0
 90
      512
 91
        0
  1

274
    -2
284
     1
 64
     0
275
    -2
285
     1
 65
     0
276
    -2
286
     1
 66
     0
277
    -2
287
     1
 67
     0
278
    -2
288
     1
 68
     0
279
    -2
289
     1
 69
     0
  7
Standard
140
0.18
170
     5
 62
     0
 63
     7
283
     0
 90
      512
 91
        0
  1

274
    -2
284
     1
 64
     0
275
    -2
285
     1
 65
     0
276
    -2
286
     1
 66
     0
277
    -2
287
     1
 67
     0
278
    -2
288
     1
 68
     0
279
    -2
289
     1
 69
     0
  0
VISUALSTYLE
  5
2F
102
{ACAD_REACTORS
330
29
102
}
330
29
100
AcDbVisualStyle
  2
2dWireframe
 70
     4
177
     3
291
     0
 70
    58
 90
        0
176
     1
 90
        2
176
     1
 90
        0
176
     1
 90
        0
176
     1
 40
0.6
176
     1
 40
30.0
176
     1
 62
     7
420
 16777215
176
     1
 90
        1
176
     1
 90
        4
176
     1
 62
     7
176
     1
 62
   257
176
     1
 90
        1
176
     1
 90
        1
176
     1
 40
1.0
176
     1
 90
        0
176
     1
 62
   257
176
     1
 40
1.0
176
     1
 90
        1
176
     1
 90
        6
176
     1
 90
        2
176
     1
 62
     7
176
     1
 90
        5
176
     1
 90
        0
176
     1
 90
        0
176
     1
290
     0
176
     1
 90
        1
176
     1
 40
0.0
176
     1
 90
        0
176
     1
290
     1
176
     1
290
     1
176
     1
290
     0
176
     1
290
     0
176
     1
290
     0
176
     1
290
     0
176
     1
290
     0
176
     1
290
     0
176
     1
290
     0
176
     1
 90
       50
176
     1
 40
0.0
176
     1
 40
1.0
176
     1
 90
        0
176
     1
 62
    18
420
        0
176
     1
 90
       50
176
     1
 90
        3
176
     1
 62
     5
420
      255
176
     1
290
     0
176
     1
 90
       50
176
     1
 90
       50
176
     1
 90
       50
176
     1
290
     0
176
     1
 90
       50
176
     1
 62
   256
176
     0
 40
1.0
176
     0
 90
        2
176
     1
  1
strokes_ogs.tif
176
     1
290
     0
176
     1
 40
1.0
176
     1
 40
1.0
176
     1
  0
VISUALSTYLE
  5
2E
102
{ACAD_REACTORS
330
29
102
}
330
29
100
AcDbVisualStyle
  2
Basic
 70
     7
177
     3
291
     1
 70
    58
 90
        1
176
     1
 90
        0
176
     1
 90
        1
176
     1
 90
        0
176
     1
 40
0.6
176
     1
 40
30.0
176
     1
 62
     7
420
 16777215
176
     1
 90
        0
176
     1
 90
        4
176
     1
 62
     7
176
     1
 62
   257
176
     1
 90
        1
176
     1
 90
        1
176
     1
 40
1.0
176
     1
 90
        8
176
     1
 62
     7
176
     1
 40
1.0
176
     1
 90
        1
176
     1
 90
        6
176
     1
 90
        2
176
     1
 62
     7
176
     1
 90
        5
176
     1
 90
        0
176
     1
 90
        0
176
     1
290
     0
176
     1
 90
        1
176
     1
 40
0.0
176
     1
 90
        0
176
     1
290
     0
176
     1
290
     1
176
     1
290
     1
176
     1
290
     0
176
     1
290
     0
176
     1
290
     0
176
     1
290
     0
176
     1
290
     0
176
     1
290
     0
176
     1
 90
       50
176
     1
 40
0.0
176
     1
 40
1.0
176
     1
 90
        0
176
     1
 62
    18
420
        0
176
     1
 90
       50
176
     1
 90
        3
176
     1
 62
     5
420
      255
176
     1
290
     0
176
     1
 90
       50
176
     1
 90
       50
176
     1
 90
       50
176
     1
290
     0
176
     1
 90
       50
176
     1
 62
   256
176
     0
 40
1.0
176
     0
 90
        2
176
     1
  1
strokes_ogs.tif
176
     1
290
     0
176
     1
 40
1.0
176
     1
 40
1.0
176
     1
  0
VISUALSTYLE
  5
35
102
{ACAD_REACTORS
330
29
102
}
330
29
100
AcDbVisualStyle
  2
Brighten
 70
    12
177
     3
291
     1
 70
    58
 90
        2
176
     1
 90
        2
176
     1
 90
        0
176
     1
 90
        0
176
     1
 40
0.6
176
     1
 40
30.0
176
     1
 62
     7
420
 16777215
176
     1
 90
        1
176
     1
 90
        4
176
     1
 62
     7
176
     1
 62
   257
176
     1
 90
        1
176
     1
 90
        1
176
     1
 40
1.0
176
     1
 90
        8
176
     1
 62
     7
176
     1
 40
1.0
176
     1
 90
        1
176
     1
 90
        6
176
     1
 90
        2
176
     1
 62
     7
176
     1
 90
        5
176
     1
 90
        0
176
     1
 90
        0
176
     1
290
     0
176
     1
 90
        1
176
     1
 40
50.0
176
     1
 90
        0
176
     1
290
     0
176
     1
290
     1
176
     1
290
     1
176
     1
290
     0
176
     1
290
     0
176
     1
290
     0
176
     1
290
     0
176
     1
290
     0
176
     1
290
     0
176
     1
 90
       50
176
     1
 40
0.0
176
     1
 40
1.0
176
     1
 90
        0
176
     1
 62
    18
420
        0
176
     1
 90
       50
176
     1
 90
        3
176
     1
 62
     5
420
      255
176
     1
290
     0
176
     1
 90
       50
176
     1
 90
       50
176
     1
 90
       50
176
     1
290
     0
176
     1
 90
       50
176
     1
 62
   256
176
     0
 40
1.0
176
     0
 90
        2
176
     1
  1
strokes_ogs.tif
176
     1
290
     0
176
     1
 40
1.0
176
     1
 40
1.0
176
     1
  0
VISUALSTYLE
  5
39
102
{ACAD_REACTORS
330
29
102
}
330
29
100
AcDbVisualStyle
  2
ColorChange
 70
    16
177
     3
291
     1
 70
    58
 90
        2
176
     1
 90
        2
176
     1
 90
        3
176
     1
 90
        0
176
     1
 40
0.6
176
     1
 40
30.0
176
     1
 62
     8
420
  8421504
176
     1
 90
        1
176
     1
 90
        4
176
     1
 62
     7
176
     1
 62
   257
176
     1
 90
        1
176
     1
 90
        1
176
     1
 40
1.0
176
     1
 90
        8
176
     1
 62
     8
420
  8421504
176
     1
 40
1.0
176
     1
 90
        1
176
     1
 90
        6
176
     1
 90
        2
176
     1
 62
     7
176
     1
 90
        5
176
     1
 90
        0
176
     1
 90
        0
176
     1
290
     0
176
     1
 90
        1
176
     1
 40
0.0
176
     1
 90
        0
176
     1
290
     0
176
     1
290
     1
176
     1
290
     1
176
     1
290
     0
176
     1
290
     0
176
     1
290
     0
176
     1
290
     0
176
     1
290
     0
176
     1
290
     0
176
     1
 90
       50
176
     1
 40
0.0
176
     1
 40
1.0
176
     1
 90
        0
176
     1
 62
    18
420
        0
176
     1
 90
       50
176
     1
 90
        3
176
     1
 62
     5
420
      255
176
     1
290
     0
176
     1
 90
       50
176
     1
 90
       50
176
     1
 90
       50
176
     1
290
     0
176
     1
 90
       50
176
     1
 62
   256
176
     0
 40
1.0
176
     0
 90
        2
176
     1
  1
strokes_ogs.tif
176
     1
290
     0
176
     1
 40
1.0
176
     1
 40
1.0
176
     1
  0
VISUALSTYLE
  5
32
102
{ACAD_REACTORS
330
29
102
}
330
29
100
AcDbVisualStyle
  2
Conceptual
 70
     9
177
     3
291
     0
 70
    58
 90
        3
176
     1
 90
        2
176
     1
 90
        0
176
     1
 90
        0
176
     1
 40
0.6
176
     1
 40
30.0
176
     1
 62
     7
420
 16777215
176
     1
 90
        2
176
     1
 90
        2
176
     1
 62
     7
176
     1
 62
   257
176
     1
 90
        1
176
     1
 90
        1
176
     1
 40
179.0
176
     1
 90
        8
176
     1
 62
     7
176
     1
 40
1.0
176
     1
 90
        1
176
     1
 90
        6
176
     1
 90
        2
176
     1
 62
     7
176
     1
 90
        3
176
     1
 90
        0
176
     1
 90
        0
176
     1
290
     0
176
     1
 90
        1
176
     1
 40
0.0
176
     1
 90
        0
176
     1
290
     0
176
     1
290
     1
176
     1
290
     1
176
     1
290
     0
176
     1
290
     0
176
     1
290
     0
176
     1
290
     0
176
     1
290
     0
176
     1
290
     0
176
     1
 90
       50
176
     1
 40
0.0
176
     1
 40
1.0
176
     1
 90
        0
176
     1
 62
    18
420
        0
176
     1
 90
       50
176
     1
 90
        3
176
     1
 62
     5
420
      255
176
     1
290
     0
176
     1
 90
       50
176
     1
 90
       50
176
     1
 90
       50
176
     1
290
     0
176
     1
 90
       50
176
     1
 62
   256
176
     0
 40
1.0
176
     0
 90
        2
176
     1
  1
strokes_ogs.tif
176
     1
290
     0
176
     1
 40
1.0
176
     1
 40
1.0
176
     1
  0
VISUALSTYLE
  5
34
102
{ACAD_REACTORS
330
29
102
}
330
29
100
AcDbVisualStyle
  2
Dim
 70
    11
177
     3
291
     1
 70
    58
 90
        2
176
     1
 90
        2
176
     1
 90
        0
176
     1
 90
        0
176
     1
 40
0.6
176
     1
 40
30.0
176
     1
 62
     7
420
 16777215
176
     1
 90
        1
176
     1
 90
        4
176
     1
 62
     7
176
     1
 62
   257
176
     1
 90
        1
176
     1
 90
        1
176
     1
 40
1.0
176
     1
 90
        8
176
     1
 62
     7
176
     1
 40
1.0
176
     1
 90
        1
176
     1
 90
        6
176
     1
 90
        2
176
     1
 62
     7
176
     1
 90
        5
176
     1
 90
        0
176
     1
 90
        0
176
     1
290
     0
176
     1
 90
        1
176
     1
 40
-50.0
176
     1
 90
        0
176
     1
290
     0
176
     1
290
     1
176
     1
290
     1
176
     1
290
     0
176
     1
290
     0
176
     1
290
     0
176
     1
290
     0
176
     1
290
     0
176
     1
290
     0
176
     1
 90
       50
176
     1
 40
0.0
176
     1
 40
1.0
176
     1
 90
        0
176
     1
 62
    18
420
        0
176
     1
 90
       50
176
     1
 90
        3
176
     1
 62
     5
420
      255
176
     1
290
     0
176
     1
 90
       50
176
     1
 90
       50
176
     1
 90
       50
176
     1
290
     0
176
     1
 90
       50
176
     1
 62
   256
176
     0
 40
1.0
176
     0
 90
        2
176
     1
  1
strokes_ogs.tif
176
     1
290
     0
176
     1
 40
1.0
176
     1
 40
1.0
176
     1
  0
VISUALSTYLE
  5
41
102
{ACAD_REACTORS
330
29
102
}
330
29
100
AcDbVisualStyle
  2
EdgeColorOff
 70
    22
177
     3
291
     1
 70
    58
 90
        2
176
     0
 90
        2
176
     0
 90
        0
176
     0
 90
        0
176
     0
 40
0.6
176
     0
 40
30.0
176
     0
 62
     7
420
 16777215
176
     0
 90
        1
176
     0
 90
        4
176
     0
 62
     7
176
     0
 62
   257
176
     0
 90
        1
176
     0
 90
        1
176
     0
 40
1.0
176
     0
 90
        8
176
     2
 62
     7
176
     0
 40
1.0
176
     0
 90
        1
176
     0
 90
        6
176
     0
 90
        2
176
     0
 62
     7
176
     0
 90
        5
176
     0
 90
        0
176
     0
 90
        0
176
     0
290
     0
176
     0
 90
        1
176
     0
 40
0.0
176
     0
 90
        0
176
     0
290
     0
176
     0
290
     1
176
     0
290
     1
176
     0
290
     0
176
     0
290
     0
176
     0
290
     0
176
     0
290
     0
176
     0
290
     0
176
     0
290
     0
176
     0
 90
       50
176
     0
 40
0.0
176
     0
 40
1.0
176
     0
 90
        0
176
     0
 62
    18
420
        0
176
     0
 90
       50
176
     0
 90
        3
176
     0
 62
     5
420
      255
176
     0
290
     0
176
     0
 90
       50
176
     0
 90
       50
176
     0
 90
       50
176
     0
290
     0
176
     0
 90
       50
176
     0
 62
   256
176
     0
 40
1.0
176
     0
 90
        2
176
     0
  1
strokes_ogs.tif
176
     0
290
     0
176
     0
 40
1.0
176
     0
 40
1.0
176
     0
  0
VISUALSTYLE
  5
38
102
{ACAD_REACTORS
330
29
102
}
330
29
100
AcDbVisualStyle
  2
Facepattern
 70
    15
177
     3
291
     1
 70
    58
 90
        2
176
     1
 90
        2
176
     1
 90
        0
176
     1
 90
        0
176
     1
 40
0.6
176
     1
 40
30.0
176
     1
 62
     7
420
 16777215
176
     1
 90
        1
176
     1
 90
        4
176
     1
 62
     7
176
     1
 62
   257
176
     1
 90
        1
176
     1
 90
        1
176
     1
 40
1.0
176
     1
 90
        8
176
     1
 62
     7
176
     1
 40
1.0
176
     1
 90
        1
176
     1
 90
        6
176
     1
 90
        2
176
     1
 62
     7
176
     1
 90
        5
176
     1
 90
        0
176
     1
 90
        0
176
     1
290
     0
176
     1
 90
        1
176
     1
 40
0.0
176
     1
 90
        0
176
     1
290
     0
176
     1
290
     1
176
     1
290
     1
176
     1
290
     0
176
     1
290
     0
176
     1
290
     0
176
     1
290
     0
176
     1
290
     0
176
     1
290
     0
176
     1
 90
       50
176
     1
 40
0.0
176
     1
 40
1.0
176
     1
 90
        0
176
     1
 62
    18
420
        0
176
     1
 90
       50
176
     1
 90
        3
176
     1
 62
     5
420
      255
176
     1
290
     0
176
     1
 90
       50
176
     1
 90
       50
176
     1
 90
       50
176
     1
290
     0
176
     1
 90
       50
176
     1
 62
   256
176
     0
 40
1.0
176
     0
 90
        2
176
     1
  1
strokes_ogs.tif
176
     1
290
     0
176
     1
 40
1.0
176
     1
 40
1.0
176
     1
  0
VISUALSTYLE
  5
2A
102
{ACAD_REACTORS
330
29
102
}
330
29
100
AcDbVisualStyle
  2
Flat
 70
     0
177
     3
291
     1
 70
    58
 90
        2
176
     1
 90
        1
176
     1
 90
        1
176
     1
 90
        2
176
     1
 40
0.6
176
     1
 40
30.0
176
     1
 62
     7
420
 16777215
176
     1
 90
        0
176
     1
 90
        0
176
     1
 62
     7
176
     1
 62
   257
176
     1
 90
        1
176
     1
 90
        1
176
     1
 40
1.0
176
     1
 90
        8
176
     1
 62
     7
176
     1
 40
1.0
176
     1
 90
        1
176
     1
 90
        6
176
     1
 90
        2
176
     1
 62
     7
176
     1
 90
        5
176
     1
 90
        0
176
     1
 90
        0
176
     1
290
     0
176
     1
 90
       13
176
     1
 40
0.0
176
     1
 90
        0
176
     1
290
     0
176
     1
290
     1
176
     1
290
     1
176
     1
290
     0
176
     1
290
     0
176
     1
290
     0
176
     1
290
     0
176
     1
290
     0
176
     1
290
     0
176
     1
 90
       50
176
     1
 40
0.0
176
     1
 40
1.0
176
     1
 90
        0
176
     1
 62
    18
420
        0
176
     1
 90
       50
176
     1
 90
        3
176
     1
 62
     5
420
      255
176
     1
290
     0
176
     1
 90
       50
176
     1
 90
       50
176
     1
 90
       50
176
     1
290
     0
176
     1
 90
       50
176
     1
 62
   256
176
     0
 40
1.0
176
     0
 90
        2
176
     1
  1
strokes_ogs.tif
176
     1
290
     0
176
     1
 40
1.0
176
     1
 40
1.0
176
     1
  0
VISUALSTYLE
  5
2B
102
{ACAD_REACTORS
330
29
102
}
330
29
100
AcDbVisualStyle
  2
FlatWithEdges
 70
     1
177
     3
291
     1
 70
    58
 90
        2
176
     1
 90
        1
176
     1
 90
        1
176
     1
 90
        2
176
     1
 40
0.6
176
     1
 40
30.0
176
     1
 62
     7
420
 16777215
176
     1
 90
        1
176
     1
 90
        0
176
     1
 62
     7
176
     1
 62
   257
176
     1
 90
        1
176
     1
 90
        1
176
     1
 40
1.0
176
     1
 90
        0
176
     1
 62
   257
176
     1
 40
1.0
176
     1
 90
        1
176
     1
 90
        6
176
     1
 90
        2
176
     1
 62
     7
176
     1
 90
        5
176
     1
 90
        0
176
     1
 90
        0
176
     1
290
     0
176
     1
 90
       13
176
     1
 40
0.0
176
     1
 90
        0
176
     1
290
     0
176
     1
290
     1
176
     1
290
     1
176
     1
290
     0
176
     1
290
     0
176
     1
290
     0
176
     1
290
     0
176
     1
290
     0
176
     1
290
     0
176
     1
 90
       50
176
     1
 40
0.0
176
     1
 40
1.0
176
     1
 90
        0
176
     1
 62
    18
420
        0
176
     1
 90
       50
176
     1
 90
        3
176
     1
 62
     5
420
      255
176
     1
290
     0
176
     1
 90
       50
176
     1
 90
       50
176
     1
 90
       50
176
     1
290
     0
176
     1
 90
       50
176
     1
 62
   256
176
     0
 40
1.0
176
     0
 90
        2
176
     1
  1
strokes_ogs.tif
176
     1
290
     0
176
     1
 40
1.0
176
     1
 40
1.0
176
     1
  0
VISUALSTYLE
  5
2C
102
{ACAD_REACTORS
330
29
102
}
330
29
100
AcDbVisualStyle
  2
Gouraud
 70
     2
177
     3
291
     1
 70
    58
 90
        2
176
     1
 90
        2
176
     1
 90
        1
176
     1
 90
        2
176
     1
 40
0.6
176
     1
 40
30.0
176
     1
 62
     7
420
 16777215
176
     1
 90
        0
176
     1
 90
        0
176
     1
 62
     7
176
     1
 62
   257
176
     1
 90
        1
176
     1
 90
        1
176
     1
 40
1.0
176
     1
 90
        0
176
     1
 62
     7
176
     1
 40
1.0
176
     1
 90
        1
176
     1
 90
        6
176
     1
 90
        2
176
     1
 62
     7
176
     1
 90
        5
176
     1
 90
        0
176
     1
 90
        0
176
     1
290
     0
176
     1
 90
       13
176
     1
 40
0.0
176
     1
 90
        0
176
     1
290
     0
176
     1
290
     1
176
     1
290
     1
176
     1
290
     0
176
     1
290
     0
176
     1
290
     0
176
     1
290
     0
176
     1
290
     0
176
     1
290
     0
176
     1
 90
       50
176
     1
 40
0.0
176
     1
 40
1.0
176
     1
 90
        0
176
     1
 62
    18
420
        0
176
     1
 90
       50
176
     1
 90
        3
176
     1
 62
     5
420
      255
176
     1
290
     0
176
     1
 90
       50
176
     1
 90
       50
176
     1
 90
       50
176
     1
290
     0
176
     1
 90
       50
176
     1
 62
   256
176
     0
 40
1.0
176
     0
 90
        2
176
     1
  1
strokes_ogs.tif
176
     1
290
     0
176
     1
 40
1.0
176
     1
 40
1.0
176
     1
  0
VISUALSTYLE
  5
2D
102
{ACAD_REACTORS
330
29
102
}
330
29
100
AcDbVisualStyle
  2
GouraudWithEdges
 70
     3
177
     3
291
     1
 70
    58
 90
        2
176
     1
 90
        2
176
     1
 90
        1
176
     1
 90
        2
176
     1
 40
0.6
176
     1
 40
30.0
176
     1
 62
     7
420
 16777215
176
     1
 90
        1
176
     1
 90
        0
176
     1
 62
     7
176
     1
 62
   257
176
     1
 90
        1
176
     1
 90
        1
176
     1
 40
1.0
176
     1
 90
        0
176
     1
 62
   257
176
     1
 40
1.0
176
     1
 90
        1
176
     1
 90
        6
176
     1
 90
        2
176
     1
 62
     7
176
     1
 90
        5
176
     1
 90
        0
176
     1
 90
        0
176
     1
290
     0
176
     1
 90
       13
176
     1
 40
0.0
176
     1
 90
        0
176
     1
290
     0
176
     1
290
     1
176
     1
290
     1
176
     1
290
     0
176
     1
290
     0
176
     1
290
     0
176
     1
290
     0
176
     1
290
     0
176
     1
290
     0
176
     1
 90
       50
176
     1
 40
0.0
176
     1
 40
1.0
176
     1
 90
        0
176
     1
 62
    18
420
        0
176
     1
 90
       50
176
     1
 90
        3
176
     1
 62
     5
420
      255
176
     1
290
     0
176
     1
 90
       50
176
     1
 90
       50
176
     1
 90
       50
176
     1
290
     0
176
     1
 90
       50
176
     1
 62
   256
176
     0
 40
1.0
176
     0
 90
        2
176
     1
  1
strokes_ogs.tif
176
     1
290
     0
176
     1
 40
1.0
176
     1
 40
1.0
176
     1
  0
VISUALSTYLE
  5
31
102
{ACAD_REACTORS
330
29
102
}
330
29
100
AcDbVisualStyle
  2
Hidden
 70
     6
177
     3
291
     0
 70
    58
 90
        1
176
     1
 90
        2
176
     1
 90
        2
176
     1
 90
        0
176
     1
 40
0.6
176
     1
 40
30.0
176
     1
 62
     7
420
 16777215
176
     1
 90
        2
176
     1
 90
        2
176
     1
 62
     7
176
     1
 62
   257
176
     1
 90
        2
176
     1
 90
        1
176
     1
 40
40.0
176
     1
 90
        0
176
     1
 62
   257
176
     1
 40
1.0
176
     1
 90
        1
176
     1
 90
        6
176
     1
 90
        2
176
     1
 62
     7
176
     1
 90
        3
176
     1
 90
        0
176
     1
 90
        0
176
     1
290
     0
176
     1
 90
        1
176
     1
 40
0.0
176
     1
 90
        0
176
     1
290
     0
176
     1
290
     1
176
     1
290
     1
176
     1
290
     0
176
     1
290
     0
176
     1
290
     0
176
     1
290
     0
176
     1
290
     0
176
     1
290
     0
176
     1
 90
       50
176
     1
 40
0.0
176
     1
 40
1.0
176
     1
 90
        0
176
     1
 62
    18
420
        0
176
     1
 90
       50
176
     1
 90
        3
176
     1
 62
     5
420
      255
176
     1
290
     0
176
     1
 90
       50
176
     1
 90
       50
176
     1
 90
       50
176
     1
290
     0
176
     1
 90
       50
176
     1
 62
   256
176
     0
 40
1.0
176
     0
 90
        2
176
     1
  1
strokes_ogs.tif
176
     1
290
     0
176
     1
 40
1.0
176
     1
 40
1.0
176
     1
  0
VISUALSTYLE
  5
3F
102
{ACAD_REACTORS
330
29
102
}
330
29
100
AcDbVisualStyle
  2
JitterOff
 70
    20
177
     3
291
     1
 70
    58
 90
        2
176
     0
 90
        2
176
     0
 90
        0
176
     0
 90
        0
176
     0
 40
0.6
176
     0
 40
30.0
176
     0
 62
     7
420
 16777215
176
     0
 90
        1
176
     0
 90
        4
176
     0
 62
     7
176
     0
 62
   257
176
     0
 90
        1
176
     0
 90
        1
176
     0
 40
1.0
176
     0
 90
       10
176
     2
 62
     7
176
     0
 40
1.0
176
     0
 90
        1
176
     0
 90
        6
176
     0
 90
        2
176
     0
 62
     7
176
     0
 90
        5
176
     0
 90
        0
176
     0
 90
        0
176
     0
290
     0
176
     0
 90
        1
176
     0
 40
0.0
176
     0
 90
        0
176
     0
290
     0
176
     0
290
     1
176
     0
290
     1
176
     0
290
     0
176
     0
290
     0
176
     0
290
     0
176
     0
290
     0
176
     0
290
     0
176
     0
290
     0
176
     0
 90
       50
176
     0
 40
0.0
176
     0
 40
1.0
176
     0
 90
        0
176
     0
 62
    18
420
        0
176
     0
 90
       50
176
     0
 90
        3
176
     0
 62
     5
420
      255
176
     0
290
     0
176
     0
 90
       50
176
     0
 90
       50
176
     0
 90
       50
176
     0
290
     0
176
     0
 90
       50
176
     0
 62
   256
176
     0
 40
1.0
176
     0
 90
        2
176
     0
  1
strokes_ogs.tif
176
     0
290
     0
176
     0
 40
1.0
176
     0
 40
1.0
176
     0
  0
VISUALSTYLE
  5
37
102
{ACAD_REACTORS
330
29
102
}
330
29
100
AcDbVisualStyle
  2
Linepattern
 70
    14
177
     3
291
     1
 70
    58
 90
        2
176
     1
 90
        2
176
     1
 90
        0
176
     1
 90
        0
176
     1
 40
0.6
176
     1
 40
30.0
176
     1
 62
     7
420
 16777215
176
     1
 90
        1
176
     1
 90
        4
176
     1
 62
     7
176
     1
 62
   257
176
     1
 90
        7
176
     1
 90
        7
176
     1
 40
1.0
176
     1
 90
        8
176
     1
 62
     7
176
     1
 40
1.0
176
     1
 90
        1
176
     1
 90
        6
176
     1
 90
        2
176
     1
 62
     7
176
     1
 90
        5
176
     1
 90
        0
176
     1
 90
        0
176
     1
290
     0
176
     1
 90
        1
176
     1
 40
0.0
176
     1
 90
        0
176
     1
290
     0
176
     1
290
     1
176
     1
290
     1
176
     1
290
     0
176
     1
290
     0
176
     1
290
     0
176
     1
290
     0
176
     1
290
     0
176
     1
290
     0
176
     1
 90
       50
176
     1
 40
0.0
176
     1
 40
1.0
176
     1
 90
        0
176
     1
 62
    18
420
        0
176
     1
 90
       50
176
     1
 90
        3
176
     1
 62
     5
420
      255
176
     1
290
     0
176
     1
 90
       50
176
     1
 90
       50
176
     1
 90
       50
176
     1
290
     0
176
     1
 90
       50
176
     1
 62
   256
176
     0
 40
1.0
176
     0
 90
        2
176
     1
  1
strokes_ogs.tif
176
     1
290
     0
176
     1
 40
1.0
176
     1
 40
1.0
176
     1
  0
VISUALSTYLE
  5
40
102
{ACAD_REACTORS
330
29
102
}
330
29
100
AcDbVisualStyle
  2
OverhangOff
 70
    21
177
     3
291
     1
 70
    58
 90
        2
176
     0
 90
        2
176
     0
 90
        0
176
     0
 90
        0
176
     0
 40
0.6
176
     0
 40
30.0
176
     0
 62
     7
420
 16777215
176
     0
 90
        1
176
     0
 90
        4
176
     0
 62
     7
176
     0
 62
   257
176
     0
 90
        1
176
     0
 90
        1
176
     0
 40
1.0
176
     0
 90
        9
176
     2
 62
     7
176
     0
 40
1.0
176
     0
 90
        1
176
     0
 90
        6
176
     0
 90
        2
176
     0
 62
     7
176
     0
 90
        5
176
     0
 90
        0
176
     0
 90
        0
176
     0
290
     0
176
     0
 90
        1
176
     0
 40
0.0
176
     0
 90
        0
176
     0
290
     0
176
     0
290
     1
176
     0
290
     1
176
     0
290
     0
176
     0
290
     0
176
     0
290
     0
176
     0
290
     0
176
     0
290
     0
176
     0
290
     0
176
     0
 90
       50
176
     0
 40
0.0
176
     0
 40
1.0
176
     0
 90
        0
176
     0
 62
    18
420
        0
176
     0
 90
       50
176
     0
 90
        3
176
     0
 62
     5
420
      255
176
     0
290
     0
176
     0
 90
       50
176
     0
 90
       50
176
     0
 90
       50
176
     0
290
     0
176
     0
 90
       50
176
     0
 62
   256
176
     0
 40
1.0
176
     0
 90
        2
176
     0
  1
strokes_ogs.tif
176
     0
290
     0
176
     0
 40
1.0
176
     0
 40
1.0
176
     0
  0
VISUALSTYLE
  5
33
102
{ACAD_REACTORS
330
29
102
}
330
29
100
AcDbVisualStyle
  2
Realistic
 70
     8
177
     3
291
     0
 70
    58
 90
        2
176
     1
 90
        3
176
     1
 90
        0
176
     1
 90
        2
176
     1
 40
0.6
176
     1
 40
30.0
176
     1
 62
     7
420
 16777215
176
     1
 90
        0
176
     1
 90
        0
176
     1
 62
     7
176
     1
 62
   257
176
     1
 90
        1
176
     1
 90
        1
176
     1
 40
1.0
176
     1
 90
        8
176
     1
 62
   257
176
     1
 40
1.0
176
     1
 90
        1
176
     1
 90
        6
176
     1
 90
        2
176
     1
 62
     7
176
     1
 90
        3
176
     1
 90
        0
176
     1
 90
        0
176
     1
290
     0
176
     1
 90
       13
176
     1
 40
0.0
176
     1
 90
        0
176
     1
290
     0
176
     1
290
     1
176
     1
290
     1
176
     1
290
     0
176
     1
290
     0
176
     1
290
     0
176
     1
290
     0
176
     1
290
     0
176
     1
290
     0
176
     1
 90
       50
176
     1
 40
0.0
176
     1
 40
1.0
176
     1
 90
        0
176
     1
 62
    18
420
        0
176
     1
 90
       50
176
     1
 90
        3
176
     1
 62
     5
420
      255
176
     1
290
     0
176
     1
 90
       50
176
     1
 90
       50
176
     1
 90
       50
176
     1
290
     0
176
     1
 90
       50
176
     1
 62
   256
176
     0
 40
1.0
176
     0
 90
        2
176
     1
  1
strokes_ogs.tif
176
     1
290
     0
176
     1
 40
1.0
176
     1
 40
1.0
176
     1
  0
VISUALSTYLE
  5
3E
102
{ACAD_REACTORS
330
29
102
}
330
29
100
AcDbVisualStyle
  2
Shaded
 70
    27
177
     3
291
     0
 70
    58
 90
        2
176
     1
 90
        2
176
     1
 90
        1
176
     1
 90
        2
176
     1
 40
0.6
176
     1
 40
30.0
176
     1
 62
     7
420
 16777215
176
     1
 90
        0
176
     1
 90
        4
176
     1
 62
     7
176
     1
 62
   257
176
     1
 90
        1
176
     1
 90
        1
176
     1
 40
1.0
176
     1
 90
        8
176
     1
 62
   257
176
     1
 40
1.0
176
     1
 90
        1
176
     1
 90
        6
176
     1
 90
        2
176
     1
 62
     8
420
  7895160
176
     1
 90
        3
176
     1
 90
        0
176
     1
 90
        0
176
     1
290
     0
176
     1
 90
        5
176
     1
 40
0.0
176
     1
 90
        0
176
     1
290
     0
176
     1
290
     1
176
     1
290
     1
176
     1
290
     0
176
     1
290
     0
176
     1
290
     0
176
     1
290
     0
176
     1
290
     0
176
     1
290
     0
176
     1
 90
       50
176
     1
 40
0.0
176
     1
 40
1.0
176
     1
 90
        0
176
     1
 62
    18
420
        0
176
     1
 90
       50
176
     1
 90
        3
176
     1
 62
     5
420
      255
176
     1
290
     0
176
     1
 90
       50
176
     1
 90
       50
176
     1
 90
       50
176
     1
290
     0
176
     1
 90
       50
176
     1
 62
   256
176
     0
 40
1.0
176
     0
 90
        2
176
     1
  1
strokes_ogs.tif
176
     1
290
     0
176
     1
 40
1.0
176
     1
 40
1.0
176
     1
  0
VISUALSTYLE
  5
3D
102
{ACAD_REACTORS
330
29
102
}
330
29
100
AcDbVisualStyle
  2
Shaded with edges
 70
    26
177
     3
291
     0
 70
    58
 90
        2
176
     1
 90
        2
176
     1
 90
        1
176
     1
 90
        2
176
     1
 40
0.6
176
     1
 40
30.0
176
     1
 62
     7
420
 16777215
176
     1
 90
        1
176
     1
 90
        2
176
     1
 62
     7
176
     1
 62
   257
176
     1
 90
        2
176
     1
 90
        1
176
     1
 40
1.0
176
     1
 90
        8
176
     1
 62
   257
176
     1
 40
1.0
176
     1
 90
        1
176
     1
 90
        6
176
     1
 90
        2
176
     1
 62
     7
176
     1
 90
        3
176
     1
 90
        0
176
     1
 90
        0
176
     1
290
     0
176
     1
 90
        5
176
     1
 40
0.0
176
     1
 90
        0
176
     1
290
     0
176
     1
290
     1
176
     1
290
     1
176
     1
290
     0
176
     1
290
     0
176
     1
290
     0
176
     1
290
     0
176
     1
290
     0
176
     1
290
     0
176
     1
 90
       50
176
     1
 40
0.0
176
     1
 40
1.0
176
     1
 90
        0
176
     1
 62
    18
420
        0
176
     1
 90
       50
176
     1
 90
        3
176
     1
 62
     5
420
      255
176
     1
290
     0
176
     1
 90
       50
176
     1
 90
       50
176
     1
 90
       50
176
     1
290
     0
176
     1
 90
       50
176
     1
 62
   256
176
     0
 40
1.0
176
     0
 90
        2
176
     1
  1
strokes_ogs.tif
176
     1
290
     0
176
     1
 40
1.0
176
     1
 40
1.0
176
     1
  0
VISUALSTYLE
  5
3A
102
{ACAD_REACTORS
330
29
102
}
330
29
100
AcDbVisualStyle
  2
Shades of Gray
 70
    23
177
     3
291
     0
 70
    58
 90
        2
176
     1
 90
        2
176
     1
 90
        3
176
     1
 90
        0
176
     1
 40
0.6
176
     1
 40
30.0
176
     1
 62
     7
420
 16777215
176
     1
 90
        2
176
     1
 90
        2
176
     1
 62
     7
176
     1
 62
     7
176
     1
 90
        1
176
     1
 90
        1
176
     1
 40
40.0
176
     1
 90
        8
176
     1
 62
     7
176
     1
 40
1.0
176
     1
 90
        1
176
     1
 90
        6
176
     1
 90
        2
176
     1
 62
     7
176
     1
 90
        3
176
     1
 90
        0
176
     1
 90
        0
176
     1
290
     0
176
     1
 90
        1
176
     1
 40
0.0
176
     1
 90
        0
176
     1
290
     0
176
     1
290
     1
176
     1
290
     1
176
     1
290
     0
176
     1
290
     0
176
     1
290
     0
176
     1
290
     0
176
     1
290
     0
176
     1
290
     0
176
     1
 90
       50
176
     1
 40
0.0
176
     1
 40
1.0
176
     1
 90
        0
176
     1
 62
    18
420
        0
176
     1
 90
       50
176
     1
 90
        3
176
     1
 62
     5
420
      255
176
     1
290
     0
176
     1
 90
       50
176
     1
 90
       50
176
     1
 90
       50
176
     1
290
     0
176
     1
 90
       50
176
     1
 62
   256
176
     0
 40
1.0
176
     0
 90
        2
176
     1
  1
strokes_ogs.tif
176
     1
290
     0
176
     1
 40
1.0
176
     1
 40
1.0
176
     1
  0
VISUALSTYLE
  5
3B
102
{ACAD_REACTORS
330
29
102
}
330
29
100
AcDbVisualStyle
  2
Sketchy
 70
    24
177
     3
291
     0
 70
    58
 90
        1
176
     1
 90
        2
176
     1
 90
        2
176
     1
 90
        0
176
     1
 40
0.6
176
     1
 40
30.0
176
     1
 62
     7
420
 16777215
176
     1
 90
        2
176
     1
 90
        2
176
     1
 62
     7
176
     1
 62
     7
176
     1
 90
        1
176
     1
 90
        1
176
     1
 40
40.0
176
     1
 90
       11
176
     1
 62
     7
176
     1
 40
1.0
176
     1
 90
        1
176
     1
 90
        6
176
     1
 90
        2
176
     1
 62
     7
176
     1
 90
        6
176
     1
 90
        0
176
     1
 90
        0
176
     1
290
     0
176
     1
 90
        1
176
     1
 40
0.0
176
     1
 90
        0
176
     1
290
     0
176
     1
290
     1
176
     1
290
     1
176
     1
290
     0
176
     1
290
     0
176
     1
290
     0
176
     1
290
     0
176
     1
290
     0
176
     1
290
     0
176
     1
 90
       50
176
     1
 40
0.0
176
     1
 40
1.0
176
     1
 90
        0
176
     1
 62
    18
420
        0
176
     1
 90
       50
176
     1
 90
        3
176
     1
 62
     5
420
      255
176
     1
290
     0
176
     1
 90
       50
176
     1
 90
       50
176
     1
 90
       50
176
     1
290
     0
176
     1
 90
       50
176
     1
 62
   256
176
     0
 40
1.0
176
     0
 90
        2
176
     1
  1
strokes_ogs.tif
176
     1
290
     0
176
     1
 40
1.0
176
     1
 40
1.0
176
     1
  0
VISUALSTYLE
  5
36
102
{ACAD_REACTORS
330
29
102
}
330
29
100
AcDbVisualStyle
  2
Thicken
 70
    13
177
     3
291
     1
 70
    58
 90
        2
176
     1
 90
        2
176
     1
 90
        0
176
     1
 90
        0
176
     1
 40
0.6
176
     1
 40
30.0
176
     1
 62
     7
420
 16777215
176
     1
 90
        1
176
     1
 90
        4
176
     1
 62
     7
176
     1
 62
   257
176
     1
 90
        1
176
     1
 90
        1
176
     1
 40
1.0
176
     1
 90
       12
176
     1
 62
     7
176
     1
 40
1.0
176
     1
 90
        1
176
     1
 90
        6
176
     1
 90
        2
176
     1
 62
     7
176
     1
 90
        5
176
     1
 90
        0
176
     1
 90
        0
176
     1
290
     0
176
     1
 90
        1
176
     1
 40
0.0
176
     1
 90
        0
176
     1
290
     0
176
     1
290
     1
176
     1
290
     1
176
     1
290
     0
176
     1
290
     0
176
     1
290
     0
176
     1
290
     0
176
     1
290
     0
176
     1
290
     0
176
     1
 90
       50
176
     1
 40
0.0
176
     1
 40
1.0
176
     1
 90
        0
176
     1
 62
    18
420
        0
176
     1
 90
       50
176
     1
 90
        3
176
     1
 62
     5
420
      255
176
     1
290
     0
176
     1
 90
       50
176
     1
 90
       50
176
     1
 90
       50
176
     1
290
     0
176
     1
 90
       50
176
     1
 62
   256
176
     0
 40
1.0
176
     0
 90
        2
176
     1
  1
strokes_ogs.tif
176
     1
290
     0
176
     1
 40
1.0
176
     1
 40
1.0
176
     1
  0
VISUALSTYLE
  5
30
102
{ACAD_REACTORS
330
29
102
}
330
29
100
AcDbVisualStyle
  2
Wireframe
 70
     5
177
     3
291
     0
 70
    58
 90
        0
176
     1
 90
        2
176
     1
 90
        0
176
     1
 90
        0
176
     1
 40
0.6
176
     1
 40
30.0
176
     1
 62
     7
420
 16777215
176
     1
 90
        1
176
     1
 90
        4
176
     1
 62
     7
176
     1
 62
   257
176
     1
 90
        1
176
     1
 90
        1
176
     1
 40
1.0
176
     1
 90
        0
176
     1
 62
   257
176
     1
 40
1.0
176
     1
 90
        1
176
     1
 90
        6
176
     1
 90
        2
176
     1
 62
     7
176
     1
 90
        3
176
     1
 90
        0
176
     1
 90
        0
176
     1
290
     0
176
     1
 90
        1
176
     1
 40
0.0
176
     1
 90
        0
176
     1
290
     0
176
     1
290
     1
176
     1
290
     1
176
     1
290
     0
176
     1
290
     0
176
     1
290
     0
176
     1
290
     0
176
     1
290
     0
176
     1
290
     0
176
     1
 90
       50
176
     1
 40
0.0
176
     1
 40
1.0
176
     1
 90
        0
176
     1
 62
    18
420
        0
176
     1
 90
       50
176
     1
 90
        3
176
     1
 62
     5
420
      255
176
     1
290
     0
176
     1
 90
       50
176
     1
 90
       50
176
     1
 90
       50
176
     1
290
     0
176
     1
 90
       50
176
     1
 62
   256
176
     0
 40
1.0
176
     0
 90
        2
176
     1
  1
strokes_ogs.tif
176
     1
290
     0
176
     1
 40
1.0
176
     1
 40
1.0
176
     1
  0
VISUALSTYLE
  5
3C
102
{ACAD_REACTORS
330
29
102
}
330
29
100
AcDbVisualStyle
  2
X-Ray
 70
    25
177
     3
291
     0
 70
    58
 90
        2
176
     1
 90
        2
176
     1
 90
        1
176
     1
 90
        1
176
     1
 40
0.5
176
     1
 40
30.0
176
     1
 62
     7
420
 16777215
176
     1
 90
        1
176
     1
 90
        0
176
     1
 62
     7
176
     1
 62
   257
176
     1
 90
        1
176
     1
 90
        1
176
     1
 40
1.0
176
     1
 90
        8
176
     1
 62
     7
176
     1
 40
1.0
176
     1
 90
        1
176
     1
 90
        6
176
     1
 90
        2
176
     1
 62
     7
176
     1
 90
        3
176
     1
 90
        0
176
     1
 90
        0
176
     1
290
     0
176
     1
 90
       13
176
     1
 40
0.0
176
     1
 90
        0
176
     1
290
     0
176
     1
290
     1
176
     1
290
     1
176
     1
290
     0
176
     1
290
     0
176
     1
290
     0
176
     1
290
     0
176
     1
290
     0
176
     1
290
     0
176
     1
 90
       50
176
     1
 40
0.0
176
     1
 40
1.0
176
     1
 90
        0
176
     1
 62
    18
420
        0
176
     1
 90
       50
176
     1
 90
        3
176
     1
 62
     5
420
      255
176
     1
290
     0
176
     1
 90
       50
176
     1
 90
       50
176
     1
 90
       50
176
     1
290
     0
176
     1
 90
       50
176
     1
 62
   256
176
     0
 40
1.0
176
     0
 90
        2
176
     1
  1
strokes_ogs.tif
176
     1
290
     0
176
     1
 40
1.0
176
     1
 40
1.0
176
     1
  0
DICTIONARYVAR
  5
98
102
{ACAD_REACTORS
330
93
102
}
330
93
100
DictionaryVariables
280
     0
  1
1:1
  0
DICTIONARYVAR
  5
95
102
{ACAD_REACTORS
330
93
102
}
330
93
100
DictionaryVariables
280
     0
  1
STANDARD
  0
DICTIONARYVAR
  5
94
102
{ACAD_REACTORS
330
93
102
}
330
93
100
DictionaryVariables
280
     0
  1
STANDARD
  0
DICTIONARYVAR
  5
96
102
{ACAD_REACTORS
330
93
102
}
330
93
100
DictionaryVariables
280
     0
  1
Imperial24
  0
DICTIONARYVAR
  5
97
102
{ACAD_REACTORS
330
93
102
}
330
93
100
DictionaryVariables
280
     0
  1
Imperial24
  0
DICTIONARY
  5
1A
330
19
100
AcDbDictionary
280
     1
281
     1
  3
BUMPTILE
360
1C
  3
DIFFUSETILE
360
1B
  3
OPACITYTILE
360
1F
  3
REFLECTIONTILE
360
1E
  3
REFRACTIONTILE
360
20
  3
SPECULARTILE
360
1D
  0
DICTIONARY
  5
12
330
11
100
AcDbDictionary
280
     1
281
     1
  3
BUMPTILE
360
14
  3
DIFFUSETILE
360
13
  3
OPACITYTILE
360
17
  3
REFLECTIONTILE
360
16
  3
REFRACTIONTILE
360
18
  3
SPECULARTILE
360
15
  0
DICTIONARY
  5
22
330
21
100
AcDbDictionary
280
     1
281
     1
  3
BUMPTILE
360
24
  3
DIFFUSETILE
360
23
  3
OPACITYTILE
360
27
  3
REFLECTIONTILE
360
26
  3
REFRACTIONTILE
360
28
  3
SPECULARTILE
360
25
  0
DICTIONARY
  5
99
330
65
100
AcDbDictionary
280
     1
281
     1
  3
ACAD_ROUNDTRIP_2008_TABLESTYLE_CELLSTYLEMAP
360
9A
  0
XRECORD
  5
1C
102
{ACAD_REACTORS
330
1A
102
}
330
1A
100
AcDbXrecord
280
     1
270
     1
271
     1
  0
XRECORD
  5
1B
102
{ACAD_REACTORS
330
1A
102
}
330
1A
100
AcDbXrecord
280
     1
270
     1
271
     1
  0
XRECORD
  5
1F
102
{ACAD_REACTORS
330
1A
102
}
330
1A
100
AcDbXrecord
280
     1
270
     1
271
     1
  0
XRECORD
  5
1E
102
{ACAD_REACTORS
330
1A
102
}
330
1A
100
AcDbXrecord
280
     1
270
     1
271
     1
  0
XRECORD
  5
20
102
{ACAD_REACTORS
330
1A
102
}
330
1A
100
AcDbXrecord
280
     1
270
     1
271
     1
  0
XRECORD
  5
1D
102
{ACAD_REACTORS
330
1A
102
}
330
1A
100
AcDbXrecord
280
     1
270
     1
271
     1
  0
XRECORD
  5
14
102
{ACAD_REACTORS
330
12
102
}
330
12
100
AcDbXrecord
280
     1
270
     1
271
     1
  0
XRECORD
  5
13
102
{ACAD_REACTORS
330
12
102
}
330
12
100
AcDbXrecord
280
     1
270
     1
271
     1
  0
XRECORD
  5
17
102
{ACAD_REACTORS
330
12
102
}
330
12
100
AcDbXrecord
280
     1
270
     1
271
     1
  0
XRECORD
  5
16
102
{ACAD_REACTORS
330
12
102
}
330
12
100
AcDbXrecord
280
     1
270
     1
271
     1
  0
XRECORD
  5
18
102
{ACAD_REACTORS
330
12
102
}
330
12
100
AcDbXrecord
280
     1
270
     1
271
     1
  0
XRECORD
  5
15
102
{ACAD_REACTORS
330
12
102
}
330
12
100
AcDbXrecord
280
     1
270
     1
271
     1
  0
XRECORD
  5
24
102
{ACAD_REACTORS
330
22
102
}
330
22
100
AcDbXrecord
280
     1
270
     1
271
     1
  0
XRECORD
  5
23
102
{ACAD_REACTORS
330
22
102
}
330
22
100
AcDbXrecord
280
     1
270
     1
271
     1
  0
XRECORD
  5
27
102
{ACAD_REACTORS
330
22
102
}
330
22
100
AcDbXrecord
280
     1
270
     1
271
     1
  0
XRECORD
  5
26
102
{ACAD_REACTORS
330
22
102
}
330
22
100
AcDbXrecord
280
     1
270
     1
271
     1
  0
XRECORD
  5
28
102
{ACAD_REACTORS
330
22
102
}
330
22
100
AcDbXrecord
280
     1
270
     1
271
     1
  0
XRECORD
  5
25
102
{ACAD_REACTORS
330
22
102
}
330
22
100
AcDbXrecord
280
     1
270
     1
271
     1
  0
CELLSTYLEMAP
  5
9A
102
{ACAD_REACTORS
330
99
102
}
330
99
100
AcDbCellStyleMap
 90
        3
300
CELLSTYLE
  1
TABLEFORMAT_BEGIN
 90
        5
170
     1
 91
        0
 92
    32768
 62
   257
 93
        1
300
CONTENTFORMAT
  1
CONTENTFORMAT_BEGIN
 90
        0
 91
        0
 92
      512
 93
        0
300

 40
0.0
140
1.0
 94
        5
 62
     0
340
55
144
0.25
309
CONTENTFORMAT_END
171
     0
 94
        0
309
TABLEFORMAT_END
  1
CELLSTYLE_BEGIN
 90
        1
 91
        1
300
_TITLE
309
CELLSTYLE_END
300
CELLSTYLE
  1
TABLEFORMAT_BEGIN
 90
        5
170
     1
 91
        0
 92
        0
 62
   257
 93
        1
300
CONTENTFORMAT
  1
CONTENTFORMAT_BEGIN
 90
        0
 91
        0
 92
      512
 93
        0
300

 40
0.0
140
1.0
 94
        5
 62
     0
340
55
144
0.18
309
CONTENTFORMAT_END
171
     0
 94
        0
309
TABLEFORMAT_END
  1
CELLSTYLE_BEGIN
 90
        2
 91
        1
300
_HEADER
309
CELLSTYLE_END
300
CELLSTYLE
  1
TABLEFORMAT_BEGIN
 90
        5
170
     1
 91
        0
 92
        0
 62
   257
 93
        1
300
CONTENTFORMAT
  1
CONTENTFORMAT_BEGIN
 90
        0
 91
        0
 92
      512
 93
        0
300

 40
0.0
140
1.0
 94
        2
 62
     0
340
55
144
0.18
309
CONTENTFORMAT_END
171
     0
 94
        0
309
TABLEFORMAT_END
  1
CELLSTYLE_BEGIN
 90
        3
 91
        2
300
_DATA
309
CELLSTYLE_END
  0
ENDSEC
  0
EOF
