<?xml version="1.0" encoding="UTF-8"?>
<svg id="Layer_1" data-name="Layer 1" xmlns="http://www.w3.org/2000/svg" viewBox="0 0 280.56 216.66">
  <defs>
    <style>
      .cls-1 {
        fill: #fff;
      }
    </style>
  </defs>
  <path class="cls-1" d="M280.56,0v216.66H0V0h280.56ZM268.7,97.32c1.83-2.18,6.16-11.28,6.88-14.12.79-3.09.57-6.28.89-9.42.69-6.62,1.72-10.9.41-17.69-2.11-10.9-13.88-31.81-22.01-39.42C242.47,5.04,216.6-.13,200.82,6.29c-5.16,2.1-11.71,6.98-16.33,10.31-7.03,5.05-13.48,10.53-19.77,16.46-.73.19-1.41-.04-2.1-.21-11.24-2.74-20.78-10.91-30.37.86-4.97,6.1-8.57,13.82-13.8,20.03-9.1,10.81-22.49,16.73-32.77,26.03-3.24,2.93-7.23,6.84-7.82,11.32-.55,4.18-.21,6.71-1.84,10.94-.98,2.53-3.02,6.91-5.88,7.56-4.03.91-9.09,1.1-13.31,1.81-15.51,2.6-34.92,8.79-44.02,22.45-9.21,13.83-10.58,29.39-7.94,45.43.82,5.01,1.42,10.58,3.97,14.98,7.44,12.8,21.13,15.46,34.75,17.09,6.34.76,13.02,1.46,19.38.72,5.6-.65,11.19-1.7,16.83-2.37,13.03-1.55,24.54-5.01,36.13-11.15,4.49-2.38,9.4-6.34,14.55-6.81s9.26,1.47,14.24,2.5c12.26,2.53,16,.68,26.24-5.21,15.56-8.95,32.87-19.28,46.05-31.4,4.07-3.74,8.53-9.15,10.79-14.22,1.33-2.99.69-4.83,1.11-7.75.15-1.02,1.46-7.26,1.79-7.7,5.82-4.05,12.54-7.36,18.04-11.83,4.21-3.42,7.92-7.87,11.88-11.63,2.36-2.24,6.09-4.81,8.07-7.16Z"/>
  <path d="M268.7,97.32c-1.98,2.36-5.71,4.93-8.07,7.16-3.96,3.76-7.67,8.21-11.88,11.63-5.5,4.47-12.22,7.78-18.04,11.83-.34.45-1.65,6.68-1.79,7.7-.43,2.92.22,4.76-1.11,7.75-2.26,5.07-6.73,10.48-10.79,14.22-13.19,12.12-30.49,22.45-46.05,31.4-10.25,5.89-13.99,7.74-26.24,5.21-4.98-1.03-8.95-2.98-14.24-2.5s-10.05,4.43-14.55,6.81c-11.58,6.14-23.1,9.6-36.13,11.15-5.64.67-11.23,1.72-16.83,2.37-6.36.74-13.04.04-19.38-.72-13.62-1.62-27.31-4.28-34.75-17.09-2.56-4.4-3.15-9.97-3.97-14.98-2.64-16.04-1.27-31.61,7.94-45.43,9.1-13.66,28.51-19.85,44.02-22.45,4.23-.71,9.28-.9,13.31-1.81,2.86-.64,4.9-5.03,5.88-7.56,1.63-4.22,1.29-6.76,1.84-10.94.59-4.49,4.58-8.39,7.82-11.32,10.27-9.3,23.67-15.21,32.77-26.03,5.23-6.22,8.83-13.94,13.8-20.03,9.59-11.77,19.13-3.6,30.37-.86.69.17,1.37.4,2.1.21,6.29-5.93,12.75-11.41,19.77-16.46,4.62-3.32,11.18-8.21,16.33-10.31,15.79-6.42,41.65-1.26,54.07,10.38,8.12,7.61,19.89,28.53,22.01,39.42,1.32,6.78.28,11.06-.41,17.69-.33,3.15-.11,6.33-.89,9.42-.72,2.84-5.06,11.94-6.88,14.12ZM247.59,16.89c-10.42-7.33-33.9-8.65-45.04-2.61s-26.35,17.57-33.93,27.26c-7.43,9.49-13.21,20.15-21.49,29.13-18.12,19.63-41.44,39.54-68.6,44.19-7.83,1.34-15.74.64-23.28,2.88-8.12,2.41-17.93,6.05-24.64,11.11-3.27,2.46-8.46,6.25-10.64,9.52-6.13,9.18-9.23,24.31-8.2,35.22.37,3.94,1.3,7.87,1.89,11.79.92,6.06.93,10.55,6.78,14.34,6.83,4.42,22.14,6.89,30.32,7.36,7.85.45,15.37-1.21,23.08-2.38,9.6-1.45,17.55-2.49,26.79-5.85,20.31-7.38,34.89-22.12,51.8-34.83,7.7-5.79,15.93-12.28,24.61-16.42,14.1-6.72,28.19-13.22,42.14-20.26,8.04-4.06,18.15-9.29,25.02-15.05,3.86-3.24,7.87-8.07,11.52-11.76,9.92-9.99,14.11-17.76,14.78-32.25.68-14.69-2.82-22.11-10.14-34.27-2.96-4.92-8.23-13.92-12.76-17.11ZM124.96,81.25c8.29-7.72,16.55-15.88,23.32-25.03,4.1-5.54,7.72-11.45,11.76-17.04.35-.5.4-.85-.07-1.29-.53-.5-7.11-2.94-8.24-3.28-6.36-1.89-10.37-.94-14.41,4.42-4.59,6.08-8.15,13.25-12.81,19.35-8.31,10.87-23.01,17.73-33.87,26.12-6.96,5.37-7.33,10.42-7.31,19.03,0,.88.28,1.29,1.18,1.18,11.09-4.56,22.27-8.74,31.87-16.08,2.97-2.27,5.84-4.83,8.58-7.38ZM216.39,146.75c3.43-3.79,6.61-6.81,6.1-12.28-.21-2.22-.66-2.24-2.49-1.51-7.61,3-16.3,8.43-23.83,12.17-8.56,4.25-17.66,7.57-25.51,13.13-2.41,1.71-4.62,3.73-7,5.48-8.64,6.32-19.37,13.38-26.86,20.89-1.23,1.23-1.46,1.71.3,2.35,5.66,2.07,15.11,2.86,20.67.38,19.23-12.82,42.97-23.28,58.62-40.6Z"/>
  <path class="cls-1" d="M247.59,16.89c4.53,3.19,9.8,12.19,12.76,17.11,7.32,12.17,10.81,19.58,10.14,34.27-.67,14.49-4.86,22.27-14.78,32.25-3.66,3.68-7.66,8.52-11.52,11.76-6.87,5.77-16.98,10.99-25.02,15.05-13.95,7.04-28.04,13.54-42.14,20.26-8.68,4.14-16.91,10.63-24.61,16.42-16.91,12.71-31.49,27.45-51.8,34.83-9.24,3.36-17.19,4.4-26.79,5.85-7.71,1.16-15.23,2.83-23.08,2.38-8.17-.47-23.49-2.94-30.32-7.36-5.85-3.79-5.86-8.27-6.78-14.34-.59-3.92-1.52-7.84-1.89-11.79-1.03-10.91,2.07-26.04,8.2-35.22,2.18-3.26,7.38-7.05,10.64-9.52,6.72-5.07,16.53-8.7,24.64-11.11,7.54-2.24,15.45-1.54,23.28-2.88,27.16-4.66,50.48-24.57,68.6-44.19,8.29-8.98,14.07-19.64,21.49-29.13,7.59-9.69,23.07-21.37,33.93-27.26s34.62-4.71,45.04,2.61ZM243.98,28.65c-14.54-12.81-29.46-12.72-46.55-4.62-25.7,12.18-30.02,33.8-47.52,52.91-10.44,11.39-25.77,25.62-39.46,32.65-7.84,4.02-26.11,13.25-34.25,13.98-4.59.41-7.58-.81-11.76-1.19-12.46-1.14-27.46,3.37-36,12.71-9.14,9.99-14.46,24.15-12.1,37.77,1.96,11.27,17.41,23.14,28.06,25.69,18.51,4.45,50.85-5.39,67.36-14.48,17.69-9.74,30.16-24.2,45.81-36.5,5.53-4.35,10.18-6.78,16.02-10.37s11.75-7.91,17.77-11.27c17.23-9.62,48.29-17.66,58.52-34.83,3.94-6.61,8.77-15.97,9.77-23.58,1.73-13.22-5.8-30.17-15.67-38.86Z"/>
  <path class="cls-1" d="M124.96,81.25c-2.73,2.55-5.6,5.11-8.58,7.38-9.6,7.34-20.78,11.52-31.87,16.08-.91.1-1.18-.31-1.18-1.18-.01-8.62.36-13.66,7.31-19.03,10.86-8.39,25.57-15.25,33.87-26.12,4.65-6.09,8.22-13.26,12.81-19.35,4.04-5.35,8.04-6.31,14.41-4.42,1.13.33,7.71,2.78,8.24,3.28.47.44.42.79.07,1.29-4.04,5.58-7.66,11.5-11.76,17.04-6.78,9.15-15.03,17.31-23.32,25.03Z"/>
  <path class="cls-1" d="M216.39,146.75c-15.65,17.32-39.39,27.78-58.62,40.6-5.56,2.48-15.01,1.69-20.67-.38-1.76-.64-1.53-1.12-.3-2.35,7.5-7.51,18.23-14.57,26.86-20.89,2.38-1.74,4.59-3.77,7-5.48,7.84-5.56,16.94-8.88,25.51-13.13,7.53-3.74,16.21-9.16,23.83-12.17,1.83-.72,2.29-.7,2.49,1.51.51,5.47-2.68,8.48-6.1,12.28Z"/>
  <path d="M243.98,28.65c9.87,8.69,17.41,25.64,15.67,38.86-1,7.62-5.83,16.98-9.77,23.58-10.23,17.17-41.3,25.21-58.52,34.83-6.01,3.36-11.86,7.64-17.77,11.27s-10.49,6.03-16.02,10.37c-15.65,12.31-28.11,26.76-45.81,36.5-16.51,9.09-48.85,18.92-67.36,14.48-10.65-2.56-26.1-14.42-28.06-25.69-2.37-13.62,2.96-27.78,12.1-37.77,8.54-9.34,23.54-13.84,36-12.71,4.18.38,7.17,1.6,11.76,1.19,8.14-.73,26.42-9.96,34.25-13.98,13.69-7.02,29.03-21.25,39.46-32.65,17.5-19.11,21.82-40.73,47.52-52.91,17.08-8.09,32.01-8.18,46.55,4.62ZM243.99,86.77c3.2-4.24,8-15.47,8.7-20.69,2.15-16.14-8.69-37.82-26.04-40.38-17.22-2.54-34.44,7.21-45.58,19.65-6.46,7.21-10.86,15.97-16.58,23.74-9.9,13.45-21.67,25.02-34.92,35.15-15.03,11.49-31.46,17.14-49.17,23.07-2.02.68-3.99,2-6.16,2.24-2.6.29-5.3-.53-7.9-.69-19.12-1.17-32.45,8.22-39.89,25.38-1.98,4.58-1.92,7.16-2.51,11.89-.72,5.76-2,8.04,1.38,13.58,11.9,19.51,35.97,14.53,54.39,9.55,13.48-3.64,26.33-9.24,37.85-17.11,16.04-10.96,29.54-25.96,45.74-36.57,8.75-5.73,18.4-12.5,27.56-17.31,16.82-8.83,41.33-15.87,53.11-31.48Z"/>
  <path class="cls-1" d="M243.99,86.77c-11.78,15.61-36.29,22.65-53.11,31.48-9.17,4.81-18.82,11.58-27.56,17.31-16.2,10.61-29.7,25.61-45.74,36.57-11.52,7.87-24.37,13.46-37.85,17.11-18.42,4.98-42.49,9.96-54.39-9.55-3.38-5.53-2.1-7.81-1.38-13.58.59-4.73.52-7.31,2.51-11.89,7.44-17.16,20.77-26.55,39.89-25.38,2.6.16,5.3.98,7.9.69,2.17-.24,4.13-1.57,6.16-2.24,17.71-5.93,34.13-11.58,49.17-23.07,13.25-10.13,25.03-21.7,34.92-35.15,5.72-7.77,10.12-16.52,16.58-23.74,11.14-12.44,28.36-22.19,45.58-19.65,17.35,2.56,28.19,24.24,26.04,40.38-.7,5.23-5.5,16.45-8.7,20.69ZM208.24,63.74c1.32-1.52,1.58-4.39-1.22-3.98-3.02.45-9.81,6.94-12.38,9.22-17.26,15.27-33.22,31.94-50.39,47.27-11.14,9.95-22.89,20.32-36.97,25.91-10.1,4-20.33,7.55-30.77,10.51-3.23.92-6.49,1.63-9.15,3.81-2.24,1.84-5.15,6.03.14,5.42s15.03-3.1,19.98-4.73c3.15-1.03,6.21-2.73,9.35-3.85,3.7-1.32,7.6-2.19,11.29-3.59,11.64-4.41,22.67-11.94,32.04-20.04,23.93-20.67,45.2-44.22,68.07-65.95Z"/>
  <path d="M208.24,63.74c-22.87,21.73-44.14,45.28-68.07,65.95-9.37,8.1-20.4,15.62-32.04,20.04-3.69,1.4-7.58,2.27-11.29,3.59-3.14,1.12-6.2,2.81-9.35,3.85-4.96,1.63-14.9,4.14-19.98,4.73s-2.38-3.58-.14-5.42c2.66-2.18,5.91-2.9,9.15-3.81,10.44-2.96,20.67-6.51,30.77-10.51,14.08-5.58,25.82-15.96,36.97-25.91,17.17-15.33,33.13-32,50.39-47.27,2.57-2.27,9.36-8.77,12.38-9.22,2.8-.42,2.54,2.46,1.22,3.98Z"/>
</svg>